M48
;GenerationSoftware,Autodesk,EAGLE,9.6.2*%
;CreationDate,2021-11-08T08:58:28Z*%
FMAT,2
ICI,OFF
METRIC,TZ,000.000
T8C0.350
T7C0.800
T6C0.813
T5C1.000
T4C1.016
T3C1.050
T2C1.321
T1C3.000
%
G90
M71
T1
X2540Y71120
X2540Y30480
X127000Y30480
X127000Y71120
T2
X50648Y35560
X45644Y35560
X29286Y34163
X78308Y34290
X56312Y34290
X7290Y34163
T3
X57658Y67183
X55118Y67183
X52578Y67183
X50038Y67183
X50038Y69723
X52578Y69723
X55118Y69723
X57658Y69723
T4
X69850Y40640
X77597Y68961
X75057Y71501
X75057Y68961
X101600Y71501
X101600Y68961
X99060Y71501
X99060Y68961
X96520Y71501
X96520Y68961
X40640Y35560
X40640Y38100
X77470Y40640
X74930Y40640
X72390Y40640
X96520Y64770
X5080Y65278
X7620Y65278
X10160Y65278
X12700Y65278
X5080Y41783
X7620Y41783
X10160Y41783
X12700Y41783
X15240Y41783
X17780Y41783
X20320Y41783
X22860Y41783
X25400Y41783
X27940Y41783
X30480Y41783
X35560Y41783
X38100Y41783
X40640Y41783
X123571Y63754
X123571Y61214
X123571Y58674
X123571Y56134
X123571Y53594
X123571Y51054
X123571Y48514
X123571Y45974
X82550Y64770
X80010Y64770
X77470Y64770
X74930Y64770
X72390Y64770
X69850Y64770
X67310Y64770
X64770Y64770
X82550Y48260
X80010Y48260
X77470Y48260
X74930Y48260
X72390Y48260
X69850Y48260
X67310Y48260
X64770Y48260
X104140Y64770
X101600Y64770
X99060Y64770
X33020Y41783
X93980Y64770
X91440Y64770
X88900Y64770
X86360Y64770
X104140Y48260
X101600Y48260
X99060Y48260
X96520Y48260
X93980Y48260
X91440Y48260
X88900Y48260
X86360Y48260
X99060Y40640
X96520Y40640
X93980Y40640
X91440Y40640
X80137Y71501
X80137Y68961
X77597Y71501
T5
X70195Y43942
X92008Y44069
X76200Y43815
X86360Y44450
X86360Y38100
X107950Y64770
X107950Y46391
X98036Y44204
T6
X33655Y37465
X33655Y33274
X36195Y33274
X15240Y64770
X35687Y37465
X50292Y63881
X55372Y63881
X22860Y64770
X54991Y73406
X80899Y42291
X82931Y42291
X102489Y42291
X104521Y42291
X56261Y42545
X56261Y40513
X60198Y40259
X47371Y73406
X60198Y42799
T7
X35560Y45720
X5080Y60960
X5080Y45720
X12700Y45720
X40640Y60960
X38100Y60960
X35560Y60960
X33020Y60960
X30480Y60960
X27940Y60960
X25400Y60960
X22860Y60960
X20320Y60960
X17780Y60960
X15240Y60960
X12700Y60960
X38100Y45720
X10160Y45720
X20320Y45720
X17780Y45720
X15240Y45720
X10160Y60960
X30480Y45720
X33020Y45720
X27940Y45720
X25400Y45720
X40640Y45720
X22860Y45720
X7620Y60960
X7620Y45720
T8
X60833Y28956
X18796Y71882
X18796Y66802
X67437Y28956
M30