G04 EAGLE Gerber RS-274X export*
G75*
%MOMM*%
%FSLAX34Y34*%
%LPD*%
%INBottom Copper*%
%IPPOS*%
%AMOC8*
5,1,8,0,0,1.08239X$1,22.5*%
G01*
%ADD10C,0.101600*%
%ADD11C,0.304800*%
%ADD12C,1.524000*%
%ADD13C,1.308000*%
%ADD14C,1.981200*%
%ADD15P,1.649562X8X202.500000*%
%ADD16R,1.575000X1.575000*%
%ADD17C,1.575000*%
%ADD18P,1.429621X8X22.500000*%
%ADD19P,1.429621X8X202.500000*%
%ADD20C,1.320800*%
%ADD21P,1.429621X8X112.500000*%
%ADD22C,2.540000*%
%ADD23C,1.000000*%
%ADD24C,1.500000*%
%ADD25C,0.756400*%

G36*
X1039151Y264161D02*
X1039151Y264161D01*
X1039162Y264161D01*
X1039469Y264182D01*
X1039771Y264201D01*
X1039782Y264203D01*
X1039793Y264203D01*
X1040091Y264262D01*
X1040392Y264320D01*
X1040403Y264323D01*
X1040413Y264325D01*
X1040700Y264421D01*
X1040993Y264517D01*
X1041003Y264521D01*
X1041013Y264525D01*
X1041285Y264655D01*
X1041564Y264787D01*
X1041573Y264793D01*
X1041583Y264798D01*
X1041835Y264961D01*
X1042096Y265128D01*
X1042105Y265135D01*
X1042114Y265141D01*
X1042345Y265336D01*
X1042582Y265533D01*
X1042589Y265541D01*
X1042597Y265548D01*
X1042804Y265772D01*
X1043012Y265997D01*
X1043018Y266005D01*
X1043025Y266013D01*
X1043203Y266263D01*
X1043380Y266510D01*
X1043385Y266520D01*
X1043391Y266529D01*
X1043536Y266800D01*
X1043680Y267066D01*
X1043684Y267076D01*
X1043689Y267086D01*
X1043799Y267372D01*
X1043908Y267656D01*
X1043911Y267666D01*
X1043915Y267676D01*
X1043987Y267973D01*
X1044060Y268270D01*
X1044061Y268280D01*
X1044064Y268291D01*
X1044098Y268596D01*
X1044133Y268897D01*
X1044133Y268908D01*
X1044134Y268919D01*
X1044129Y269227D01*
X1044126Y269530D01*
X1044125Y269540D01*
X1044125Y269551D01*
X1044081Y269855D01*
X1044040Y270156D01*
X1044037Y270166D01*
X1044035Y270177D01*
X1043954Y270472D01*
X1043875Y270766D01*
X1043871Y270776D01*
X1043868Y270786D01*
X1043750Y271069D01*
X1043634Y271350D01*
X1043629Y271360D01*
X1043625Y271370D01*
X1043473Y271635D01*
X1043322Y271900D01*
X1043316Y271909D01*
X1043310Y271918D01*
X1043127Y272161D01*
X1042943Y272406D01*
X1042935Y272413D01*
X1042929Y272422D01*
X1042717Y272639D01*
X1042503Y272860D01*
X1042495Y272866D01*
X1042487Y272874D01*
X1042079Y273204D01*
X1039765Y274886D01*
X1036169Y279836D01*
X1034278Y285654D01*
X1034278Y292111D01*
X1036583Y298502D01*
X1038096Y300328D01*
X1038231Y300513D01*
X1038373Y300694D01*
X1038417Y300769D01*
X1038468Y300839D01*
X1038578Y301040D01*
X1038696Y301238D01*
X1038731Y301317D01*
X1038772Y301393D01*
X1038857Y301606D01*
X1038948Y301817D01*
X1038973Y301900D01*
X1039004Y301981D01*
X1039061Y302204D01*
X1039125Y302424D01*
X1039139Y302509D01*
X1039160Y302593D01*
X1039189Y302822D01*
X1039225Y303048D01*
X1039227Y303135D01*
X1039238Y303221D01*
X1039237Y303451D01*
X1039244Y303680D01*
X1039236Y303766D01*
X1039236Y303853D01*
X1039206Y304081D01*
X1039184Y304309D01*
X1039165Y304393D01*
X1039153Y304479D01*
X1039095Y304702D01*
X1039045Y304926D01*
X1039015Y305007D01*
X1038993Y305091D01*
X1038907Y305304D01*
X1038829Y305520D01*
X1038789Y305597D01*
X1038757Y305677D01*
X1038644Y305878D01*
X1038539Y306082D01*
X1038485Y306163D01*
X1038448Y306229D01*
X1038368Y306337D01*
X1038247Y306518D01*
X1037155Y307974D01*
X1036017Y312415D01*
X1036665Y316954D01*
X1039001Y320899D01*
X1040835Y322275D01*
X1044227Y324819D01*
X1052273Y327501D01*
X1059572Y327501D01*
X1064830Y325792D01*
X1065062Y325733D01*
X1065292Y325666D01*
X1065368Y325654D01*
X1065443Y325635D01*
X1065680Y325606D01*
X1065916Y325569D01*
X1065993Y325566D01*
X1066070Y325557D01*
X1066309Y325557D01*
X1066548Y325550D01*
X1066625Y325558D01*
X1066702Y325558D01*
X1066940Y325589D01*
X1067177Y325612D01*
X1067252Y325629D01*
X1067329Y325639D01*
X1067561Y325700D01*
X1067794Y325753D01*
X1067875Y325782D01*
X1067941Y325799D01*
X1068068Y325850D01*
X1068288Y325928D01*
X1072085Y327501D01*
X1076670Y327501D01*
X1080989Y325712D01*
X1081054Y325655D01*
X1081207Y325551D01*
X1081354Y325439D01*
X1081468Y325374D01*
X1081577Y325300D01*
X1081742Y325216D01*
X1081902Y325124D01*
X1082023Y325074D01*
X1082141Y325015D01*
X1082315Y324952D01*
X1082486Y324881D01*
X1082612Y324846D01*
X1082736Y324802D01*
X1082917Y324763D01*
X1083095Y324713D01*
X1083225Y324695D01*
X1083353Y324667D01*
X1083538Y324650D01*
X1083721Y324624D01*
X1083852Y324622D01*
X1083983Y324610D01*
X1084168Y324617D01*
X1084353Y324614D01*
X1084484Y324629D01*
X1084615Y324634D01*
X1084797Y324664D01*
X1084981Y324684D01*
X1085109Y324715D01*
X1085238Y324737D01*
X1085415Y324789D01*
X1085596Y324833D01*
X1085718Y324880D01*
X1085844Y324917D01*
X1086013Y324992D01*
X1086186Y325058D01*
X1086302Y325120D01*
X1086422Y325173D01*
X1086581Y325269D01*
X1086744Y325356D01*
X1086851Y325432D01*
X1086963Y325500D01*
X1087108Y325615D01*
X1087253Y325717D01*
X1087302Y325738D01*
X1087408Y325789D01*
X1087516Y325832D01*
X1087691Y325928D01*
X1087870Y326016D01*
X1087968Y326080D01*
X1088070Y326137D01*
X1088281Y326287D01*
X1088398Y326364D01*
X1088440Y326400D01*
X1088477Y326427D01*
X1089775Y326797D01*
X1089797Y326805D01*
X1089820Y326810D01*
X1090315Y326986D01*
X1091563Y327502D01*
X1091653Y327508D01*
X1091770Y327506D01*
X1091968Y327528D01*
X1092168Y327541D01*
X1092282Y327563D01*
X1092398Y327576D01*
X1092650Y327633D01*
X1092788Y327660D01*
X1092842Y327677D01*
X1092886Y327687D01*
X1094227Y327533D01*
X1094250Y327532D01*
X1094273Y327528D01*
X1094797Y327501D01*
X1096148Y327501D01*
X1096234Y327471D01*
X1096341Y327425D01*
X1096532Y327369D01*
X1096721Y327305D01*
X1096836Y327281D01*
X1096948Y327248D01*
X1097203Y327205D01*
X1097340Y327177D01*
X1097396Y327173D01*
X1097441Y327165D01*
X1098621Y326510D01*
X1098642Y326500D01*
X1098662Y326487D01*
X1099136Y326261D01*
X1100431Y325725D01*
X1100650Y325532D01*
X1100661Y325525D01*
X1100671Y325516D01*
X1100920Y325349D01*
X1101173Y325177D01*
X1101185Y325171D01*
X1101196Y325164D01*
X1101464Y325030D01*
X1101737Y324892D01*
X1101750Y324887D01*
X1101761Y324881D01*
X1102047Y324781D01*
X1102332Y324679D01*
X1102345Y324676D01*
X1102358Y324672D01*
X1102657Y324608D01*
X1102950Y324544D01*
X1102963Y324543D01*
X1102976Y324540D01*
X1103280Y324514D01*
X1103579Y324487D01*
X1103593Y324488D01*
X1103606Y324487D01*
X1103908Y324499D01*
X1104211Y324511D01*
X1104224Y324513D01*
X1104237Y324513D01*
X1104536Y324564D01*
X1104835Y324614D01*
X1104847Y324617D01*
X1104860Y324620D01*
X1105151Y324708D01*
X1105440Y324794D01*
X1105452Y324800D01*
X1105465Y324803D01*
X1105946Y325013D01*
X1106625Y325352D01*
X1106666Y325377D01*
X1106710Y325396D01*
X1106940Y325536D01*
X1107171Y325670D01*
X1107209Y325699D01*
X1107250Y325725D01*
X1107665Y326047D01*
X1107823Y326184D01*
X1108883Y326538D01*
X1108969Y326573D01*
X1109057Y326599D01*
X1109346Y326725D01*
X1109469Y326775D01*
X1109499Y326792D01*
X1109538Y326809D01*
X1110538Y327309D01*
X1110747Y327324D01*
X1110795Y327331D01*
X1110843Y327332D01*
X1111107Y327373D01*
X1111373Y327409D01*
X1111420Y327421D01*
X1111468Y327428D01*
X1111974Y327568D01*
X1112172Y327634D01*
X1113287Y327555D01*
X1113379Y327554D01*
X1113471Y327545D01*
X1113787Y327551D01*
X1113919Y327550D01*
X1113954Y327554D01*
X1113996Y327555D01*
X1115111Y327634D01*
X1115310Y327568D01*
X1115357Y327556D01*
X1115402Y327539D01*
X1115662Y327475D01*
X1115921Y327406D01*
X1115969Y327400D01*
X1116016Y327389D01*
X1116537Y327324D01*
X1116745Y327309D01*
X1117745Y326809D01*
X1117830Y326773D01*
X1117912Y326730D01*
X1118206Y326614D01*
X1118328Y326563D01*
X1118361Y326554D01*
X1118400Y326538D01*
X1119461Y326184D01*
X1119619Y326047D01*
X1119658Y326018D01*
X1119692Y325985D01*
X1119908Y325827D01*
X1120122Y325664D01*
X1120163Y325640D01*
X1120202Y325612D01*
X1120659Y325352D01*
X1121309Y325027D01*
X1121321Y325022D01*
X1121333Y325016D01*
X1121613Y324899D01*
X1121891Y324781D01*
X1121904Y324777D01*
X1121916Y324772D01*
X1122209Y324692D01*
X1122500Y324610D01*
X1122513Y324608D01*
X1122526Y324605D01*
X1122825Y324562D01*
X1123125Y324517D01*
X1123138Y324517D01*
X1123151Y324515D01*
X1123454Y324510D01*
X1123757Y324504D01*
X1123770Y324506D01*
X1123783Y324505D01*
X1124087Y324539D01*
X1124385Y324571D01*
X1124398Y324574D01*
X1124412Y324575D01*
X1124706Y324647D01*
X1125000Y324716D01*
X1125013Y324721D01*
X1125026Y324724D01*
X1125306Y324831D01*
X1125592Y324938D01*
X1125604Y324944D01*
X1125617Y324949D01*
X1125883Y325091D01*
X1126151Y325233D01*
X1126162Y325241D01*
X1126174Y325247D01*
X1126421Y325422D01*
X1126669Y325596D01*
X1126679Y325605D01*
X1126690Y325613D01*
X1126817Y325728D01*
X1127850Y326156D01*
X1127946Y326202D01*
X1128046Y326241D01*
X1128293Y326373D01*
X1128418Y326434D01*
X1128457Y326460D01*
X1128509Y326487D01*
X1129427Y327038D01*
X1129682Y327076D01*
X1129715Y327083D01*
X1129748Y327086D01*
X1130023Y327149D01*
X1130300Y327208D01*
X1130332Y327219D01*
X1130365Y327227D01*
X1130859Y327402D01*
X1131098Y327501D01*
X1132168Y327501D01*
X1132274Y327507D01*
X1132381Y327505D01*
X1132660Y327532D01*
X1132798Y327541D01*
X1132844Y327550D01*
X1132903Y327555D01*
X1133962Y327713D01*
X1134212Y327650D01*
X1134245Y327644D01*
X1134277Y327634D01*
X1134555Y327587D01*
X1134834Y327536D01*
X1134867Y327534D01*
X1134900Y327528D01*
X1135425Y327501D01*
X1135683Y327501D01*
X1136671Y327091D01*
X1136772Y327057D01*
X1136870Y327014D01*
X1137137Y326932D01*
X1137269Y326887D01*
X1137315Y326877D01*
X1137372Y326860D01*
X1138409Y326601D01*
X1138617Y326447D01*
X1138645Y326429D01*
X1138671Y326407D01*
X1138910Y326257D01*
X1139148Y326103D01*
X1139178Y326089D01*
X1139206Y326071D01*
X1139680Y325845D01*
X1139919Y325746D01*
X1140675Y324990D01*
X1140755Y324919D01*
X1140829Y324842D01*
X1141045Y324664D01*
X1141149Y324572D01*
X1141188Y324546D01*
X1141234Y324508D01*
X1142098Y323868D01*
X1142165Y323825D01*
X1142226Y323776D01*
X1142430Y323653D01*
X1142629Y323524D01*
X1142700Y323490D01*
X1142768Y323449D01*
X1142985Y323353D01*
X1143199Y323250D01*
X1143274Y323225D01*
X1143346Y323193D01*
X1143573Y323126D01*
X1143798Y323051D01*
X1143876Y323035D01*
X1143952Y323013D01*
X1144186Y322974D01*
X1144418Y322928D01*
X1144497Y322923D01*
X1144575Y322910D01*
X1144813Y322901D01*
X1145049Y322885D01*
X1145128Y322890D01*
X1145207Y322887D01*
X1145443Y322908D01*
X1145680Y322922D01*
X1145758Y322936D01*
X1145836Y322944D01*
X1146068Y322994D01*
X1146301Y323038D01*
X1146377Y323062D01*
X1146454Y323079D01*
X1146677Y323159D01*
X1146903Y323232D01*
X1146975Y323265D01*
X1147049Y323292D01*
X1147261Y323399D01*
X1147476Y323500D01*
X1147542Y323542D01*
X1147613Y323578D01*
X1147913Y323776D01*
X1148010Y323838D01*
X1148027Y323852D01*
X1148051Y323868D01*
X1148915Y324508D01*
X1148996Y324577D01*
X1149084Y324639D01*
X1149292Y324826D01*
X1149398Y324916D01*
X1149430Y324950D01*
X1149474Y324990D01*
X1150230Y325746D01*
X1150469Y325845D01*
X1150499Y325860D01*
X1150530Y325871D01*
X1150782Y325999D01*
X1151036Y326123D01*
X1151064Y326142D01*
X1151094Y326157D01*
X1151532Y326447D01*
X1151739Y326601D01*
X1152777Y326860D01*
X1152879Y326892D01*
X1152983Y326916D01*
X1153247Y327010D01*
X1153379Y327052D01*
X1153422Y327072D01*
X1153478Y327091D01*
X1154466Y327501D01*
X1154724Y327501D01*
X1154757Y327503D01*
X1154791Y327501D01*
X1155074Y327523D01*
X1155355Y327541D01*
X1155388Y327547D01*
X1155421Y327550D01*
X1155937Y327650D01*
X1156187Y327713D01*
X1157245Y327555D01*
X1157352Y327546D01*
X1157457Y327528D01*
X1157737Y327514D01*
X1157875Y327502D01*
X1157922Y327504D01*
X1157981Y327501D01*
X1159051Y327501D01*
X1159289Y327402D01*
X1159321Y327391D01*
X1159351Y327377D01*
X1159620Y327289D01*
X1159887Y327197D01*
X1159920Y327191D01*
X1159952Y327180D01*
X1160467Y327076D01*
X1161078Y326985D01*
X1161184Y326946D01*
X1161353Y326908D01*
X1161518Y326860D01*
X1161660Y326838D01*
X1161800Y326806D01*
X1161972Y326789D01*
X1162143Y326762D01*
X1162287Y326758D01*
X1162430Y326744D01*
X1162602Y326749D01*
X1162775Y326744D01*
X1162918Y326758D01*
X1163061Y326762D01*
X1163232Y326789D01*
X1163404Y326806D01*
X1163544Y326838D01*
X1163686Y326860D01*
X1163851Y326908D01*
X1164020Y326946D01*
X1164180Y327003D01*
X1164293Y327036D01*
X1164385Y327076D01*
X1164515Y327121D01*
X1165430Y327501D01*
X1170015Y327501D01*
X1174334Y325712D01*
X1174399Y325655D01*
X1174552Y325551D01*
X1174699Y325439D01*
X1174813Y325374D01*
X1174922Y325300D01*
X1175087Y325216D01*
X1175247Y325124D01*
X1175368Y325074D01*
X1175486Y325015D01*
X1175660Y324952D01*
X1175831Y324881D01*
X1175957Y324846D01*
X1176081Y324802D01*
X1176262Y324763D01*
X1176440Y324713D01*
X1176570Y324695D01*
X1176698Y324667D01*
X1176883Y324650D01*
X1177066Y324624D01*
X1177197Y324622D01*
X1177328Y324610D01*
X1177513Y324617D01*
X1177698Y324614D01*
X1177829Y324629D01*
X1177960Y324634D01*
X1178142Y324664D01*
X1178326Y324684D01*
X1178454Y324715D01*
X1178583Y324737D01*
X1178760Y324789D01*
X1178941Y324833D01*
X1179063Y324880D01*
X1179189Y324917D01*
X1179358Y324992D01*
X1179531Y325058D01*
X1179647Y325120D01*
X1179767Y325173D01*
X1179926Y325269D01*
X1180089Y325356D01*
X1180196Y325432D01*
X1180308Y325500D01*
X1180453Y325615D01*
X1180598Y325717D01*
X1184904Y327501D01*
X1189488Y327501D01*
X1190786Y326963D01*
X1190899Y326925D01*
X1191009Y326877D01*
X1191198Y326822D01*
X1191384Y326759D01*
X1191501Y326735D01*
X1191616Y326701D01*
X1191811Y326671D01*
X1192003Y326631D01*
X1192122Y326622D01*
X1192240Y326604D01*
X1192437Y326598D01*
X1192634Y326583D01*
X1192753Y326589D01*
X1192872Y326586D01*
X1193068Y326605D01*
X1193265Y326615D01*
X1193383Y326636D01*
X1193501Y326647D01*
X1193693Y326691D01*
X1193887Y326726D01*
X1194001Y326761D01*
X1194118Y326788D01*
X1194357Y326873D01*
X1194491Y326914D01*
X1194543Y326939D01*
X1194613Y326963D01*
X1195910Y327501D01*
X1200495Y327501D01*
X1204814Y325712D01*
X1204879Y325655D01*
X1205032Y325551D01*
X1205179Y325439D01*
X1205293Y325374D01*
X1205402Y325300D01*
X1205567Y325216D01*
X1205727Y325124D01*
X1205848Y325074D01*
X1205966Y325015D01*
X1206140Y324952D01*
X1206311Y324881D01*
X1206437Y324846D01*
X1206561Y324802D01*
X1206742Y324763D01*
X1206920Y324713D01*
X1207050Y324695D01*
X1207178Y324667D01*
X1207363Y324650D01*
X1207546Y324624D01*
X1207677Y324622D01*
X1207808Y324610D01*
X1207993Y324617D01*
X1208178Y324614D01*
X1208309Y324629D01*
X1208440Y324634D01*
X1208622Y324664D01*
X1208806Y324684D01*
X1208934Y324715D01*
X1209063Y324737D01*
X1209240Y324789D01*
X1209421Y324833D01*
X1209543Y324880D01*
X1209669Y324917D01*
X1209838Y324992D01*
X1210011Y325058D01*
X1210127Y325120D01*
X1210247Y325173D01*
X1210406Y325269D01*
X1210569Y325356D01*
X1210676Y325432D01*
X1210788Y325500D01*
X1210933Y325615D01*
X1211078Y325717D01*
X1215384Y327501D01*
X1219968Y327501D01*
X1224204Y325746D01*
X1227446Y322504D01*
X1229201Y318268D01*
X1229201Y278632D01*
X1227446Y274396D01*
X1225745Y272695D01*
X1225580Y272507D01*
X1225409Y272323D01*
X1225371Y272270D01*
X1225328Y272221D01*
X1225187Y272013D01*
X1225041Y271810D01*
X1225010Y271752D01*
X1224973Y271697D01*
X1224860Y271474D01*
X1224741Y271254D01*
X1224717Y271192D01*
X1224687Y271134D01*
X1224603Y270898D01*
X1224513Y270664D01*
X1224497Y270600D01*
X1224475Y270538D01*
X1224421Y270294D01*
X1224361Y270050D01*
X1224353Y269985D01*
X1224339Y269921D01*
X1224317Y269671D01*
X1224288Y269423D01*
X1224289Y269357D01*
X1224283Y269291D01*
X1224292Y269040D01*
X1224295Y268790D01*
X1224304Y268725D01*
X1224306Y268660D01*
X1224347Y268412D01*
X1224381Y268164D01*
X1224398Y268101D01*
X1224409Y268036D01*
X1224481Y267796D01*
X1224546Y267554D01*
X1224571Y267493D01*
X1224590Y267430D01*
X1224691Y267201D01*
X1224787Y266970D01*
X1224819Y266912D01*
X1224846Y266852D01*
X1224975Y266638D01*
X1225099Y266420D01*
X1225138Y266367D01*
X1225172Y266311D01*
X1225328Y266115D01*
X1225478Y265914D01*
X1225524Y265867D01*
X1225565Y265816D01*
X1225744Y265640D01*
X1225918Y265460D01*
X1225969Y265419D01*
X1226016Y265373D01*
X1226216Y265222D01*
X1226412Y265066D01*
X1226468Y265031D01*
X1226520Y264992D01*
X1226737Y264867D01*
X1226951Y264736D01*
X1227011Y264709D01*
X1227068Y264677D01*
X1227300Y264580D01*
X1227528Y264478D01*
X1227591Y264459D01*
X1227652Y264433D01*
X1227893Y264367D01*
X1228133Y264294D01*
X1228198Y264283D01*
X1228261Y264266D01*
X1228508Y264230D01*
X1228756Y264188D01*
X1228830Y264184D01*
X1228887Y264176D01*
X1229026Y264174D01*
X1229280Y264161D01*
X1280040Y264161D01*
X1280225Y264172D01*
X1280410Y264174D01*
X1280540Y264192D01*
X1280671Y264201D01*
X1280852Y264236D01*
X1281036Y264261D01*
X1281162Y264295D01*
X1281292Y264320D01*
X1281468Y264378D01*
X1281646Y264426D01*
X1281767Y264476D01*
X1281892Y264517D01*
X1282060Y264596D01*
X1282230Y264666D01*
X1282345Y264731D01*
X1282463Y264787D01*
X1282619Y264887D01*
X1282780Y264978D01*
X1282885Y265057D01*
X1282996Y265128D01*
X1283138Y265247D01*
X1283286Y265358D01*
X1283380Y265449D01*
X1283481Y265533D01*
X1283607Y265669D01*
X1283740Y265798D01*
X1283822Y265900D01*
X1283911Y265997D01*
X1284019Y266147D01*
X1284134Y266291D01*
X1284203Y266404D01*
X1284279Y266510D01*
X1284367Y266673D01*
X1284464Y266831D01*
X1284517Y266951D01*
X1284580Y267066D01*
X1284646Y267239D01*
X1284722Y267408D01*
X1284760Y267533D01*
X1284808Y267656D01*
X1284852Y267836D01*
X1284906Y268013D01*
X1284928Y268142D01*
X1284959Y268270D01*
X1284981Y268453D01*
X1285012Y268636D01*
X1285020Y268789D01*
X1285032Y268897D01*
X1285031Y269006D01*
X1285039Y269160D01*
X1285039Y276266D01*
X1285026Y276472D01*
X1285022Y276680D01*
X1285006Y276788D01*
X1284999Y276897D01*
X1284960Y277100D01*
X1284930Y277305D01*
X1284901Y277410D01*
X1284880Y277518D01*
X1284816Y277715D01*
X1284760Y277914D01*
X1284718Y278014D01*
X1284683Y278119D01*
X1284595Y278306D01*
X1284514Y278496D01*
X1284460Y278591D01*
X1284413Y278690D01*
X1284301Y278864D01*
X1284197Y279043D01*
X1284131Y279130D01*
X1284072Y279222D01*
X1283939Y279381D01*
X1283814Y279545D01*
X1283737Y279623D01*
X1283667Y279707D01*
X1283515Y279848D01*
X1283370Y279995D01*
X1283284Y280063D01*
X1283203Y280137D01*
X1283036Y280258D01*
X1282873Y280386D01*
X1282779Y280442D01*
X1282690Y280506D01*
X1282508Y280604D01*
X1282330Y280710D01*
X1282230Y280754D01*
X1282134Y280806D01*
X1281940Y280881D01*
X1281751Y280964D01*
X1281646Y280994D01*
X1281544Y281034D01*
X1281343Y281084D01*
X1281145Y281142D01*
X1281036Y281159D01*
X1280930Y281186D01*
X1280725Y281209D01*
X1280521Y281242D01*
X1280411Y281246D01*
X1280303Y281259D01*
X1280096Y281256D01*
X1279889Y281263D01*
X1279780Y281253D01*
X1279670Y281252D01*
X1279466Y281224D01*
X1279260Y281204D01*
X1279137Y281178D01*
X1279044Y281165D01*
X1278926Y281133D01*
X1278746Y281095D01*
X1273312Y279639D01*
X1266688Y279639D01*
X1260288Y281354D01*
X1254551Y284666D01*
X1249866Y289351D01*
X1246554Y295088D01*
X1244839Y301488D01*
X1244839Y308112D01*
X1246554Y314512D01*
X1249866Y320249D01*
X1254551Y324934D01*
X1260288Y328246D01*
X1266688Y329961D01*
X1273312Y329961D01*
X1278746Y328505D01*
X1278949Y328464D01*
X1279150Y328414D01*
X1279258Y328402D01*
X1279366Y328380D01*
X1279572Y328365D01*
X1279777Y328341D01*
X1279887Y328343D01*
X1279996Y328335D01*
X1280203Y328346D01*
X1280410Y328348D01*
X1280518Y328363D01*
X1280627Y328369D01*
X1280831Y328406D01*
X1281036Y328435D01*
X1281142Y328463D01*
X1281249Y328483D01*
X1281446Y328545D01*
X1281646Y328599D01*
X1281747Y328641D01*
X1281852Y328674D01*
X1282039Y328761D01*
X1282230Y328840D01*
X1282326Y328894D01*
X1282425Y328940D01*
X1282600Y329050D01*
X1282780Y329152D01*
X1282868Y329218D01*
X1282960Y329276D01*
X1283120Y329407D01*
X1283286Y329531D01*
X1283364Y329608D01*
X1283449Y329677D01*
X1283591Y329827D01*
X1283740Y329971D01*
X1283808Y330057D01*
X1283883Y330136D01*
X1284005Y330303D01*
X1284134Y330465D01*
X1284192Y330559D01*
X1284256Y330647D01*
X1284356Y330828D01*
X1284464Y331005D01*
X1284508Y331105D01*
X1284561Y331200D01*
X1284638Y331393D01*
X1284722Y331581D01*
X1284754Y331686D01*
X1284794Y331788D01*
X1284846Y331988D01*
X1284906Y332186D01*
X1284924Y332294D01*
X1284951Y332400D01*
X1284977Y332605D01*
X1285012Y332809D01*
X1285018Y332935D01*
X1285030Y333027D01*
X1285030Y333151D01*
X1285039Y333334D01*
X1285039Y682666D01*
X1285026Y682872D01*
X1285022Y683080D01*
X1285006Y683188D01*
X1284999Y683297D01*
X1284960Y683500D01*
X1284930Y683705D01*
X1284901Y683810D01*
X1284880Y683918D01*
X1284816Y684115D01*
X1284760Y684314D01*
X1284718Y684414D01*
X1284683Y684519D01*
X1284595Y684706D01*
X1284514Y684896D01*
X1284460Y684991D01*
X1284413Y685090D01*
X1284301Y685264D01*
X1284197Y685443D01*
X1284131Y685530D01*
X1284072Y685622D01*
X1283939Y685781D01*
X1283814Y685945D01*
X1283737Y686023D01*
X1283667Y686107D01*
X1283515Y686248D01*
X1283370Y686395D01*
X1283284Y686463D01*
X1283203Y686537D01*
X1283036Y686658D01*
X1282873Y686786D01*
X1282779Y686842D01*
X1282690Y686906D01*
X1282508Y687004D01*
X1282330Y687110D01*
X1282230Y687154D01*
X1282134Y687206D01*
X1281940Y687281D01*
X1281751Y687364D01*
X1281646Y687394D01*
X1281544Y687434D01*
X1281343Y687484D01*
X1281145Y687542D01*
X1281036Y687559D01*
X1280930Y687586D01*
X1280725Y687609D01*
X1280521Y687642D01*
X1280411Y687646D01*
X1280303Y687659D01*
X1280096Y687656D01*
X1279889Y687663D01*
X1279780Y687653D01*
X1279670Y687652D01*
X1279466Y687624D01*
X1279260Y687604D01*
X1279137Y687578D01*
X1279044Y687565D01*
X1278926Y687533D01*
X1278746Y687495D01*
X1273312Y686039D01*
X1266688Y686039D01*
X1260288Y687754D01*
X1254551Y691066D01*
X1249866Y695751D01*
X1246554Y701488D01*
X1244839Y707888D01*
X1244839Y714512D01*
X1246554Y720912D01*
X1249866Y726649D01*
X1254551Y731334D01*
X1260288Y734646D01*
X1266688Y736361D01*
X1273312Y736361D01*
X1278746Y734905D01*
X1278949Y734864D01*
X1279150Y734814D01*
X1279258Y734802D01*
X1279366Y734780D01*
X1279572Y734765D01*
X1279777Y734741D01*
X1279887Y734743D01*
X1279996Y734735D01*
X1280203Y734746D01*
X1280410Y734748D01*
X1280518Y734763D01*
X1280627Y734769D01*
X1280831Y734806D01*
X1281036Y734835D01*
X1281142Y734863D01*
X1281249Y734883D01*
X1281446Y734945D01*
X1281646Y734999D01*
X1281747Y735041D01*
X1281852Y735074D01*
X1282039Y735161D01*
X1282230Y735240D01*
X1282326Y735294D01*
X1282425Y735340D01*
X1282600Y735450D01*
X1282780Y735552D01*
X1282868Y735618D01*
X1282960Y735676D01*
X1283120Y735807D01*
X1283286Y735931D01*
X1283364Y736008D01*
X1283449Y736077D01*
X1283591Y736227D01*
X1283740Y736371D01*
X1283808Y736457D01*
X1283883Y736536D01*
X1284005Y736703D01*
X1284134Y736865D01*
X1284192Y736959D01*
X1284256Y737047D01*
X1284356Y737228D01*
X1284464Y737405D01*
X1284508Y737505D01*
X1284561Y737600D01*
X1284638Y737793D01*
X1284722Y737981D01*
X1284754Y738086D01*
X1284794Y738188D01*
X1284846Y738388D01*
X1284906Y738586D01*
X1284924Y738694D01*
X1284951Y738800D01*
X1284977Y739006D01*
X1285012Y739209D01*
X1285018Y739335D01*
X1285030Y739427D01*
X1285030Y739551D01*
X1285039Y739734D01*
X1285039Y768940D01*
X1285028Y769125D01*
X1285026Y769310D01*
X1285008Y769440D01*
X1284999Y769571D01*
X1284964Y769752D01*
X1284939Y769936D01*
X1284905Y770062D01*
X1284880Y770192D01*
X1284822Y770368D01*
X1284774Y770546D01*
X1284724Y770667D01*
X1284683Y770792D01*
X1284604Y770960D01*
X1284534Y771130D01*
X1284469Y771245D01*
X1284413Y771363D01*
X1284313Y771519D01*
X1284222Y771680D01*
X1284143Y771785D01*
X1284072Y771896D01*
X1283953Y772038D01*
X1283842Y772186D01*
X1283751Y772280D01*
X1283667Y772381D01*
X1283531Y772507D01*
X1283402Y772640D01*
X1283300Y772722D01*
X1283203Y772811D01*
X1283053Y772919D01*
X1282909Y773034D01*
X1282796Y773103D01*
X1282690Y773179D01*
X1282527Y773267D01*
X1282369Y773364D01*
X1282249Y773417D01*
X1282134Y773480D01*
X1281961Y773546D01*
X1281792Y773622D01*
X1281667Y773660D01*
X1281544Y773708D01*
X1281364Y773752D01*
X1281187Y773806D01*
X1281058Y773828D01*
X1280930Y773859D01*
X1280747Y773881D01*
X1280564Y773912D01*
X1280411Y773920D01*
X1280303Y773932D01*
X1280194Y773931D01*
X1280040Y773939D01*
X573867Y773939D01*
X573617Y773923D01*
X573367Y773914D01*
X573302Y773903D01*
X573236Y773899D01*
X572990Y773852D01*
X572743Y773811D01*
X572680Y773792D01*
X572615Y773780D01*
X572377Y773702D01*
X572137Y773630D01*
X572077Y773604D01*
X572015Y773583D01*
X571788Y773476D01*
X571559Y773375D01*
X571503Y773341D01*
X571443Y773313D01*
X571232Y773177D01*
X571018Y773048D01*
X570967Y773007D01*
X570911Y772972D01*
X570719Y772811D01*
X570522Y772656D01*
X570476Y772609D01*
X570426Y772567D01*
X570255Y772383D01*
X570080Y772204D01*
X570041Y772152D01*
X569996Y772103D01*
X569850Y771900D01*
X569699Y771700D01*
X569666Y771643D01*
X569628Y771590D01*
X569509Y771370D01*
X569384Y771152D01*
X569358Y771091D01*
X569327Y771034D01*
X569237Y770800D01*
X569140Y770569D01*
X569123Y770505D01*
X569099Y770444D01*
X569039Y770201D01*
X568973Y769959D01*
X568963Y769894D01*
X568948Y769830D01*
X568919Y769582D01*
X568883Y769334D01*
X568882Y769268D01*
X568875Y769203D01*
X568877Y768953D01*
X568873Y768702D01*
X568881Y768636D01*
X568881Y768570D01*
X568916Y768323D01*
X568943Y768073D01*
X568959Y768009D01*
X568968Y767944D01*
X569033Y767703D01*
X569092Y767459D01*
X569116Y767397D01*
X569133Y767334D01*
X569228Y767103D01*
X569317Y766868D01*
X569348Y766810D01*
X569373Y766750D01*
X569497Y766531D01*
X569615Y766311D01*
X569653Y766257D01*
X569685Y766200D01*
X569836Y765999D01*
X569981Y765795D01*
X570030Y765741D01*
X570065Y765694D01*
X570162Y765594D01*
X570332Y765405D01*
X586772Y748965D01*
X589056Y743452D01*
X589056Y712105D01*
X589063Y711986D01*
X589061Y711867D01*
X589083Y711671D01*
X589096Y711474D01*
X589118Y711357D01*
X589131Y711238D01*
X589178Y711047D01*
X589215Y710854D01*
X589252Y710740D01*
X589280Y710624D01*
X589350Y710440D01*
X589412Y710253D01*
X589463Y710145D01*
X589505Y710033D01*
X589598Y709860D01*
X589682Y709682D01*
X589747Y709581D01*
X589803Y709476D01*
X589917Y709316D01*
X590023Y709149D01*
X590100Y709058D01*
X590169Y708960D01*
X590339Y708772D01*
X590428Y708664D01*
X590471Y708625D01*
X590520Y708570D01*
X591734Y707356D01*
X594456Y700786D01*
X594456Y693674D01*
X592191Y688207D01*
X592099Y687939D01*
X592004Y687672D01*
X591997Y687640D01*
X591986Y687608D01*
X591929Y687331D01*
X591869Y687054D01*
X591866Y687022D01*
X591859Y686989D01*
X591837Y686707D01*
X591812Y686425D01*
X591813Y686392D01*
X591811Y686359D01*
X591825Y686077D01*
X591835Y685793D01*
X591841Y685761D01*
X591842Y685728D01*
X591892Y685449D01*
X591938Y685169D01*
X591948Y685138D01*
X591954Y685106D01*
X592038Y684835D01*
X592119Y684564D01*
X592132Y684534D01*
X592142Y684502D01*
X592261Y684244D01*
X592375Y683986D01*
X592392Y683958D01*
X592406Y683928D01*
X592555Y683688D01*
X592702Y683445D01*
X592722Y683419D01*
X592739Y683391D01*
X592918Y683171D01*
X593094Y682949D01*
X593117Y682926D01*
X593138Y682900D01*
X593343Y682705D01*
X593546Y682507D01*
X593572Y682487D01*
X593596Y682464D01*
X593823Y682296D01*
X594049Y682125D01*
X594078Y682109D01*
X594104Y682089D01*
X594352Y681952D01*
X594598Y681810D01*
X594628Y681798D01*
X594657Y681782D01*
X594919Y681676D01*
X595181Y681567D01*
X595213Y681558D01*
X595243Y681546D01*
X595516Y681475D01*
X595790Y681399D01*
X595823Y681394D01*
X595855Y681386D01*
X596134Y681350D01*
X596416Y681310D01*
X596449Y681309D01*
X596482Y681305D01*
X596764Y681304D01*
X597048Y681300D01*
X597081Y681304D01*
X597114Y681303D01*
X597394Y681338D01*
X597676Y681370D01*
X597708Y681378D01*
X597741Y681382D01*
X598015Y681452D01*
X598291Y681519D01*
X598321Y681530D01*
X598353Y681538D01*
X598616Y681643D01*
X598881Y681744D01*
X598910Y681759D01*
X598941Y681771D01*
X599189Y681908D01*
X599439Y682041D01*
X599466Y682060D01*
X599494Y682076D01*
X599724Y682244D01*
X599954Y682407D01*
X599981Y682431D01*
X600005Y682449D01*
X600098Y682536D01*
X600345Y682758D01*
X676823Y759237D01*
X682337Y761521D01*
X1119554Y761521D01*
X1125067Y759237D01*
X1227679Y656625D01*
X1227769Y656546D01*
X1227852Y656460D01*
X1228006Y656337D01*
X1228154Y656207D01*
X1228252Y656140D01*
X1228346Y656066D01*
X1228514Y655963D01*
X1228677Y655853D01*
X1228783Y655799D01*
X1228885Y655736D01*
X1229065Y655656D01*
X1229241Y655567D01*
X1229353Y655527D01*
X1229462Y655478D01*
X1229651Y655421D01*
X1229836Y655354D01*
X1229952Y655329D01*
X1230067Y655294D01*
X1230261Y655261D01*
X1230453Y655219D01*
X1230572Y655208D01*
X1230690Y655188D01*
X1230944Y655175D01*
X1231083Y655162D01*
X1231141Y655165D01*
X1231214Y655161D01*
X1246835Y655161D01*
X1253311Y652478D01*
X1258268Y647521D01*
X1260951Y641045D01*
X1260951Y634035D01*
X1257934Y626753D01*
X1257896Y626640D01*
X1257848Y626531D01*
X1257794Y626341D01*
X1257730Y626155D01*
X1257706Y626038D01*
X1257673Y625923D01*
X1257642Y625729D01*
X1257603Y625536D01*
X1257594Y625417D01*
X1257575Y625299D01*
X1257569Y625102D01*
X1257554Y624906D01*
X1257560Y624786D01*
X1257557Y624667D01*
X1257576Y624471D01*
X1257586Y624274D01*
X1257607Y624157D01*
X1257619Y624038D01*
X1257662Y623846D01*
X1257697Y623652D01*
X1257733Y623538D01*
X1257759Y623422D01*
X1257844Y623183D01*
X1257886Y623049D01*
X1257910Y622996D01*
X1257934Y622927D01*
X1260951Y615645D01*
X1260951Y608635D01*
X1257934Y601353D01*
X1257896Y601240D01*
X1257848Y601131D01*
X1257794Y600941D01*
X1257730Y600755D01*
X1257706Y600638D01*
X1257673Y600523D01*
X1257642Y600329D01*
X1257603Y600136D01*
X1257594Y600017D01*
X1257575Y599899D01*
X1257569Y599702D01*
X1257554Y599506D01*
X1257560Y599386D01*
X1257557Y599267D01*
X1257576Y599071D01*
X1257586Y598874D01*
X1257607Y598757D01*
X1257619Y598638D01*
X1257662Y598446D01*
X1257697Y598252D01*
X1257733Y598138D01*
X1257759Y598022D01*
X1257844Y597783D01*
X1257886Y597649D01*
X1257910Y597596D01*
X1257934Y597527D01*
X1260951Y590245D01*
X1260951Y583235D01*
X1257934Y575953D01*
X1257896Y575840D01*
X1257848Y575731D01*
X1257794Y575541D01*
X1257730Y575355D01*
X1257706Y575238D01*
X1257673Y575123D01*
X1257642Y574929D01*
X1257603Y574736D01*
X1257594Y574617D01*
X1257575Y574499D01*
X1257569Y574302D01*
X1257554Y574106D01*
X1257560Y573986D01*
X1257557Y573867D01*
X1257576Y573671D01*
X1257586Y573474D01*
X1257607Y573357D01*
X1257619Y573238D01*
X1257662Y573046D01*
X1257697Y572852D01*
X1257733Y572738D01*
X1257759Y572622D01*
X1257844Y572383D01*
X1257886Y572249D01*
X1257910Y572196D01*
X1257934Y572127D01*
X1260951Y564845D01*
X1260951Y557835D01*
X1257934Y550553D01*
X1257896Y550440D01*
X1257848Y550331D01*
X1257794Y550141D01*
X1257730Y549955D01*
X1257706Y549838D01*
X1257673Y549723D01*
X1257642Y549529D01*
X1257603Y549336D01*
X1257594Y549217D01*
X1257575Y549099D01*
X1257569Y548902D01*
X1257554Y548706D01*
X1257560Y548586D01*
X1257557Y548467D01*
X1257576Y548271D01*
X1257586Y548074D01*
X1257607Y547957D01*
X1257619Y547838D01*
X1257662Y547646D01*
X1257697Y547452D01*
X1257733Y547338D01*
X1257759Y547222D01*
X1257844Y546983D01*
X1257886Y546849D01*
X1257910Y546796D01*
X1257934Y546727D01*
X1260951Y539445D01*
X1260951Y532435D01*
X1257934Y525153D01*
X1257896Y525040D01*
X1257848Y524931D01*
X1257794Y524741D01*
X1257730Y524555D01*
X1257706Y524438D01*
X1257673Y524323D01*
X1257642Y524129D01*
X1257603Y523936D01*
X1257594Y523817D01*
X1257575Y523699D01*
X1257569Y523502D01*
X1257554Y523306D01*
X1257560Y523186D01*
X1257557Y523067D01*
X1257576Y522871D01*
X1257586Y522674D01*
X1257607Y522557D01*
X1257619Y522438D01*
X1257662Y522246D01*
X1257697Y522052D01*
X1257733Y521938D01*
X1257759Y521822D01*
X1257844Y521583D01*
X1257886Y521449D01*
X1257910Y521396D01*
X1257934Y521327D01*
X1260951Y514045D01*
X1260951Y507035D01*
X1258268Y500559D01*
X1253291Y495581D01*
X1253269Y495557D01*
X1253245Y495535D01*
X1253060Y495320D01*
X1252873Y495107D01*
X1252855Y495080D01*
X1252834Y495056D01*
X1252677Y494817D01*
X1252518Y494584D01*
X1252504Y494555D01*
X1252486Y494528D01*
X1252360Y494272D01*
X1252232Y494020D01*
X1252222Y493989D01*
X1252207Y493960D01*
X1252116Y493692D01*
X1252020Y493424D01*
X1252013Y493393D01*
X1252003Y493362D01*
X1251945Y493084D01*
X1251885Y492807D01*
X1251882Y492775D01*
X1251875Y492743D01*
X1251853Y492460D01*
X1251828Y492177D01*
X1251829Y492145D01*
X1251827Y492113D01*
X1251841Y491830D01*
X1251851Y491546D01*
X1251857Y491514D01*
X1251858Y491482D01*
X1251908Y491202D01*
X1251954Y490922D01*
X1251964Y490891D01*
X1251969Y490859D01*
X1252054Y490588D01*
X1252135Y490316D01*
X1252148Y490287D01*
X1252158Y490256D01*
X1252210Y490139D01*
X1235710Y490139D01*
X1218882Y490139D01*
X1218894Y490235D01*
X1218894Y490256D01*
X1218897Y490277D01*
X1218894Y490571D01*
X1218893Y490867D01*
X1218890Y490888D01*
X1218890Y490910D01*
X1218850Y491202D01*
X1218812Y491494D01*
X1218807Y491514D01*
X1218804Y491536D01*
X1218727Y491820D01*
X1218652Y492105D01*
X1218644Y492125D01*
X1218639Y492146D01*
X1218527Y492416D01*
X1218417Y492692D01*
X1218406Y492711D01*
X1218398Y492730D01*
X1218253Y492986D01*
X1218109Y493244D01*
X1218097Y493261D01*
X1218086Y493280D01*
X1217910Y493515D01*
X1217735Y493753D01*
X1217720Y493769D01*
X1217707Y493786D01*
X1217502Y493997D01*
X1217299Y494211D01*
X1217282Y494224D01*
X1217267Y494240D01*
X1217035Y494425D01*
X1216808Y494609D01*
X1216790Y494621D01*
X1216773Y494634D01*
X1216520Y494789D01*
X1216272Y494943D01*
X1216252Y494952D01*
X1216234Y494964D01*
X1215964Y495084D01*
X1215697Y495207D01*
X1215676Y495213D01*
X1215657Y495222D01*
X1215374Y495308D01*
X1215094Y495396D01*
X1215073Y495400D01*
X1215052Y495406D01*
X1214761Y495455D01*
X1214472Y495507D01*
X1214450Y495508D01*
X1214429Y495512D01*
X1213904Y495539D01*
X1169226Y495539D01*
X1163713Y497823D01*
X1106501Y555035D01*
X1106411Y555114D01*
X1106328Y555200D01*
X1106174Y555323D01*
X1106026Y555453D01*
X1105928Y555520D01*
X1105834Y555594D01*
X1105666Y555697D01*
X1105503Y555807D01*
X1105397Y555861D01*
X1105295Y555924D01*
X1105115Y556004D01*
X1104939Y556093D01*
X1104827Y556133D01*
X1104718Y556182D01*
X1104529Y556239D01*
X1104344Y556306D01*
X1104228Y556331D01*
X1104113Y556366D01*
X1103919Y556399D01*
X1103727Y556441D01*
X1103608Y556452D01*
X1103490Y556472D01*
X1103236Y556485D01*
X1103097Y556498D01*
X1103039Y556495D01*
X1102966Y556499D01*
X1024284Y556499D01*
X1024165Y556492D01*
X1024046Y556494D01*
X1023850Y556472D01*
X1023653Y556459D01*
X1023536Y556437D01*
X1023418Y556424D01*
X1023226Y556377D01*
X1023033Y556340D01*
X1022919Y556303D01*
X1022803Y556275D01*
X1022619Y556205D01*
X1022432Y556143D01*
X1022324Y556092D01*
X1022213Y556050D01*
X1022039Y555957D01*
X1021861Y555873D01*
X1021760Y555808D01*
X1021655Y555752D01*
X1021495Y555638D01*
X1021328Y555532D01*
X1021237Y555455D01*
X1021140Y555386D01*
X1020951Y555216D01*
X1020843Y555127D01*
X1020804Y555084D01*
X1020749Y555035D01*
X985837Y520123D01*
X980324Y517839D01*
X663730Y517839D01*
X663611Y517832D01*
X663492Y517834D01*
X663296Y517812D01*
X663100Y517799D01*
X662983Y517777D01*
X662864Y517764D01*
X662672Y517717D01*
X662479Y517680D01*
X662365Y517643D01*
X662249Y517615D01*
X662066Y517545D01*
X661878Y517483D01*
X661770Y517432D01*
X661659Y517390D01*
X661485Y517297D01*
X661307Y517213D01*
X661206Y517148D01*
X661101Y517092D01*
X660941Y516978D01*
X660775Y516872D01*
X660683Y516795D01*
X660586Y516726D01*
X660397Y516556D01*
X660289Y516467D01*
X660250Y516424D01*
X660195Y516375D01*
X651071Y507251D01*
X651041Y507216D01*
X651007Y507185D01*
X650832Y506979D01*
X650653Y506776D01*
X650627Y506738D01*
X650598Y506703D01*
X650450Y506477D01*
X650299Y506253D01*
X650278Y506212D01*
X650253Y506174D01*
X650135Y505931D01*
X650013Y505689D01*
X649997Y505646D01*
X649977Y505605D01*
X649891Y505349D01*
X649801Y505094D01*
X649791Y505049D01*
X649776Y505006D01*
X649723Y504740D01*
X649665Y504477D01*
X649661Y504431D01*
X649652Y504386D01*
X649633Y504116D01*
X649608Y503847D01*
X649610Y503801D01*
X649607Y503755D01*
X649622Y503486D01*
X649632Y503215D01*
X649639Y503170D01*
X649642Y503124D01*
X649691Y502859D01*
X649735Y502592D01*
X649748Y502548D01*
X649756Y502502D01*
X649838Y502245D01*
X649916Y501986D01*
X649934Y501944D01*
X649948Y501900D01*
X650062Y501655D01*
X650171Y501408D01*
X650195Y501369D01*
X650214Y501327D01*
X650358Y501098D01*
X650498Y500867D01*
X650526Y500831D01*
X650551Y500792D01*
X650722Y500583D01*
X650890Y500371D01*
X650923Y500339D01*
X650952Y500304D01*
X651149Y500118D01*
X651342Y499929D01*
X651379Y499901D01*
X651412Y499870D01*
X651833Y499556D01*
X651840Y499552D01*
X651846Y499547D01*
X651851Y499545D01*
X652115Y499393D01*
X652380Y499239D01*
X652387Y499236D01*
X652394Y499232D01*
X652678Y499114D01*
X652963Y498994D01*
X652970Y498992D01*
X652977Y498989D01*
X653277Y498907D01*
X653572Y498825D01*
X653579Y498823D01*
X653587Y498821D01*
X653895Y498777D01*
X654197Y498733D01*
X654205Y498733D01*
X654213Y498732D01*
X654521Y498727D01*
X654829Y498721D01*
X654837Y498722D01*
X654845Y498722D01*
X655154Y498757D01*
X655457Y498789D01*
X655465Y498791D01*
X655473Y498792D01*
X655775Y498865D01*
X656072Y498936D01*
X656080Y498939D01*
X656087Y498941D01*
X656372Y499049D01*
X656664Y499159D01*
X656671Y499163D01*
X656678Y499166D01*
X656944Y499308D01*
X657222Y499455D01*
X657229Y499460D01*
X657235Y499464D01*
X657482Y499639D01*
X657739Y499820D01*
X657745Y499825D01*
X657751Y499829D01*
X658141Y500181D01*
X663119Y505158D01*
X669595Y507841D01*
X676605Y507841D01*
X683887Y504824D01*
X684000Y504786D01*
X684109Y504738D01*
X684299Y504684D01*
X684485Y504620D01*
X684602Y504596D01*
X684717Y504563D01*
X684911Y504532D01*
X685104Y504493D01*
X685223Y504484D01*
X685341Y504465D01*
X685538Y504459D01*
X685734Y504444D01*
X685854Y504450D01*
X685973Y504447D01*
X686169Y504466D01*
X686366Y504476D01*
X686483Y504497D01*
X686602Y504509D01*
X686794Y504552D01*
X686988Y504587D01*
X687102Y504623D01*
X687218Y504649D01*
X687457Y504734D01*
X687591Y504776D01*
X687644Y504800D01*
X687713Y504824D01*
X694995Y507841D01*
X702005Y507841D01*
X709287Y504824D01*
X709400Y504786D01*
X709509Y504738D01*
X709699Y504684D01*
X709885Y504620D01*
X710002Y504596D01*
X710117Y504563D01*
X710311Y504532D01*
X710504Y504493D01*
X710623Y504484D01*
X710741Y504465D01*
X710938Y504459D01*
X711134Y504444D01*
X711254Y504450D01*
X711373Y504447D01*
X711569Y504466D01*
X711766Y504476D01*
X711883Y504497D01*
X712002Y504509D01*
X712194Y504552D01*
X712388Y504587D01*
X712502Y504623D01*
X712618Y504649D01*
X712857Y504734D01*
X712991Y504776D01*
X713044Y504800D01*
X713113Y504824D01*
X720395Y507841D01*
X727405Y507841D01*
X734687Y504824D01*
X734800Y504786D01*
X734909Y504738D01*
X735099Y504684D01*
X735285Y504620D01*
X735402Y504596D01*
X735517Y504563D01*
X735711Y504532D01*
X735904Y504493D01*
X736023Y504484D01*
X736141Y504465D01*
X736338Y504459D01*
X736534Y504444D01*
X736654Y504450D01*
X736773Y504447D01*
X736969Y504466D01*
X737166Y504476D01*
X737283Y504497D01*
X737402Y504509D01*
X737594Y504552D01*
X737788Y504587D01*
X737902Y504623D01*
X738018Y504649D01*
X738257Y504734D01*
X738391Y504776D01*
X738444Y504800D01*
X738513Y504824D01*
X745795Y507841D01*
X752805Y507841D01*
X760087Y504824D01*
X760200Y504786D01*
X760309Y504738D01*
X760499Y504684D01*
X760685Y504620D01*
X760802Y504596D01*
X760917Y504563D01*
X761111Y504532D01*
X761304Y504493D01*
X761423Y504484D01*
X761541Y504465D01*
X761738Y504459D01*
X761934Y504444D01*
X762054Y504450D01*
X762173Y504447D01*
X762369Y504466D01*
X762566Y504476D01*
X762683Y504497D01*
X762802Y504509D01*
X762994Y504552D01*
X763188Y504587D01*
X763302Y504623D01*
X763418Y504649D01*
X763657Y504734D01*
X763791Y504776D01*
X763844Y504800D01*
X763913Y504824D01*
X771195Y507841D01*
X778205Y507841D01*
X784681Y505158D01*
X789659Y500181D01*
X789683Y500159D01*
X789705Y500135D01*
X789920Y499950D01*
X790133Y499763D01*
X790160Y499745D01*
X790184Y499724D01*
X790423Y499567D01*
X790656Y499408D01*
X790685Y499394D01*
X790712Y499376D01*
X790968Y499250D01*
X791220Y499122D01*
X791251Y499112D01*
X791280Y499097D01*
X791548Y499006D01*
X791816Y498910D01*
X791847Y498903D01*
X791878Y498893D01*
X792156Y498835D01*
X792433Y498775D01*
X792465Y498772D01*
X792497Y498765D01*
X792780Y498743D01*
X793063Y498718D01*
X793095Y498719D01*
X793127Y498717D01*
X793410Y498731D01*
X793694Y498741D01*
X793726Y498747D01*
X793758Y498748D01*
X794038Y498798D01*
X794318Y498844D01*
X794349Y498854D01*
X794381Y498859D01*
X794652Y498944D01*
X794924Y499025D01*
X794953Y499038D01*
X794984Y499048D01*
X795101Y499100D01*
X795101Y482600D01*
X795101Y466434D01*
X795133Y465919D01*
X795141Y465804D01*
X795141Y465803D01*
X795216Y465412D01*
X795260Y465183D01*
X795260Y465182D01*
X795342Y464932D01*
X795456Y464582D01*
X795457Y464582D01*
X795457Y464581D01*
X795578Y464327D01*
X795727Y464011D01*
X795728Y464010D01*
X795894Y463751D01*
X796068Y463479D01*
X796068Y463478D01*
X796401Y463072D01*
X796401Y463071D01*
X796439Y463034D01*
X796473Y462993D01*
X796474Y462993D01*
X796666Y462815D01*
X796855Y462631D01*
X796898Y462599D01*
X796937Y462563D01*
X797150Y462410D01*
X797361Y462252D01*
X797407Y462226D01*
X797450Y462195D01*
X797682Y462070D01*
X797910Y461940D01*
X797960Y461920D01*
X798007Y461894D01*
X798252Y461799D01*
X798495Y461700D01*
X798546Y461686D01*
X798596Y461666D01*
X798852Y461603D01*
X798891Y461593D01*
X798834Y461415D01*
X798823Y461351D01*
X798805Y461288D01*
X798766Y461040D01*
X798721Y460793D01*
X798717Y460728D01*
X798707Y460664D01*
X798700Y460413D01*
X798686Y460162D01*
X798691Y460097D01*
X798689Y460032D01*
X798713Y459782D01*
X798731Y459531D01*
X798744Y459467D01*
X798751Y459403D01*
X798806Y459158D01*
X798856Y458912D01*
X798877Y458850D01*
X798891Y458787D01*
X799034Y458383D01*
X799058Y458313D01*
X799062Y458303D01*
X799066Y458292D01*
X799861Y456374D01*
X799861Y437054D01*
X799872Y436869D01*
X799874Y436684D01*
X799892Y436554D01*
X799901Y436423D01*
X799936Y436242D01*
X799961Y436058D01*
X799995Y435932D01*
X800020Y435802D01*
X800078Y435626D01*
X800126Y435448D01*
X800176Y435327D01*
X800217Y435202D01*
X800296Y435034D01*
X800366Y434864D01*
X800431Y434749D01*
X800487Y434631D01*
X800587Y434475D01*
X800678Y434314D01*
X800757Y434209D01*
X800828Y434098D01*
X800947Y433956D01*
X801058Y433808D01*
X801149Y433714D01*
X801233Y433613D01*
X801369Y433487D01*
X801498Y433354D01*
X801600Y433272D01*
X801697Y433183D01*
X801847Y433075D01*
X801991Y432960D01*
X802104Y432891D01*
X802210Y432815D01*
X802373Y432727D01*
X802531Y432630D01*
X802651Y432577D01*
X802766Y432514D01*
X802939Y432448D01*
X803108Y432372D01*
X803233Y432334D01*
X803356Y432286D01*
X803536Y432242D01*
X803713Y432188D01*
X803842Y432166D01*
X803970Y432135D01*
X803991Y432132D01*
X803991Y430307D01*
X804012Y429970D01*
X804030Y429680D01*
X804030Y429678D01*
X804031Y429676D01*
X804091Y429359D01*
X804149Y429060D01*
X804149Y429058D01*
X804150Y429055D01*
X804252Y428742D01*
X804345Y428459D01*
X804346Y428457D01*
X804346Y428454D01*
X804488Y428157D01*
X804615Y427887D01*
X804616Y427885D01*
X804617Y427883D01*
X804799Y427600D01*
X804955Y427355D01*
X804957Y427353D01*
X804958Y427351D01*
X805157Y427112D01*
X805360Y426869D01*
X805362Y426867D01*
X805363Y426866D01*
X805589Y426656D01*
X805823Y426439D01*
X805825Y426437D01*
X805826Y426436D01*
X806073Y426259D01*
X806336Y426070D01*
X806338Y426069D01*
X806340Y426067D01*
X806605Y425924D01*
X806892Y425769D01*
X806894Y425768D01*
X806896Y425767D01*
X807198Y425650D01*
X807481Y425540D01*
X807484Y425540D01*
X807486Y425539D01*
X807801Y425461D01*
X808095Y425388D01*
X808097Y425388D01*
X808099Y425387D01*
X808414Y425351D01*
X808723Y425315D01*
X808725Y425315D01*
X808727Y425314D01*
X809042Y425318D01*
X809355Y425321D01*
X809357Y425321D01*
X809359Y425321D01*
X809670Y425364D01*
X809981Y425407D01*
X809983Y425407D01*
X809986Y425408D01*
X810276Y425486D01*
X810591Y425571D01*
X810594Y425572D01*
X810596Y425572D01*
X810868Y425684D01*
X811176Y425811D01*
X811178Y425812D01*
X811180Y425813D01*
X811455Y425969D01*
X811726Y426123D01*
X811728Y426124D01*
X811730Y426125D01*
X811983Y426315D01*
X812232Y426501D01*
X812234Y426503D01*
X812236Y426504D01*
X812462Y426724D01*
X812686Y426941D01*
X812688Y426943D01*
X812689Y426944D01*
X812879Y427182D01*
X813081Y427434D01*
X813083Y427436D01*
X813084Y427438D01*
X813252Y427713D01*
X813411Y427973D01*
X813412Y427976D01*
X813413Y427978D01*
X813422Y427996D01*
X813632Y428450D01*
X813632Y428451D01*
X813649Y428504D01*
X813672Y428554D01*
X813672Y428555D01*
X813748Y428804D01*
X813829Y429051D01*
X813840Y429106D01*
X813856Y429160D01*
X813900Y429417D01*
X813949Y429672D01*
X813952Y429728D01*
X813962Y429783D01*
X813988Y430282D01*
X813989Y430303D01*
X813989Y430305D01*
X813989Y430307D01*
X813989Y432540D01*
X814118Y432611D01*
X814267Y432681D01*
X814395Y432764D01*
X814528Y432837D01*
X814661Y432934D01*
X814799Y433022D01*
X814916Y433120D01*
X815039Y433209D01*
X815158Y433322D01*
X815284Y433427D01*
X815388Y433539D01*
X815498Y433643D01*
X815603Y433770D01*
X815714Y433891D01*
X815803Y434014D01*
X815900Y434132D01*
X815987Y434271D01*
X816083Y434404D01*
X816155Y434538D01*
X816236Y434667D01*
X816322Y434847D01*
X816383Y434960D01*
X816414Y435039D01*
X816462Y435141D01*
X816593Y435457D01*
X817685Y436549D01*
X817764Y436639D01*
X817850Y436722D01*
X817973Y436876D01*
X818103Y437024D01*
X818170Y437122D01*
X818244Y437216D01*
X818347Y437384D01*
X818457Y437547D01*
X818511Y437653D01*
X818574Y437755D01*
X818654Y437935D01*
X818743Y438111D01*
X818783Y438223D01*
X818832Y438332D01*
X818889Y438520D01*
X818956Y438706D01*
X818981Y438823D01*
X819016Y438937D01*
X819049Y439131D01*
X819091Y439323D01*
X819102Y439442D01*
X819122Y439560D01*
X819135Y439814D01*
X819148Y439953D01*
X819145Y440011D01*
X819149Y440084D01*
X819149Y455198D01*
X819140Y455349D01*
X819140Y455502D01*
X819120Y455665D01*
X819109Y455828D01*
X819081Y455978D01*
X819062Y456129D01*
X819021Y456288D01*
X818990Y456449D01*
X818943Y456594D01*
X818905Y456741D01*
X818845Y456894D01*
X818793Y457050D01*
X818728Y457188D01*
X818672Y457329D01*
X818593Y457472D01*
X818523Y457621D01*
X818440Y457749D01*
X818367Y457882D01*
X818270Y458015D01*
X818182Y458153D01*
X818084Y458270D01*
X817995Y458393D01*
X817882Y458512D01*
X817777Y458639D01*
X817665Y458742D01*
X817561Y458853D01*
X817434Y458957D01*
X817313Y459069D01*
X817190Y459157D01*
X817072Y459254D01*
X816933Y459341D01*
X816800Y459437D01*
X816666Y459509D01*
X816537Y459590D01*
X816357Y459676D01*
X816244Y459737D01*
X816165Y459768D01*
X816063Y459816D01*
X815519Y460042D01*
X810541Y465019D01*
X810517Y465041D01*
X810495Y465065D01*
X810280Y465250D01*
X810067Y465437D01*
X810040Y465455D01*
X810016Y465476D01*
X809779Y465632D01*
X809544Y465792D01*
X809515Y465806D01*
X809488Y465824D01*
X809233Y465949D01*
X808980Y466078D01*
X808949Y466088D01*
X808920Y466103D01*
X808651Y466195D01*
X808384Y466290D01*
X808353Y466297D01*
X808322Y466307D01*
X808044Y466365D01*
X807767Y466425D01*
X807735Y466428D01*
X807703Y466435D01*
X807420Y466457D01*
X807137Y466482D01*
X807105Y466481D01*
X807073Y466483D01*
X806789Y466469D01*
X806506Y466459D01*
X806474Y466453D01*
X806442Y466452D01*
X806162Y466402D01*
X805882Y466356D01*
X805851Y466346D01*
X805820Y466341D01*
X805548Y466256D01*
X805276Y466175D01*
X805247Y466162D01*
X805216Y466152D01*
X805081Y466092D01*
X805099Y466434D01*
X805099Y482600D01*
X805099Y499104D01*
X805317Y499010D01*
X805348Y499002D01*
X805377Y498989D01*
X805652Y498914D01*
X805924Y498835D01*
X805956Y498830D01*
X805987Y498821D01*
X806270Y498781D01*
X806548Y498737D01*
X806580Y498736D01*
X806613Y498732D01*
X806897Y498727D01*
X807180Y498719D01*
X807212Y498723D01*
X807245Y498722D01*
X807528Y498754D01*
X807809Y498781D01*
X807841Y498788D01*
X807873Y498792D01*
X808149Y498859D01*
X808426Y498922D01*
X808456Y498933D01*
X808487Y498941D01*
X808752Y499042D01*
X809019Y499140D01*
X809048Y499154D01*
X809078Y499166D01*
X809328Y499300D01*
X809580Y499430D01*
X809607Y499448D01*
X809635Y499464D01*
X809868Y499628D01*
X810101Y499789D01*
X810125Y499811D01*
X810151Y499829D01*
X810541Y500181D01*
X815519Y505158D01*
X821995Y507841D01*
X829005Y507841D01*
X835481Y505158D01*
X840438Y500201D01*
X843121Y493725D01*
X843121Y488264D01*
X843128Y488145D01*
X843126Y488026D01*
X843148Y487830D01*
X843161Y487633D01*
X843183Y487516D01*
X843196Y487398D01*
X843243Y487206D01*
X843280Y487013D01*
X843317Y486899D01*
X843345Y486783D01*
X843415Y486599D01*
X843477Y486412D01*
X843528Y486304D01*
X843570Y486193D01*
X843663Y486019D01*
X843747Y485841D01*
X843812Y485740D01*
X843868Y485635D01*
X843982Y485475D01*
X844088Y485308D01*
X844165Y485217D01*
X844234Y485120D01*
X844404Y484931D01*
X844493Y484823D01*
X844536Y484784D01*
X844585Y484729D01*
X844905Y484409D01*
X845093Y484243D01*
X845277Y484073D01*
X845330Y484035D01*
X845379Y483992D01*
X845587Y483851D01*
X845790Y483705D01*
X845848Y483674D01*
X845902Y483637D01*
X846127Y483523D01*
X846346Y483404D01*
X846408Y483381D01*
X846466Y483351D01*
X846702Y483267D01*
X846936Y483177D01*
X847000Y483161D01*
X847062Y483139D01*
X847306Y483085D01*
X847550Y483025D01*
X847615Y483017D01*
X847679Y483003D01*
X847929Y482981D01*
X848177Y482952D01*
X848243Y482953D01*
X848308Y482947D01*
X848560Y482956D01*
X848810Y482959D01*
X848874Y482968D01*
X848940Y482970D01*
X849188Y483011D01*
X849436Y483045D01*
X849499Y483062D01*
X849564Y483073D01*
X849804Y483145D01*
X850046Y483210D01*
X850107Y483235D01*
X850169Y483254D01*
X850399Y483355D01*
X850630Y483450D01*
X850688Y483483D01*
X850748Y483509D01*
X850962Y483639D01*
X851180Y483763D01*
X851233Y483802D01*
X851289Y483836D01*
X851485Y483991D01*
X851686Y484142D01*
X851733Y484188D01*
X851784Y484228D01*
X851959Y484407D01*
X852140Y484582D01*
X852181Y484633D01*
X852226Y484680D01*
X852378Y484880D01*
X852534Y485076D01*
X852569Y485132D01*
X852608Y485184D01*
X852733Y485401D01*
X852864Y485615D01*
X852890Y485675D01*
X852923Y485732D01*
X853019Y485963D01*
X853122Y486192D01*
X853141Y486255D01*
X853166Y486315D01*
X853233Y486557D01*
X853306Y486797D01*
X853317Y486861D01*
X853334Y486925D01*
X853370Y487173D01*
X853412Y487420D01*
X853416Y487493D01*
X853424Y487550D01*
X853426Y487690D01*
X853439Y487944D01*
X853439Y491020D01*
X853689Y492599D01*
X854184Y494120D01*
X854910Y495545D01*
X855850Y496839D01*
X856981Y497970D01*
X858275Y498910D01*
X858601Y499076D01*
X858601Y482600D01*
X858612Y482416D01*
X858614Y482231D01*
X858632Y482101D01*
X858641Y481970D01*
X858675Y481788D01*
X858701Y481605D01*
X858735Y481478D01*
X858760Y481349D01*
X858817Y481173D01*
X858866Y480994D01*
X858915Y480873D01*
X858956Y480748D01*
X859036Y480581D01*
X859106Y480410D01*
X859171Y480296D01*
X859227Y480177D01*
X859327Y480021D01*
X859418Y479860D01*
X859497Y479755D01*
X859568Y479645D01*
X859687Y479502D01*
X859798Y479355D01*
X859889Y479260D01*
X859973Y479159D01*
X860109Y479034D01*
X860237Y478901D01*
X860340Y478819D01*
X860436Y478729D01*
X860586Y478622D01*
X860731Y478506D01*
X860844Y478437D01*
X860950Y478361D01*
X861113Y478273D01*
X861271Y478177D01*
X861391Y478123D01*
X861506Y478061D01*
X861679Y477994D01*
X861848Y477918D01*
X861973Y477880D01*
X862096Y477833D01*
X862275Y477788D01*
X862452Y477735D01*
X862582Y477713D01*
X862709Y477681D01*
X862893Y477660D01*
X863076Y477629D01*
X863229Y477621D01*
X863337Y477608D01*
X863338Y477608D01*
X863446Y477609D01*
X863600Y477601D01*
X863785Y477613D01*
X863970Y477615D01*
X864100Y477633D01*
X864231Y477641D01*
X864413Y477676D01*
X864596Y477701D01*
X864723Y477735D01*
X864852Y477760D01*
X865028Y477818D01*
X865206Y477866D01*
X865327Y477916D01*
X865452Y477957D01*
X865620Y478036D01*
X865791Y478107D01*
X865905Y478171D01*
X866024Y478228D01*
X866179Y478328D01*
X866340Y478419D01*
X866445Y478498D01*
X866556Y478568D01*
X866698Y478687D01*
X866846Y478798D01*
X866940Y478889D01*
X867041Y478974D01*
X867167Y479109D01*
X867300Y479238D01*
X867382Y479341D01*
X867471Y479437D01*
X867579Y479587D01*
X867694Y479732D01*
X867763Y479844D01*
X867839Y479951D01*
X867927Y480113D01*
X868024Y480271D01*
X868078Y480391D01*
X868140Y480507D01*
X868207Y480679D01*
X868282Y480848D01*
X868320Y480974D01*
X868368Y481096D01*
X868412Y481276D01*
X868466Y481453D01*
X868488Y481583D01*
X868519Y481710D01*
X868541Y481893D01*
X868572Y482076D01*
X868580Y482230D01*
X868592Y482338D01*
X868591Y482447D01*
X868599Y482600D01*
X868599Y499104D01*
X868817Y499010D01*
X868848Y499001D01*
X868877Y498989D01*
X869151Y498914D01*
X869424Y498835D01*
X869456Y498830D01*
X869487Y498821D01*
X869769Y498781D01*
X870048Y498737D01*
X870081Y498736D01*
X870113Y498732D01*
X870397Y498727D01*
X870680Y498719D01*
X870712Y498723D01*
X870745Y498722D01*
X871027Y498754D01*
X871309Y498781D01*
X871341Y498788D01*
X871373Y498792D01*
X871650Y498859D01*
X871925Y498922D01*
X871956Y498933D01*
X871987Y498941D01*
X872252Y499042D01*
X872519Y499139D01*
X872548Y499154D01*
X872578Y499166D01*
X872828Y499299D01*
X873080Y499430D01*
X873107Y499448D01*
X873135Y499464D01*
X873367Y499628D01*
X873601Y499789D01*
X873625Y499811D01*
X873651Y499829D01*
X874041Y500181D01*
X879019Y505158D01*
X885495Y507841D01*
X892505Y507841D01*
X899787Y504824D01*
X899900Y504786D01*
X900009Y504738D01*
X900199Y504684D01*
X900385Y504620D01*
X900502Y504596D01*
X900617Y504563D01*
X900811Y504532D01*
X901004Y504493D01*
X901123Y504484D01*
X901241Y504465D01*
X901438Y504459D01*
X901634Y504444D01*
X901754Y504450D01*
X901873Y504447D01*
X902069Y504466D01*
X902266Y504476D01*
X902383Y504497D01*
X902502Y504509D01*
X902694Y504552D01*
X902888Y504587D01*
X903002Y504623D01*
X903118Y504649D01*
X903357Y504734D01*
X903491Y504776D01*
X903544Y504800D01*
X903613Y504824D01*
X910895Y507841D01*
X917905Y507841D01*
X925187Y504824D01*
X925300Y504786D01*
X925409Y504738D01*
X925599Y504684D01*
X925785Y504620D01*
X925902Y504596D01*
X926017Y504563D01*
X926211Y504532D01*
X926404Y504493D01*
X926523Y504484D01*
X926641Y504465D01*
X926838Y504459D01*
X927034Y504444D01*
X927154Y504450D01*
X927273Y504447D01*
X927469Y504466D01*
X927666Y504476D01*
X927783Y504497D01*
X927902Y504509D01*
X928094Y504552D01*
X928288Y504587D01*
X928402Y504623D01*
X928518Y504649D01*
X928757Y504734D01*
X928891Y504776D01*
X928944Y504800D01*
X929013Y504824D01*
X936295Y507841D01*
X943305Y507841D01*
X950587Y504824D01*
X950700Y504786D01*
X950809Y504738D01*
X950999Y504684D01*
X951185Y504620D01*
X951302Y504596D01*
X951417Y504563D01*
X951611Y504532D01*
X951804Y504493D01*
X951923Y504484D01*
X952041Y504465D01*
X952238Y504459D01*
X952434Y504444D01*
X952554Y504450D01*
X952673Y504447D01*
X952869Y504466D01*
X953066Y504476D01*
X953183Y504497D01*
X953302Y504509D01*
X953494Y504552D01*
X953688Y504587D01*
X953802Y504623D01*
X953918Y504649D01*
X954157Y504734D01*
X954291Y504776D01*
X954344Y504800D01*
X954413Y504824D01*
X961695Y507841D01*
X968705Y507841D01*
X975987Y504824D01*
X976100Y504786D01*
X976209Y504738D01*
X976399Y504684D01*
X976585Y504620D01*
X976702Y504596D01*
X976817Y504563D01*
X977011Y504532D01*
X977204Y504493D01*
X977323Y504484D01*
X977441Y504465D01*
X977638Y504459D01*
X977834Y504444D01*
X977954Y504450D01*
X978073Y504447D01*
X978269Y504466D01*
X978466Y504476D01*
X978583Y504497D01*
X978702Y504509D01*
X978894Y504552D01*
X979088Y504587D01*
X979202Y504623D01*
X979318Y504649D01*
X979557Y504734D01*
X979691Y504776D01*
X979744Y504800D01*
X979813Y504824D01*
X987095Y507841D01*
X994105Y507841D01*
X1000581Y505158D01*
X1005559Y500181D01*
X1005583Y500159D01*
X1005605Y500135D01*
X1005820Y499950D01*
X1006033Y499763D01*
X1006060Y499745D01*
X1006084Y499724D01*
X1006321Y499568D01*
X1006556Y499408D01*
X1006585Y499394D01*
X1006612Y499376D01*
X1006867Y499251D01*
X1007120Y499122D01*
X1007151Y499112D01*
X1007180Y499097D01*
X1007449Y499005D01*
X1007716Y498910D01*
X1007747Y498903D01*
X1007778Y498893D01*
X1008056Y498835D01*
X1008333Y498775D01*
X1008365Y498772D01*
X1008397Y498765D01*
X1008680Y498743D01*
X1008963Y498718D01*
X1008995Y498719D01*
X1009027Y498717D01*
X1009311Y498731D01*
X1009594Y498741D01*
X1009626Y498747D01*
X1009658Y498748D01*
X1009938Y498798D01*
X1010218Y498844D01*
X1010249Y498854D01*
X1010280Y498859D01*
X1010552Y498944D01*
X1010824Y499025D01*
X1010853Y499038D01*
X1010884Y499048D01*
X1011001Y499100D01*
X1011001Y482600D01*
X1011012Y482416D01*
X1011014Y482231D01*
X1011032Y482101D01*
X1011041Y481970D01*
X1011075Y481788D01*
X1011101Y481605D01*
X1011135Y481478D01*
X1011160Y481349D01*
X1011217Y481173D01*
X1011266Y480994D01*
X1011315Y480873D01*
X1011356Y480748D01*
X1011436Y480581D01*
X1011506Y480410D01*
X1011571Y480296D01*
X1011627Y480177D01*
X1011727Y480021D01*
X1011818Y479860D01*
X1011897Y479755D01*
X1011968Y479645D01*
X1012087Y479502D01*
X1012198Y479355D01*
X1012289Y479260D01*
X1012373Y479159D01*
X1012509Y479034D01*
X1012637Y478901D01*
X1012740Y478819D01*
X1012836Y478729D01*
X1012986Y478622D01*
X1013131Y478506D01*
X1013244Y478437D01*
X1013350Y478361D01*
X1013513Y478273D01*
X1013671Y478177D01*
X1013791Y478123D01*
X1013906Y478061D01*
X1014079Y477994D01*
X1014248Y477918D01*
X1014373Y477880D01*
X1014496Y477833D01*
X1014675Y477788D01*
X1014852Y477735D01*
X1014982Y477713D01*
X1015109Y477681D01*
X1015293Y477660D01*
X1015476Y477629D01*
X1015629Y477621D01*
X1015737Y477608D01*
X1015738Y477608D01*
X1015846Y477609D01*
X1016000Y477601D01*
X1016185Y477613D01*
X1016370Y477615D01*
X1016500Y477633D01*
X1016631Y477641D01*
X1016813Y477676D01*
X1016996Y477701D01*
X1017123Y477735D01*
X1017252Y477760D01*
X1017428Y477818D01*
X1017606Y477866D01*
X1017727Y477916D01*
X1017852Y477957D01*
X1018020Y478036D01*
X1018191Y478107D01*
X1018305Y478171D01*
X1018424Y478228D01*
X1018579Y478328D01*
X1018740Y478419D01*
X1018845Y478498D01*
X1018956Y478568D01*
X1019098Y478687D01*
X1019246Y478798D01*
X1019340Y478889D01*
X1019441Y478974D01*
X1019567Y479109D01*
X1019700Y479238D01*
X1019782Y479341D01*
X1019871Y479437D01*
X1019979Y479587D01*
X1020094Y479732D01*
X1020163Y479844D01*
X1020239Y479951D01*
X1020327Y480113D01*
X1020424Y480271D01*
X1020478Y480391D01*
X1020540Y480507D01*
X1020607Y480679D01*
X1020682Y480848D01*
X1020720Y480974D01*
X1020768Y481096D01*
X1020812Y481276D01*
X1020866Y481453D01*
X1020888Y481583D01*
X1020919Y481710D01*
X1020941Y481893D01*
X1020972Y482076D01*
X1020980Y482230D01*
X1020992Y482338D01*
X1020991Y482447D01*
X1020999Y482600D01*
X1020999Y499104D01*
X1021217Y499010D01*
X1021248Y499002D01*
X1021277Y498989D01*
X1021552Y498914D01*
X1021824Y498835D01*
X1021856Y498830D01*
X1021887Y498821D01*
X1022170Y498781D01*
X1022448Y498737D01*
X1022480Y498736D01*
X1022513Y498732D01*
X1022797Y498727D01*
X1023080Y498719D01*
X1023112Y498723D01*
X1023145Y498722D01*
X1023428Y498754D01*
X1023709Y498781D01*
X1023741Y498788D01*
X1023773Y498792D01*
X1024049Y498859D01*
X1024326Y498922D01*
X1024356Y498933D01*
X1024387Y498941D01*
X1024652Y499042D01*
X1024919Y499140D01*
X1024948Y499154D01*
X1024978Y499166D01*
X1025228Y499300D01*
X1025480Y499430D01*
X1025507Y499448D01*
X1025535Y499464D01*
X1025768Y499628D01*
X1026001Y499789D01*
X1026025Y499811D01*
X1026051Y499829D01*
X1026441Y500181D01*
X1031419Y505158D01*
X1037895Y507841D01*
X1044905Y507841D01*
X1051381Y505158D01*
X1056338Y500201D01*
X1059021Y493725D01*
X1059021Y488264D01*
X1059028Y488145D01*
X1059026Y488026D01*
X1059048Y487830D01*
X1059061Y487633D01*
X1059083Y487516D01*
X1059096Y487398D01*
X1059143Y487206D01*
X1059180Y487013D01*
X1059217Y486899D01*
X1059245Y486783D01*
X1059315Y486599D01*
X1059377Y486412D01*
X1059428Y486304D01*
X1059470Y486193D01*
X1059563Y486019D01*
X1059647Y485841D01*
X1059712Y485740D01*
X1059768Y485635D01*
X1059882Y485475D01*
X1059988Y485308D01*
X1060065Y485217D01*
X1060134Y485120D01*
X1060304Y484931D01*
X1060393Y484823D01*
X1060436Y484784D01*
X1060485Y484729D01*
X1065019Y480195D01*
X1065134Y480094D01*
X1065241Y479987D01*
X1065370Y479886D01*
X1065494Y479777D01*
X1065620Y479692D01*
X1065740Y479598D01*
X1065881Y479515D01*
X1066017Y479423D01*
X1066153Y479354D01*
X1066284Y479276D01*
X1066434Y479211D01*
X1066581Y479137D01*
X1066724Y479086D01*
X1066864Y479025D01*
X1067022Y478980D01*
X1067176Y478924D01*
X1067324Y478892D01*
X1067471Y478850D01*
X1067633Y478824D01*
X1067793Y478789D01*
X1067945Y478775D01*
X1068095Y478752D01*
X1068259Y478747D01*
X1068423Y478732D01*
X1068575Y478738D01*
X1068727Y478734D01*
X1068890Y478750D01*
X1069055Y478756D01*
X1069205Y478781D01*
X1069356Y478795D01*
X1069516Y478832D01*
X1069678Y478859D01*
X1069824Y478902D01*
X1069972Y478936D01*
X1070161Y479003D01*
X1070284Y479039D01*
X1070361Y479074D01*
X1070467Y479111D01*
X1076019Y481411D01*
X1082981Y481411D01*
X1088098Y479291D01*
X1088180Y479263D01*
X1088259Y479228D01*
X1088479Y479161D01*
X1088696Y479087D01*
X1088781Y479069D01*
X1088864Y479044D01*
X1089091Y479006D01*
X1089315Y478959D01*
X1089401Y478953D01*
X1089487Y478938D01*
X1089820Y478921D01*
X1089945Y478911D01*
X1089975Y478913D01*
X1090011Y478911D01*
X1143204Y478911D01*
X1145641Y477901D01*
X1145723Y477873D01*
X1145802Y477838D01*
X1146022Y477771D01*
X1146239Y477697D01*
X1146324Y477679D01*
X1146407Y477654D01*
X1146633Y477616D01*
X1146858Y477569D01*
X1146944Y477563D01*
X1147030Y477548D01*
X1147363Y477531D01*
X1147488Y477521D01*
X1147518Y477523D01*
X1147554Y477521D01*
X1213156Y477521D01*
X1213416Y477537D01*
X1213678Y477548D01*
X1213732Y477557D01*
X1213787Y477561D01*
X1214043Y477610D01*
X1214301Y477654D01*
X1214353Y477670D01*
X1214408Y477680D01*
X1214657Y477761D01*
X1214906Y477837D01*
X1214956Y477859D01*
X1215008Y477877D01*
X1215245Y477989D01*
X1215483Y478095D01*
X1215530Y478124D01*
X1215579Y478147D01*
X1215800Y478289D01*
X1216023Y478424D01*
X1216065Y478458D01*
X1216112Y478488D01*
X1216312Y478656D01*
X1216516Y478819D01*
X1216555Y478858D01*
X1216597Y478893D01*
X1216774Y479084D01*
X1216957Y479272D01*
X1216990Y479316D01*
X1217027Y479357D01*
X1217179Y479568D01*
X1217336Y479778D01*
X1217363Y479826D01*
X1217395Y479870D01*
X1217519Y480099D01*
X1217543Y480141D01*
X1235710Y480141D01*
X1252214Y480141D01*
X1252120Y479923D01*
X1252111Y479892D01*
X1252099Y479863D01*
X1252024Y479589D01*
X1251945Y479316D01*
X1251940Y479284D01*
X1251931Y479253D01*
X1251891Y478970D01*
X1251847Y478692D01*
X1251846Y478659D01*
X1251842Y478627D01*
X1251837Y478343D01*
X1251829Y478060D01*
X1251833Y478028D01*
X1251832Y477995D01*
X1251864Y477713D01*
X1251891Y477431D01*
X1251898Y477399D01*
X1251902Y477367D01*
X1251969Y477090D01*
X1252032Y476815D01*
X1252043Y476784D01*
X1252051Y476753D01*
X1252152Y476488D01*
X1252249Y476221D01*
X1252264Y476192D01*
X1252276Y476162D01*
X1252409Y475912D01*
X1252540Y475660D01*
X1252558Y475633D01*
X1252574Y475605D01*
X1252738Y475373D01*
X1252899Y475139D01*
X1252921Y475115D01*
X1252939Y475089D01*
X1253291Y474699D01*
X1258268Y469721D01*
X1260951Y463245D01*
X1260951Y456235D01*
X1258268Y449759D01*
X1253311Y444802D01*
X1246835Y442119D01*
X1224585Y442119D01*
X1218109Y444802D01*
X1216855Y446055D01*
X1216766Y446134D01*
X1216683Y446220D01*
X1216529Y446343D01*
X1216381Y446473D01*
X1216282Y446540D01*
X1216189Y446614D01*
X1216021Y446717D01*
X1215858Y446827D01*
X1215751Y446881D01*
X1215650Y446944D01*
X1215470Y447024D01*
X1215294Y447113D01*
X1215182Y447153D01*
X1215073Y447202D01*
X1214884Y447259D01*
X1214699Y447326D01*
X1214582Y447351D01*
X1214468Y447386D01*
X1214274Y447419D01*
X1214081Y447461D01*
X1213963Y447472D01*
X1213845Y447492D01*
X1213591Y447505D01*
X1213452Y447518D01*
X1213394Y447515D01*
X1213320Y447519D01*
X1138626Y447519D01*
X1136189Y448529D01*
X1136107Y448557D01*
X1136028Y448592D01*
X1135808Y448659D01*
X1135591Y448733D01*
X1135506Y448751D01*
X1135423Y448776D01*
X1135197Y448814D01*
X1134972Y448861D01*
X1134886Y448867D01*
X1134800Y448882D01*
X1134467Y448899D01*
X1134342Y448909D01*
X1134312Y448907D01*
X1134276Y448909D01*
X1099500Y448909D01*
X1099315Y448898D01*
X1099130Y448896D01*
X1099000Y448878D01*
X1098869Y448869D01*
X1098688Y448834D01*
X1098504Y448809D01*
X1098378Y448775D01*
X1098248Y448750D01*
X1098072Y448692D01*
X1097894Y448644D01*
X1097773Y448594D01*
X1097648Y448553D01*
X1097480Y448474D01*
X1097310Y448404D01*
X1097195Y448339D01*
X1097077Y448283D01*
X1096921Y448183D01*
X1096760Y448092D01*
X1096655Y448013D01*
X1096544Y447942D01*
X1096402Y447823D01*
X1096254Y447712D01*
X1096160Y447621D01*
X1096059Y447537D01*
X1095933Y447401D01*
X1095800Y447272D01*
X1095718Y447170D01*
X1095629Y447073D01*
X1095521Y446923D01*
X1095406Y446779D01*
X1095337Y446666D01*
X1095261Y446560D01*
X1095173Y446397D01*
X1095076Y446239D01*
X1095023Y446119D01*
X1094960Y446004D01*
X1094894Y445831D01*
X1094818Y445662D01*
X1094780Y445537D01*
X1094732Y445414D01*
X1094688Y445234D01*
X1094634Y445057D01*
X1094612Y444928D01*
X1094581Y444800D01*
X1094559Y444617D01*
X1094528Y444434D01*
X1094520Y444281D01*
X1094508Y444173D01*
X1094509Y444064D01*
X1094501Y443910D01*
X1094501Y436436D01*
X1092217Y430923D01*
X1089055Y427761D01*
X1088976Y427671D01*
X1088890Y427588D01*
X1088767Y427434D01*
X1088637Y427286D01*
X1088570Y427188D01*
X1088496Y427094D01*
X1088393Y426926D01*
X1088283Y426763D01*
X1088229Y426657D01*
X1088166Y426555D01*
X1088086Y426375D01*
X1087997Y426199D01*
X1087957Y426087D01*
X1087908Y425978D01*
X1087851Y425789D01*
X1087784Y425604D01*
X1087759Y425488D01*
X1087724Y425373D01*
X1087691Y425179D01*
X1087649Y424987D01*
X1087638Y424868D01*
X1087618Y424750D01*
X1087605Y424496D01*
X1087592Y424357D01*
X1087595Y424299D01*
X1087591Y424226D01*
X1087591Y399732D01*
X1085307Y394219D01*
X1033971Y342883D01*
X1028458Y340599D01*
X871884Y340599D01*
X871765Y340592D01*
X871646Y340594D01*
X871450Y340572D01*
X871253Y340559D01*
X871136Y340537D01*
X871018Y340524D01*
X870826Y340477D01*
X870633Y340440D01*
X870519Y340403D01*
X870403Y340375D01*
X870219Y340305D01*
X870032Y340243D01*
X869924Y340192D01*
X869813Y340150D01*
X869639Y340057D01*
X869461Y339973D01*
X869360Y339908D01*
X869255Y339852D01*
X869095Y339738D01*
X868928Y339632D01*
X868837Y339555D01*
X868740Y339486D01*
X868551Y339316D01*
X868443Y339227D01*
X868404Y339184D01*
X868349Y339135D01*
X801909Y272695D01*
X801743Y272507D01*
X801573Y272323D01*
X801535Y272270D01*
X801491Y272221D01*
X801350Y272013D01*
X801205Y271810D01*
X801174Y271752D01*
X801137Y271697D01*
X801023Y271473D01*
X800904Y271254D01*
X800881Y271192D01*
X800851Y271134D01*
X800767Y270898D01*
X800677Y270664D01*
X800661Y270600D01*
X800639Y270538D01*
X800585Y270294D01*
X800525Y270050D01*
X800517Y269985D01*
X800503Y269921D01*
X800481Y269671D01*
X800452Y269423D01*
X800453Y269357D01*
X800447Y269291D01*
X800456Y269040D01*
X800459Y268790D01*
X800468Y268726D01*
X800470Y268660D01*
X800511Y268412D01*
X800545Y268164D01*
X800562Y268101D01*
X800573Y268036D01*
X800645Y267796D01*
X800710Y267554D01*
X800735Y267493D01*
X800754Y267430D01*
X800855Y267201D01*
X800950Y266970D01*
X800983Y266912D01*
X801009Y266852D01*
X801139Y266638D01*
X801263Y266420D01*
X801302Y266367D01*
X801336Y266311D01*
X801492Y266114D01*
X801642Y265914D01*
X801688Y265867D01*
X801728Y265815D01*
X801907Y265640D01*
X802082Y265460D01*
X802133Y265419D01*
X802180Y265373D01*
X802380Y265222D01*
X802576Y265066D01*
X802632Y265031D01*
X802684Y264992D01*
X802901Y264867D01*
X803115Y264736D01*
X803175Y264710D01*
X803232Y264677D01*
X803464Y264580D01*
X803692Y264478D01*
X803755Y264459D01*
X803815Y264433D01*
X804057Y264367D01*
X804297Y264294D01*
X804361Y264283D01*
X804425Y264266D01*
X804673Y264230D01*
X804920Y264188D01*
X804993Y264184D01*
X805051Y264176D01*
X805191Y264174D01*
X805444Y264161D01*
X1039141Y264161D01*
X1039151Y264161D01*
G37*
G36*
X420035Y283547D02*
X420035Y283547D01*
X420286Y283556D01*
X420351Y283567D01*
X420417Y283571D01*
X420663Y283618D01*
X420910Y283659D01*
X420973Y283677D01*
X421037Y283690D01*
X421276Y283768D01*
X421516Y283840D01*
X421575Y283866D01*
X421638Y283887D01*
X421865Y283994D01*
X422094Y284095D01*
X422150Y284129D01*
X422209Y284157D01*
X422420Y284292D01*
X422635Y284422D01*
X422686Y284463D01*
X422742Y284498D01*
X422934Y284659D01*
X423130Y284814D01*
X423176Y284861D01*
X423227Y284903D01*
X423397Y285087D01*
X423572Y285266D01*
X423612Y285318D01*
X423657Y285367D01*
X423803Y285570D01*
X423954Y285770D01*
X423987Y285827D01*
X424025Y285880D01*
X424144Y286100D01*
X424269Y286318D01*
X424294Y286379D01*
X424326Y286436D01*
X424416Y286670D01*
X424512Y286901D01*
X424530Y286965D01*
X424553Y287026D01*
X424613Y287269D01*
X424680Y287511D01*
X424689Y287576D01*
X424705Y287640D01*
X424734Y287888D01*
X424770Y288136D01*
X424771Y288202D01*
X424778Y288267D01*
X424775Y288517D01*
X424779Y288768D01*
X424772Y288834D01*
X424771Y288900D01*
X424737Y289147D01*
X424709Y289397D01*
X424694Y289461D01*
X424685Y289526D01*
X424620Y289767D01*
X424561Y290011D01*
X424537Y290073D01*
X424520Y290136D01*
X424425Y290368D01*
X424336Y290602D01*
X424305Y290660D01*
X424280Y290720D01*
X424156Y290939D01*
X424038Y291159D01*
X424000Y291213D01*
X423967Y291270D01*
X423817Y291471D01*
X423672Y291675D01*
X423623Y291729D01*
X423588Y291776D01*
X423491Y291876D01*
X423321Y292065D01*
X411306Y304080D01*
X405680Y309706D01*
X393683Y321703D01*
X391399Y327216D01*
X391399Y336244D01*
X391390Y336396D01*
X391390Y336548D01*
X391370Y336711D01*
X391359Y336875D01*
X391331Y337025D01*
X391312Y337176D01*
X391271Y337334D01*
X391240Y337496D01*
X391193Y337641D01*
X391155Y337788D01*
X391095Y337941D01*
X391043Y338097D01*
X390978Y338234D01*
X390922Y338376D01*
X390843Y338519D01*
X390773Y338668D01*
X390690Y338796D01*
X390617Y338929D01*
X390521Y339061D01*
X390432Y339200D01*
X390334Y339317D01*
X390245Y339440D01*
X390132Y339559D01*
X390027Y339685D01*
X389915Y339789D01*
X389811Y339899D01*
X389684Y340004D01*
X389563Y340115D01*
X389440Y340204D01*
X389322Y340301D01*
X389183Y340388D01*
X389050Y340484D01*
X388916Y340556D01*
X388886Y340575D01*
X383842Y345619D01*
X381159Y352095D01*
X381159Y359105D01*
X384176Y366387D01*
X384214Y366500D01*
X384262Y366609D01*
X384316Y366799D01*
X384380Y366985D01*
X384404Y367102D01*
X384437Y367217D01*
X384468Y367411D01*
X384507Y367604D01*
X384516Y367723D01*
X384535Y367841D01*
X384541Y368038D01*
X384556Y368234D01*
X384550Y368354D01*
X384553Y368473D01*
X384534Y368669D01*
X384524Y368866D01*
X384503Y368983D01*
X384491Y369102D01*
X384448Y369294D01*
X384413Y369488D01*
X384377Y369602D01*
X384351Y369718D01*
X384266Y369957D01*
X384224Y370091D01*
X384200Y370144D01*
X384176Y370213D01*
X381159Y377495D01*
X381159Y384505D01*
X383842Y390981D01*
X384375Y391515D01*
X384453Y391603D01*
X384699Y391846D01*
X384699Y391847D01*
X384700Y391847D01*
X384803Y391977D01*
X385094Y392340D01*
X385094Y392341D01*
X385275Y392637D01*
X385423Y392880D01*
X385424Y392880D01*
X385424Y392881D01*
X385543Y393147D01*
X385682Y393457D01*
X385770Y393748D01*
X385866Y394062D01*
X385931Y394444D01*
X385972Y394685D01*
X385999Y395210D01*
X385999Y417830D01*
X385999Y457200D01*
X385999Y471389D01*
X386207Y471305D01*
X386437Y471206D01*
X386500Y471188D01*
X386561Y471163D01*
X386803Y471100D01*
X387044Y471030D01*
X387109Y471020D01*
X387173Y471004D01*
X387421Y470972D01*
X387669Y470933D01*
X387734Y470931D01*
X387800Y470923D01*
X388050Y470922D01*
X388301Y470915D01*
X388366Y470921D01*
X388432Y470921D01*
X388680Y470952D01*
X388930Y470977D01*
X388994Y470991D01*
X389059Y470999D01*
X389302Y471062D01*
X389546Y471118D01*
X389608Y471140D01*
X389671Y471156D01*
X389904Y471249D01*
X390140Y471335D01*
X390198Y471365D01*
X390259Y471389D01*
X390478Y471510D01*
X390701Y471626D01*
X390755Y471663D01*
X390812Y471694D01*
X391015Y471842D01*
X391221Y471985D01*
X391270Y472028D01*
X391323Y472067D01*
X391506Y472240D01*
X391692Y472407D01*
X391735Y472456D01*
X391782Y472501D01*
X391844Y472576D01*
X397030Y477763D01*
X403110Y480281D01*
X409690Y480281D01*
X415770Y477763D01*
X420423Y473110D01*
X422941Y467030D01*
X422941Y447370D01*
X421781Y444571D01*
X421753Y444489D01*
X421718Y444410D01*
X421651Y444190D01*
X421577Y443973D01*
X421559Y443888D01*
X421534Y443805D01*
X421496Y443578D01*
X421449Y443353D01*
X421443Y443267D01*
X421428Y443182D01*
X421411Y442849D01*
X421401Y442723D01*
X421403Y442694D01*
X421401Y442658D01*
X421401Y436275D01*
X421406Y436188D01*
X421404Y436102D01*
X421426Y435873D01*
X421441Y435644D01*
X421457Y435559D01*
X421465Y435473D01*
X421517Y435249D01*
X421560Y435023D01*
X421587Y434941D01*
X421606Y434856D01*
X421717Y434543D01*
X421757Y434422D01*
X421769Y434396D01*
X421781Y434362D01*
X424021Y428955D01*
X424021Y406705D01*
X422124Y402127D01*
X422064Y401951D01*
X421995Y401779D01*
X421962Y401652D01*
X421920Y401529D01*
X421882Y401347D01*
X421836Y401167D01*
X421819Y401037D01*
X421792Y400910D01*
X421778Y400725D01*
X421754Y400540D01*
X421754Y400410D01*
X421744Y400279D01*
X421754Y400094D01*
X421753Y399908D01*
X421769Y399779D01*
X421776Y399648D01*
X421809Y399465D01*
X421832Y399281D01*
X421864Y399154D01*
X421887Y399026D01*
X421942Y398849D01*
X421989Y398669D01*
X422037Y398547D01*
X422076Y398422D01*
X422153Y398254D01*
X422221Y398081D01*
X422285Y397967D01*
X422339Y397848D01*
X422437Y397690D01*
X422527Y397527D01*
X422604Y397422D01*
X422673Y397311D01*
X422790Y397167D01*
X422899Y397017D01*
X422989Y396922D01*
X423072Y396821D01*
X423206Y396692D01*
X423333Y396557D01*
X423434Y396475D01*
X423529Y396384D01*
X423628Y396312D01*
X428958Y390981D01*
X431641Y384505D01*
X431641Y377495D01*
X428624Y370213D01*
X428586Y370100D01*
X428538Y369991D01*
X428484Y369801D01*
X428420Y369615D01*
X428396Y369498D01*
X428363Y369383D01*
X428332Y369189D01*
X428293Y368996D01*
X428284Y368877D01*
X428265Y368759D01*
X428259Y368562D01*
X428244Y368366D01*
X428250Y368246D01*
X428247Y368127D01*
X428266Y367931D01*
X428276Y367734D01*
X428297Y367617D01*
X428309Y367498D01*
X428352Y367306D01*
X428387Y367112D01*
X428423Y366998D01*
X428449Y366882D01*
X428534Y366643D01*
X428576Y366509D01*
X428600Y366456D01*
X428624Y366387D01*
X431641Y359105D01*
X431641Y352095D01*
X428958Y345619D01*
X424112Y340772D01*
X423990Y340634D01*
X423860Y340501D01*
X423781Y340397D01*
X423694Y340298D01*
X423590Y340145D01*
X423479Y339997D01*
X423413Y339884D01*
X423339Y339775D01*
X423256Y339610D01*
X423164Y339449D01*
X423113Y339328D01*
X423054Y339211D01*
X422992Y339037D01*
X422920Y338866D01*
X422885Y338739D01*
X422841Y338616D01*
X422802Y338435D01*
X422753Y338257D01*
X422734Y338126D01*
X422706Y337998D01*
X422689Y337814D01*
X422663Y337631D01*
X422661Y337499D01*
X422649Y337369D01*
X422656Y337184D01*
X422653Y336999D01*
X422668Y336868D01*
X422673Y336737D01*
X422703Y336555D01*
X422723Y336371D01*
X422754Y336243D01*
X422776Y336113D01*
X422828Y335936D01*
X422872Y335756D01*
X422919Y335634D01*
X422956Y335508D01*
X423031Y335338D01*
X423097Y335166D01*
X423159Y335050D01*
X423212Y334930D01*
X423308Y334771D01*
X423395Y334608D01*
X423471Y334501D01*
X423539Y334388D01*
X423654Y334243D01*
X423761Y334093D01*
X423863Y333979D01*
X423931Y333893D01*
X424009Y333817D01*
X424112Y333702D01*
X425996Y331818D01*
X426061Y331761D01*
X426120Y331698D01*
X426298Y331552D01*
X426470Y331400D01*
X426542Y331352D01*
X426609Y331297D01*
X426803Y331175D01*
X426994Y331046D01*
X427071Y331007D01*
X427144Y330961D01*
X427445Y330817D01*
X427557Y330760D01*
X427585Y330750D01*
X427618Y330734D01*
X428867Y330217D01*
X433087Y325997D01*
X433604Y324748D01*
X433643Y324670D01*
X433673Y324589D01*
X433782Y324387D01*
X433883Y324180D01*
X433930Y324108D01*
X433971Y324032D01*
X434104Y323845D01*
X434231Y323653D01*
X434287Y323587D01*
X434337Y323516D01*
X434560Y323269D01*
X434642Y323173D01*
X434664Y323153D01*
X434688Y323126D01*
X451789Y306025D01*
X451879Y305946D01*
X451962Y305860D01*
X452116Y305737D01*
X452264Y305607D01*
X452363Y305540D01*
X452456Y305466D01*
X452624Y305363D01*
X452787Y305253D01*
X452893Y305199D01*
X452995Y305136D01*
X453175Y305056D01*
X453351Y304967D01*
X453463Y304927D01*
X453572Y304878D01*
X453761Y304821D01*
X453946Y304754D01*
X454062Y304729D01*
X454177Y304694D01*
X454371Y304661D01*
X454563Y304619D01*
X454682Y304608D01*
X454800Y304588D01*
X455054Y304575D01*
X455193Y304562D01*
X455251Y304565D01*
X455324Y304561D01*
X544584Y304561D01*
X544834Y304577D01*
X545085Y304586D01*
X545150Y304597D01*
X545215Y304601D01*
X545461Y304648D01*
X545708Y304689D01*
X545771Y304708D01*
X545836Y304720D01*
X546074Y304798D01*
X546314Y304870D01*
X546374Y304896D01*
X546437Y304917D01*
X546664Y305024D01*
X546892Y305125D01*
X546948Y305159D01*
X547008Y305187D01*
X547219Y305323D01*
X547433Y305452D01*
X547485Y305493D01*
X547540Y305528D01*
X547733Y305689D01*
X547929Y305844D01*
X547975Y305891D01*
X548025Y305933D01*
X548196Y306117D01*
X548371Y306296D01*
X548411Y306348D01*
X548455Y306397D01*
X548601Y306600D01*
X548753Y306800D01*
X548785Y306857D01*
X548824Y306910D01*
X548942Y307130D01*
X549068Y307348D01*
X549093Y307409D01*
X549124Y307466D01*
X549214Y307700D01*
X549311Y307931D01*
X549328Y307995D01*
X549352Y308056D01*
X549412Y308299D01*
X549479Y308541D01*
X549488Y308606D01*
X549504Y308670D01*
X549533Y308918D01*
X549568Y309166D01*
X549569Y309232D01*
X549577Y309297D01*
X549574Y309547D01*
X549578Y309798D01*
X549571Y309864D01*
X549570Y309930D01*
X549536Y310177D01*
X549508Y310427D01*
X549492Y310491D01*
X549483Y310556D01*
X549418Y310797D01*
X549359Y311041D01*
X549336Y311103D01*
X549319Y311166D01*
X549223Y311397D01*
X549134Y311632D01*
X549103Y311690D01*
X549078Y311750D01*
X548954Y311968D01*
X548836Y312189D01*
X548798Y312243D01*
X548766Y312300D01*
X548616Y312500D01*
X548471Y312705D01*
X548421Y312760D01*
X548387Y312806D01*
X548290Y312906D01*
X548119Y313095D01*
X544953Y316261D01*
X541964Y321438D01*
X540417Y327211D01*
X540417Y335600D01*
X540406Y335785D01*
X540404Y335970D01*
X540386Y336100D01*
X540377Y336231D01*
X540342Y336412D01*
X540317Y336596D01*
X540283Y336722D01*
X540258Y336852D01*
X540200Y337028D01*
X540152Y337206D01*
X540102Y337327D01*
X540061Y337452D01*
X539982Y337620D01*
X539912Y337790D01*
X539847Y337905D01*
X539791Y338023D01*
X539691Y338179D01*
X539600Y338340D01*
X539521Y338445D01*
X539450Y338556D01*
X539331Y338698D01*
X539220Y338846D01*
X539129Y338940D01*
X539045Y339041D01*
X538909Y339167D01*
X538780Y339300D01*
X538678Y339382D01*
X538581Y339471D01*
X538431Y339579D01*
X538287Y339694D01*
X538174Y339763D01*
X538068Y339839D01*
X537905Y339927D01*
X537747Y340024D01*
X537627Y340077D01*
X537512Y340140D01*
X537339Y340206D01*
X537170Y340282D01*
X537045Y340320D01*
X536922Y340368D01*
X536742Y340412D01*
X536565Y340466D01*
X536436Y340488D01*
X536308Y340519D01*
X536125Y340541D01*
X535942Y340572D01*
X535789Y340580D01*
X535681Y340592D01*
X535572Y340591D01*
X535418Y340599D01*
X529253Y340599D01*
X529101Y340590D01*
X528949Y340590D01*
X528786Y340570D01*
X528622Y340559D01*
X528473Y340531D01*
X528322Y340512D01*
X528163Y340471D01*
X528001Y340440D01*
X527857Y340393D01*
X527709Y340355D01*
X527557Y340295D01*
X527401Y340243D01*
X527263Y340178D01*
X527122Y340122D01*
X526978Y340043D01*
X526830Y339973D01*
X526701Y339890D01*
X526568Y339817D01*
X526436Y339721D01*
X526297Y339632D01*
X526180Y339534D01*
X526057Y339445D01*
X525938Y339332D01*
X525812Y339227D01*
X525708Y339115D01*
X525598Y339011D01*
X525494Y338884D01*
X525382Y338763D01*
X525293Y338640D01*
X525197Y338522D01*
X525109Y338383D01*
X525014Y338250D01*
X524941Y338116D01*
X524860Y337987D01*
X524774Y337807D01*
X524713Y337694D01*
X524683Y337615D01*
X524634Y337513D01*
X523352Y334418D01*
X517752Y328818D01*
X510436Y325787D01*
X502516Y325787D01*
X495200Y328818D01*
X489600Y334418D01*
X486569Y341734D01*
X486569Y369466D01*
X489600Y376782D01*
X495200Y382382D01*
X502516Y385413D01*
X510436Y385413D01*
X511487Y384977D01*
X511693Y384907D01*
X511896Y384828D01*
X511992Y384805D01*
X512085Y384773D01*
X512298Y384729D01*
X512510Y384677D01*
X512608Y384665D01*
X512704Y384645D01*
X512921Y384629D01*
X513137Y384604D01*
X513236Y384605D01*
X513334Y384597D01*
X513552Y384608D01*
X513770Y384610D01*
X513867Y384624D01*
X513966Y384629D01*
X514180Y384667D01*
X514396Y384697D01*
X514491Y384723D01*
X514588Y384740D01*
X514796Y384805D01*
X515006Y384862D01*
X515097Y384899D01*
X515191Y384929D01*
X515389Y385019D01*
X515590Y385102D01*
X515676Y385151D01*
X515766Y385192D01*
X515951Y385307D01*
X516140Y385415D01*
X516219Y385474D01*
X516303Y385526D01*
X516472Y385663D01*
X516646Y385794D01*
X516716Y385862D01*
X516793Y385924D01*
X516943Y386082D01*
X517100Y386234D01*
X517161Y386311D01*
X517229Y386382D01*
X517358Y386557D01*
X517494Y386727D01*
X517546Y386812D01*
X517604Y386891D01*
X517710Y387081D01*
X517824Y387267D01*
X517864Y387357D01*
X517912Y387443D01*
X517993Y387645D01*
X518082Y387844D01*
X518111Y387938D01*
X518147Y388030D01*
X518202Y388240D01*
X518266Y388449D01*
X518282Y388546D01*
X518307Y388641D01*
X518335Y388857D01*
X518372Y389072D01*
X518378Y389184D01*
X518388Y389268D01*
X518389Y389397D01*
X518399Y389596D01*
X518399Y408114D01*
X520683Y413627D01*
X524903Y417847D01*
X530416Y420131D01*
X548466Y420131D01*
X548651Y420142D01*
X548836Y420144D01*
X548966Y420162D01*
X549097Y420171D01*
X549278Y420206D01*
X549462Y420231D01*
X549588Y420265D01*
X549718Y420290D01*
X549894Y420348D01*
X550072Y420396D01*
X550193Y420446D01*
X550208Y420451D01*
X555212Y420451D01*
X555235Y420452D01*
X555258Y420451D01*
X555550Y420472D01*
X555843Y420491D01*
X555865Y420495D01*
X555888Y420496D01*
X556175Y420554D01*
X556464Y420610D01*
X556486Y420617D01*
X556508Y420621D01*
X557007Y420784D01*
X557008Y420784D01*
X557036Y420797D01*
X557065Y420806D01*
X557065Y420807D01*
X557066Y420807D01*
X557324Y420929D01*
X557582Y421048D01*
X557609Y421064D01*
X557637Y421078D01*
X557877Y421232D01*
X558119Y421382D01*
X558143Y421402D01*
X558169Y421418D01*
X558387Y421601D01*
X558609Y421781D01*
X558631Y421804D01*
X558654Y421824D01*
X558847Y422031D01*
X559045Y422239D01*
X559063Y422264D01*
X559084Y422287D01*
X559250Y422518D01*
X559419Y422748D01*
X559435Y422775D01*
X559453Y422800D01*
X559588Y423051D01*
X559727Y423300D01*
X559738Y423329D01*
X559753Y423357D01*
X559856Y423622D01*
X559962Y423887D01*
X559970Y423917D01*
X559981Y423946D01*
X560049Y424223D01*
X560121Y424499D01*
X560125Y424530D01*
X560133Y424560D01*
X560165Y424842D01*
X560202Y425126D01*
X560202Y425157D01*
X560206Y425188D01*
X560203Y425471D01*
X560203Y425758D01*
X560199Y425789D01*
X560199Y425820D01*
X560160Y426101D01*
X560124Y426385D01*
X560117Y426415D01*
X560112Y426446D01*
X560038Y426720D01*
X559967Y426997D01*
X559956Y427026D01*
X559948Y427056D01*
X559839Y427319D01*
X559734Y427585D01*
X559719Y427612D01*
X559707Y427641D01*
X559566Y427889D01*
X559428Y428138D01*
X559410Y428163D01*
X559395Y428190D01*
X559224Y428418D01*
X559056Y428649D01*
X559034Y428671D01*
X559016Y428696D01*
X558817Y428901D01*
X558621Y429108D01*
X558597Y429127D01*
X558576Y429150D01*
X558352Y429328D01*
X558132Y429509D01*
X558106Y429525D01*
X558082Y429544D01*
X557837Y429694D01*
X557597Y429844D01*
X557569Y429857D01*
X557542Y429874D01*
X557282Y429991D01*
X557023Y430110D01*
X556994Y430120D01*
X556966Y430132D01*
X556693Y430215D01*
X556421Y430301D01*
X556390Y430307D01*
X556361Y430316D01*
X556080Y430364D01*
X555799Y430415D01*
X555768Y430417D01*
X555738Y430422D01*
X555213Y430449D01*
X554677Y430449D01*
X556160Y431932D01*
X556326Y432121D01*
X556496Y432304D01*
X556534Y432357D01*
X556577Y432406D01*
X556718Y432614D01*
X556864Y432817D01*
X556895Y432875D01*
X556932Y432930D01*
X557046Y433154D01*
X557164Y433374D01*
X557188Y433435D01*
X557218Y433494D01*
X557302Y433730D01*
X557392Y433963D01*
X557408Y434027D01*
X557430Y434089D01*
X557484Y434334D01*
X557544Y434577D01*
X557552Y434642D01*
X557566Y434706D01*
X557588Y434956D01*
X557617Y435205D01*
X557616Y435270D01*
X557622Y435336D01*
X557613Y435587D01*
X557610Y435837D01*
X557601Y435902D01*
X557599Y435968D01*
X557558Y436215D01*
X557524Y436463D01*
X557507Y436526D01*
X557496Y436591D01*
X557424Y436832D01*
X557359Y437073D01*
X557334Y437134D01*
X557315Y437197D01*
X557214Y437426D01*
X557118Y437658D01*
X557086Y437715D01*
X557059Y437775D01*
X556930Y437989D01*
X556806Y438207D01*
X556767Y438260D01*
X556733Y438316D01*
X556577Y438513D01*
X556427Y438713D01*
X556381Y438760D01*
X556340Y438812D01*
X556162Y438987D01*
X555987Y439167D01*
X555936Y439208D01*
X555889Y439254D01*
X555689Y439405D01*
X555493Y439561D01*
X555437Y439596D01*
X555385Y439635D01*
X555168Y439760D01*
X554954Y439891D01*
X554894Y439918D01*
X554837Y439950D01*
X554606Y440047D01*
X554377Y440149D01*
X554314Y440168D01*
X554253Y440194D01*
X554012Y440260D01*
X553772Y440333D01*
X553707Y440344D01*
X553644Y440361D01*
X553396Y440397D01*
X553149Y440439D01*
X553075Y440443D01*
X553018Y440451D01*
X552879Y440453D01*
X552625Y440466D01*
X472803Y440466D01*
X467290Y442750D01*
X421225Y488815D01*
X421136Y488894D01*
X421052Y488980D01*
X420898Y489103D01*
X420751Y489233D01*
X420652Y489300D01*
X420559Y489374D01*
X420391Y489477D01*
X420227Y489587D01*
X420121Y489641D01*
X420019Y489704D01*
X419839Y489784D01*
X419664Y489873D01*
X419551Y489913D01*
X419442Y489962D01*
X419254Y490019D01*
X419068Y490086D01*
X418952Y490111D01*
X418838Y490146D01*
X418643Y490179D01*
X418451Y490221D01*
X418332Y490232D01*
X418214Y490252D01*
X417961Y490265D01*
X417821Y490278D01*
X417763Y490275D01*
X417690Y490279D01*
X394304Y490279D01*
X394185Y490272D01*
X394066Y490274D01*
X393870Y490252D01*
X393674Y490239D01*
X393557Y490217D01*
X393438Y490204D01*
X393246Y490157D01*
X393053Y490120D01*
X392939Y490083D01*
X392823Y490055D01*
X392640Y489985D01*
X392452Y489923D01*
X392344Y489872D01*
X392233Y489830D01*
X392059Y489737D01*
X391881Y489653D01*
X391780Y489588D01*
X391675Y489532D01*
X391515Y489418D01*
X391349Y489312D01*
X391257Y489235D01*
X391160Y489166D01*
X390971Y488996D01*
X390863Y488907D01*
X390824Y488864D01*
X390769Y488815D01*
X383897Y481943D01*
X383434Y481751D01*
X383316Y481693D01*
X383195Y481645D01*
X383033Y481554D01*
X382866Y481473D01*
X382757Y481401D01*
X382643Y481337D01*
X382493Y481227D01*
X382338Y481125D01*
X382239Y481040D01*
X382134Y480962D01*
X381999Y480834D01*
X381859Y480713D01*
X381771Y480616D01*
X381676Y480526D01*
X381559Y480382D01*
X381489Y480305D01*
X381391Y480309D01*
X381263Y480324D01*
X381076Y480322D01*
X380888Y480330D01*
X380759Y480319D01*
X380631Y480317D01*
X380445Y480292D01*
X380258Y480276D01*
X380132Y480248D01*
X380004Y480231D01*
X379824Y480182D01*
X379641Y480143D01*
X379498Y480094D01*
X379394Y480066D01*
X379292Y480024D01*
X379143Y479973D01*
X378978Y479895D01*
X378809Y479825D01*
X378693Y479759D01*
X378572Y479702D01*
X378419Y479603D01*
X378260Y479513D01*
X378153Y479433D01*
X378040Y479361D01*
X377900Y479244D01*
X377754Y479134D01*
X377658Y479041D01*
X377555Y478955D01*
X377432Y478821D01*
X377300Y478694D01*
X377217Y478589D01*
X377126Y478491D01*
X377020Y478343D01*
X376906Y478200D01*
X376836Y478086D01*
X376758Y477977D01*
X376671Y477817D01*
X376576Y477661D01*
X376522Y477539D01*
X376458Y477421D01*
X376392Y477251D01*
X376318Y477084D01*
X376279Y476956D01*
X376231Y476831D01*
X376187Y476654D01*
X376134Y476479D01*
X376112Y476347D01*
X376080Y476217D01*
X376059Y476036D01*
X376028Y475856D01*
X376020Y475699D01*
X376007Y475589D01*
X376008Y475482D01*
X376001Y475332D01*
X376001Y457200D01*
X376001Y417830D01*
X376001Y401326D01*
X375783Y401420D01*
X375752Y401428D01*
X375723Y401441D01*
X375448Y401516D01*
X375176Y401595D01*
X375144Y401600D01*
X375113Y401609D01*
X374830Y401649D01*
X374552Y401693D01*
X374520Y401694D01*
X374487Y401698D01*
X374203Y401703D01*
X373920Y401711D01*
X373888Y401707D01*
X373855Y401708D01*
X373572Y401676D01*
X373291Y401649D01*
X373259Y401642D01*
X373227Y401638D01*
X372951Y401571D01*
X372674Y401508D01*
X372644Y401497D01*
X372613Y401489D01*
X372348Y401388D01*
X372081Y401290D01*
X372052Y401276D01*
X372022Y401264D01*
X371772Y401130D01*
X371520Y401000D01*
X371493Y400982D01*
X371465Y400966D01*
X371232Y400802D01*
X370999Y400641D01*
X370975Y400619D01*
X370949Y400601D01*
X370559Y400249D01*
X365581Y395272D01*
X360897Y393331D01*
X360701Y393235D01*
X360502Y393147D01*
X360418Y393096D01*
X360329Y393053D01*
X360148Y392934D01*
X359961Y392821D01*
X359884Y392760D01*
X359801Y392705D01*
X359636Y392564D01*
X359465Y392428D01*
X359396Y392358D01*
X359322Y392294D01*
X359176Y392133D01*
X359023Y391977D01*
X358964Y391898D01*
X358898Y391825D01*
X358773Y391647D01*
X358642Y391473D01*
X358592Y391387D01*
X358536Y391307D01*
X358435Y391114D01*
X358327Y390925D01*
X358289Y390834D01*
X358243Y390747D01*
X358167Y390543D01*
X358083Y390341D01*
X358057Y390246D01*
X358023Y390154D01*
X357973Y389942D01*
X357916Y389732D01*
X357902Y389634D01*
X357879Y389538D01*
X357857Y389322D01*
X357826Y389106D01*
X357825Y389008D01*
X357814Y388910D01*
X357820Y388692D01*
X357816Y388474D01*
X357827Y388376D01*
X357830Y388278D01*
X357862Y388063D01*
X357886Y387846D01*
X357910Y387750D01*
X357924Y387653D01*
X357984Y387443D01*
X358035Y387232D01*
X358070Y387140D01*
X358097Y387045D01*
X358183Y386844D01*
X358260Y386641D01*
X358306Y386554D01*
X358345Y386463D01*
X358455Y386275D01*
X358558Y386083D01*
X358615Y386003D01*
X358665Y385918D01*
X358798Y385745D01*
X358924Y385568D01*
X358999Y385485D01*
X359050Y385417D01*
X359142Y385326D01*
X359275Y385178D01*
X364803Y379649D01*
X358154Y379649D01*
X357969Y379638D01*
X357784Y379636D01*
X357654Y379618D01*
X357523Y379609D01*
X357342Y379575D01*
X357158Y379549D01*
X357032Y379515D01*
X356902Y379490D01*
X356726Y379433D01*
X356548Y379384D01*
X356427Y379335D01*
X356302Y379294D01*
X356134Y379214D01*
X355964Y379144D01*
X355849Y379079D01*
X355731Y379023D01*
X355575Y378923D01*
X355414Y378832D01*
X355309Y378753D01*
X355198Y378682D01*
X355056Y378563D01*
X354908Y378452D01*
X354814Y378361D01*
X354713Y378277D01*
X354587Y378141D01*
X354454Y378013D01*
X354372Y377910D01*
X354283Y377814D01*
X354175Y377663D01*
X354060Y377519D01*
X353991Y377406D01*
X353915Y377300D01*
X353827Y377137D01*
X353730Y376979D01*
X353677Y376859D01*
X353614Y376744D01*
X353548Y376571D01*
X353472Y376402D01*
X353434Y376277D01*
X353386Y376154D01*
X353342Y375975D01*
X353288Y375798D01*
X353266Y375668D01*
X353235Y375541D01*
X353213Y375357D01*
X353182Y375174D01*
X353174Y375021D01*
X353162Y374913D01*
X353162Y374900D01*
X353163Y374804D01*
X353155Y374650D01*
X353166Y374465D01*
X353168Y374280D01*
X353186Y374150D01*
X353195Y374019D01*
X353230Y373837D01*
X353255Y373654D01*
X353289Y373527D01*
X353314Y373398D01*
X353372Y373222D01*
X353420Y373044D01*
X353470Y372923D01*
X353511Y372798D01*
X353590Y372630D01*
X353660Y372459D01*
X353725Y372345D01*
X353781Y372226D01*
X353881Y372070D01*
X353972Y371910D01*
X354051Y371805D01*
X354122Y371694D01*
X354241Y371552D01*
X354269Y371514D01*
X354134Y371437D01*
X354132Y371436D01*
X354130Y371435D01*
X353874Y371243D01*
X353628Y371059D01*
X353626Y371057D01*
X353624Y371056D01*
X353393Y370831D01*
X353174Y370619D01*
X353172Y370617D01*
X353171Y370616D01*
X352961Y370354D01*
X352779Y370126D01*
X352777Y370124D01*
X352776Y370122D01*
X352608Y369847D01*
X352449Y369587D01*
X352448Y369584D01*
X352447Y369582D01*
X352438Y369563D01*
X352228Y369110D01*
X352228Y369109D01*
X352211Y369056D01*
X352188Y369006D01*
X352188Y369005D01*
X352112Y368756D01*
X352031Y368509D01*
X352020Y368454D01*
X352004Y368400D01*
X351960Y368143D01*
X351911Y367888D01*
X351908Y367832D01*
X351898Y367777D01*
X351872Y367278D01*
X351871Y367257D01*
X351871Y367255D01*
X351871Y367252D01*
X351871Y365377D01*
X351707Y365346D01*
X351594Y365309D01*
X351478Y365281D01*
X351294Y365211D01*
X351106Y365149D01*
X350998Y365098D01*
X350887Y365056D01*
X350714Y364963D01*
X350535Y364879D01*
X350435Y364814D01*
X350329Y364758D01*
X350169Y364644D01*
X350003Y364538D01*
X349911Y364461D01*
X349814Y364392D01*
X349625Y364222D01*
X349518Y364133D01*
X349478Y364090D01*
X349424Y364041D01*
X346715Y361332D01*
X346636Y361243D01*
X346550Y361160D01*
X346427Y361006D01*
X346297Y360858D01*
X346230Y360759D01*
X346156Y360666D01*
X346053Y360498D01*
X345943Y360335D01*
X345889Y360228D01*
X345826Y360126D01*
X345746Y359947D01*
X345657Y359771D01*
X345617Y359658D01*
X345568Y359550D01*
X345511Y359361D01*
X345444Y359176D01*
X345419Y359059D01*
X345384Y358945D01*
X345351Y358750D01*
X345309Y358558D01*
X345298Y358439D01*
X345278Y358322D01*
X345265Y358068D01*
X345252Y357929D01*
X345255Y357871D01*
X345251Y357797D01*
X345251Y349593D01*
X345258Y349474D01*
X345256Y349354D01*
X345278Y349158D01*
X345291Y348962D01*
X345313Y348845D01*
X345326Y348726D01*
X345373Y348535D01*
X345410Y348341D01*
X345447Y348228D01*
X345475Y348112D01*
X345545Y347928D01*
X345607Y347740D01*
X345658Y347632D01*
X345700Y347521D01*
X345793Y347347D01*
X345877Y347169D01*
X345942Y347069D01*
X345998Y346963D01*
X346112Y346803D01*
X346218Y346637D01*
X346295Y346545D01*
X346364Y346448D01*
X346534Y346259D01*
X346623Y346152D01*
X346666Y346113D01*
X346715Y346058D01*
X350990Y341783D01*
X351129Y341660D01*
X351261Y341531D01*
X351366Y341452D01*
X351464Y341365D01*
X351617Y341261D01*
X351765Y341149D01*
X351879Y341084D01*
X351988Y341010D01*
X352152Y340927D01*
X352313Y340834D01*
X352434Y340784D01*
X352551Y340724D01*
X352726Y340662D01*
X352896Y340591D01*
X353023Y340556D01*
X353147Y340512D01*
X353327Y340473D01*
X353506Y340423D01*
X353636Y340405D01*
X353764Y340377D01*
X353948Y340360D01*
X354131Y340334D01*
X354263Y340332D01*
X354394Y340320D01*
X354579Y340327D01*
X354763Y340324D01*
X354894Y340339D01*
X355025Y340343D01*
X355208Y340374D01*
X355392Y340394D01*
X355519Y340425D01*
X355649Y340446D01*
X355826Y340499D01*
X356006Y340543D01*
X356129Y340589D01*
X356255Y340627D01*
X356424Y340702D01*
X356597Y340768D01*
X356712Y340830D01*
X356833Y340883D01*
X356951Y340954D01*
X356951Y332740D01*
X356962Y332556D01*
X356964Y332371D01*
X356982Y332241D01*
X356991Y332110D01*
X357025Y331928D01*
X357051Y331745D01*
X357085Y331618D01*
X357110Y331489D01*
X357167Y331313D01*
X357216Y331134D01*
X357265Y331013D01*
X357306Y330888D01*
X357386Y330721D01*
X357456Y330550D01*
X357521Y330436D01*
X357577Y330317D01*
X357677Y330161D01*
X357768Y330000D01*
X357847Y329895D01*
X357918Y329785D01*
X358037Y329642D01*
X358148Y329495D01*
X358239Y329400D01*
X358323Y329299D01*
X358324Y329299D01*
X358459Y329173D01*
X358587Y329041D01*
X358588Y329040D01*
X358691Y328958D01*
X358787Y328869D01*
X358937Y328761D01*
X359082Y328646D01*
X359194Y328577D01*
X359301Y328501D01*
X359463Y328413D01*
X359621Y328316D01*
X359741Y328262D01*
X359857Y328200D01*
X360029Y328133D01*
X360198Y328058D01*
X360324Y328020D01*
X360446Y327972D01*
X360626Y327928D01*
X360803Y327874D01*
X360933Y327852D01*
X361060Y327821D01*
X361243Y327799D01*
X361426Y327768D01*
X361580Y327760D01*
X361688Y327747D01*
X361797Y327749D01*
X361950Y327741D01*
X369883Y327741D01*
X364659Y322516D01*
X364536Y322377D01*
X364407Y322245D01*
X364328Y322140D01*
X364241Y322042D01*
X364137Y321889D01*
X364025Y321741D01*
X363960Y321627D01*
X363886Y321518D01*
X363803Y321354D01*
X363710Y321193D01*
X363660Y321072D01*
X363600Y320955D01*
X363538Y320780D01*
X363467Y320610D01*
X363432Y320483D01*
X363388Y320359D01*
X363349Y320179D01*
X363299Y320000D01*
X363281Y319870D01*
X363253Y319742D01*
X363236Y319558D01*
X363210Y319375D01*
X363208Y319243D01*
X363196Y319112D01*
X363203Y318928D01*
X363200Y318743D01*
X363215Y318612D01*
X363219Y318481D01*
X363250Y318298D01*
X363270Y318114D01*
X363301Y317987D01*
X363322Y317857D01*
X363375Y317680D01*
X363419Y317500D01*
X363466Y317377D01*
X363503Y317251D01*
X363578Y317082D01*
X363644Y316909D01*
X363706Y316794D01*
X363759Y316673D01*
X363855Y316515D01*
X363942Y316352D01*
X364018Y316245D01*
X364086Y316132D01*
X364200Y315987D01*
X364307Y315836D01*
X364410Y315722D01*
X364478Y315637D01*
X364556Y315560D01*
X364659Y315446D01*
X395110Y284995D01*
X395199Y284916D01*
X395282Y284830D01*
X395436Y284707D01*
X395584Y284577D01*
X395683Y284510D01*
X395776Y284436D01*
X395944Y284333D01*
X396107Y284223D01*
X396214Y284169D01*
X396316Y284106D01*
X396495Y284026D01*
X396671Y283937D01*
X396784Y283897D01*
X396892Y283848D01*
X397081Y283791D01*
X397266Y283724D01*
X397383Y283699D01*
X397497Y283664D01*
X397692Y283631D01*
X397884Y283589D01*
X398003Y283578D01*
X398120Y283558D01*
X398374Y283545D01*
X398513Y283532D01*
X398571Y283535D01*
X398645Y283531D01*
X419786Y283531D01*
X420035Y283547D01*
G37*
G36*
X627787Y290070D02*
X627787Y290070D01*
X628070Y290074D01*
X628102Y290078D01*
X628135Y290079D01*
X628415Y290121D01*
X628696Y290160D01*
X628727Y290169D01*
X628760Y290173D01*
X629033Y290251D01*
X629306Y290325D01*
X629336Y290337D01*
X629368Y290346D01*
X629629Y290458D01*
X629890Y290565D01*
X629919Y290582D01*
X629949Y290594D01*
X630194Y290737D01*
X630440Y290878D01*
X630466Y290897D01*
X630495Y290914D01*
X630719Y291087D01*
X630946Y291257D01*
X630969Y291280D01*
X630995Y291300D01*
X631197Y291500D01*
X631400Y291697D01*
X631420Y291722D01*
X631443Y291746D01*
X631618Y291969D01*
X631794Y292190D01*
X631811Y292218D01*
X631832Y292244D01*
X631976Y292488D01*
X632124Y292730D01*
X632137Y292760D01*
X632154Y292788D01*
X632266Y293048D01*
X632382Y293307D01*
X632392Y293338D01*
X632405Y293368D01*
X632483Y293640D01*
X632566Y293912D01*
X632571Y293944D01*
X632580Y293976D01*
X632624Y294255D01*
X632672Y294535D01*
X632674Y294571D01*
X632678Y294600D01*
X632682Y294726D01*
X632699Y295059D01*
X632699Y447484D01*
X634983Y452997D01*
X639906Y457920D01*
X641653Y459668D01*
X641826Y459863D01*
X642003Y460056D01*
X642035Y460101D01*
X642071Y460142D01*
X642218Y460358D01*
X642369Y460571D01*
X642395Y460620D01*
X642426Y460665D01*
X642544Y460898D01*
X642667Y461129D01*
X642687Y461180D01*
X642712Y461229D01*
X642799Y461475D01*
X642892Y461719D01*
X642906Y461773D01*
X642924Y461824D01*
X642980Y462079D01*
X643042Y462333D01*
X643048Y462388D01*
X643059Y462442D01*
X643083Y462702D01*
X643112Y462962D01*
X643111Y463017D01*
X643116Y463071D01*
X643106Y463333D01*
X643102Y463594D01*
X643095Y463648D01*
X643093Y463703D01*
X643050Y463961D01*
X643013Y464219D01*
X642999Y464272D01*
X642990Y464327D01*
X642915Y464577D01*
X642846Y464829D01*
X642825Y464880D01*
X642809Y464932D01*
X642703Y465171D01*
X642603Y465412D01*
X642575Y465460D01*
X642553Y465510D01*
X642418Y465734D01*
X642288Y465961D01*
X642255Y466004D01*
X642227Y466052D01*
X642064Y466257D01*
X641907Y466465D01*
X641868Y466504D01*
X641834Y466547D01*
X641647Y466730D01*
X641465Y466917D01*
X641417Y466955D01*
X641382Y466989D01*
X641271Y467074D01*
X641091Y467219D01*
X639950Y468361D01*
X639010Y469655D01*
X638284Y471080D01*
X637789Y472601D01*
X637539Y474180D01*
X637539Y481650D01*
X637523Y481899D01*
X637514Y482150D01*
X637503Y482215D01*
X637499Y482280D01*
X637452Y482526D01*
X637411Y482774D01*
X637392Y482837D01*
X637380Y482901D01*
X637302Y483140D01*
X637230Y483379D01*
X637204Y483439D01*
X637183Y483502D01*
X637076Y483729D01*
X636975Y483957D01*
X636941Y484014D01*
X636913Y484073D01*
X636777Y484285D01*
X636648Y484499D01*
X636607Y484550D01*
X636572Y484605D01*
X636411Y484798D01*
X636256Y484994D01*
X636209Y485040D01*
X636167Y485091D01*
X635983Y485261D01*
X635804Y485436D01*
X635752Y485476D01*
X635703Y485521D01*
X635500Y485666D01*
X635300Y485818D01*
X635243Y485851D01*
X635190Y485889D01*
X634970Y486008D01*
X634752Y486133D01*
X634691Y486158D01*
X634634Y486189D01*
X634400Y486280D01*
X634169Y486376D01*
X634105Y486394D01*
X634044Y486417D01*
X633801Y486477D01*
X633559Y486544D01*
X633494Y486553D01*
X633430Y486569D01*
X633182Y486598D01*
X632934Y486633D01*
X632868Y486634D01*
X632803Y486642D01*
X632553Y486639D01*
X632302Y486643D01*
X632236Y486636D01*
X632170Y486635D01*
X631923Y486601D01*
X631673Y486573D01*
X631609Y486558D01*
X631544Y486549D01*
X631303Y486484D01*
X631059Y486425D01*
X630997Y486401D01*
X630934Y486384D01*
X630702Y486289D01*
X630468Y486199D01*
X630410Y486169D01*
X630350Y486143D01*
X630131Y486020D01*
X629911Y485902D01*
X629857Y485864D01*
X629800Y485831D01*
X629599Y485681D01*
X629395Y485536D01*
X629341Y485487D01*
X629294Y485452D01*
X629194Y485354D01*
X629005Y485185D01*
X586571Y442750D01*
X581057Y440466D01*
X572595Y440466D01*
X572346Y440451D01*
X572095Y440441D01*
X572030Y440431D01*
X571965Y440426D01*
X571719Y440379D01*
X571471Y440338D01*
X571408Y440320D01*
X571344Y440307D01*
X571105Y440229D01*
X570866Y440158D01*
X570806Y440131D01*
X570743Y440111D01*
X570516Y440003D01*
X570288Y439902D01*
X570232Y439868D01*
X570172Y439840D01*
X569960Y439704D01*
X569746Y439575D01*
X569695Y439535D01*
X569640Y439499D01*
X569447Y439338D01*
X569251Y439183D01*
X569205Y439136D01*
X569154Y439094D01*
X568984Y438911D01*
X568809Y438731D01*
X568769Y438679D01*
X568724Y438631D01*
X568579Y438428D01*
X568427Y438227D01*
X568394Y438170D01*
X568356Y438117D01*
X568237Y437897D01*
X568112Y437679D01*
X568087Y437618D01*
X568056Y437561D01*
X567965Y437327D01*
X567869Y437096D01*
X567851Y437033D01*
X567828Y436971D01*
X567768Y436728D01*
X567701Y436486D01*
X567692Y436421D01*
X567676Y436358D01*
X567647Y436108D01*
X567612Y435861D01*
X567611Y435795D01*
X567603Y435730D01*
X567606Y435480D01*
X567602Y435229D01*
X567609Y435163D01*
X567610Y435098D01*
X567644Y434850D01*
X567672Y434600D01*
X567687Y434536D01*
X567696Y434471D01*
X567761Y434230D01*
X567821Y433986D01*
X567844Y433925D01*
X567861Y433861D01*
X567956Y433630D01*
X568046Y433395D01*
X568077Y433338D01*
X568102Y433277D01*
X568226Y433059D01*
X568343Y432838D01*
X568381Y432784D01*
X568414Y432727D01*
X568564Y432527D01*
X568709Y432322D01*
X568758Y432268D01*
X568793Y432221D01*
X568890Y432121D01*
X569060Y431932D01*
X570543Y430449D01*
X570007Y430449D01*
X569976Y430447D01*
X569945Y430449D01*
X569660Y430427D01*
X569376Y430409D01*
X569346Y430404D01*
X569314Y430401D01*
X569036Y430344D01*
X568755Y430290D01*
X568725Y430280D01*
X568695Y430274D01*
X568427Y430183D01*
X568154Y430094D01*
X568126Y430080D01*
X568097Y430070D01*
X567842Y429945D01*
X567583Y429823D01*
X567557Y429806D01*
X567529Y429792D01*
X567292Y429636D01*
X567051Y429482D01*
X567027Y429462D01*
X567001Y429445D01*
X566784Y429259D01*
X566566Y429077D01*
X566545Y429054D01*
X566521Y429034D01*
X566329Y428821D01*
X566136Y428614D01*
X566118Y428588D01*
X566097Y428565D01*
X565932Y428330D01*
X565767Y428100D01*
X565753Y428073D01*
X565735Y428047D01*
X565602Y427793D01*
X565467Y427544D01*
X565456Y427515D01*
X565441Y427487D01*
X565342Y427221D01*
X565239Y426954D01*
X565232Y426924D01*
X565221Y426895D01*
X565156Y426618D01*
X565087Y426341D01*
X565084Y426310D01*
X565077Y426279D01*
X565047Y425996D01*
X565014Y425713D01*
X565015Y425682D01*
X565011Y425651D01*
X565018Y425365D01*
X565021Y425081D01*
X565025Y425050D01*
X565026Y425019D01*
X565069Y424736D01*
X565108Y424454D01*
X565116Y424424D01*
X565120Y424394D01*
X565198Y424119D01*
X565272Y423844D01*
X565284Y423816D01*
X565293Y423786D01*
X565404Y423523D01*
X565513Y423260D01*
X565528Y423233D01*
X565540Y423204D01*
X565684Y422958D01*
X565825Y422710D01*
X565844Y422685D01*
X565859Y422659D01*
X566034Y422432D01*
X566204Y422204D01*
X566226Y422182D01*
X566245Y422158D01*
X566446Y421955D01*
X566644Y421751D01*
X566669Y421731D01*
X566690Y421709D01*
X566914Y421535D01*
X567138Y421356D01*
X567165Y421340D01*
X567189Y421321D01*
X567433Y421176D01*
X567678Y421027D01*
X567706Y421014D01*
X567733Y420998D01*
X568212Y420784D01*
X568213Y420784D01*
X568234Y420777D01*
X568254Y420768D01*
X568255Y420768D01*
X568536Y420682D01*
X568816Y420595D01*
X568838Y420591D01*
X568860Y420584D01*
X569150Y420535D01*
X569438Y420483D01*
X569461Y420482D01*
X569483Y420478D01*
X570008Y420451D01*
X574996Y420451D01*
X575002Y420448D01*
X575127Y420410D01*
X575250Y420362D01*
X575430Y420318D01*
X575607Y420264D01*
X575736Y420242D01*
X575864Y420211D01*
X576047Y420189D01*
X576230Y420158D01*
X576383Y420150D01*
X576491Y420138D01*
X576600Y420139D01*
X576754Y420131D01*
X587836Y420131D01*
X588021Y420142D01*
X588206Y420144D01*
X588336Y420162D01*
X588467Y420171D01*
X588648Y420206D01*
X588832Y420231D01*
X588958Y420265D01*
X589088Y420290D01*
X589264Y420348D01*
X589442Y420396D01*
X589563Y420446D01*
X589688Y420487D01*
X589856Y420566D01*
X590026Y420636D01*
X590141Y420701D01*
X590259Y420757D01*
X590415Y420857D01*
X590576Y420948D01*
X590681Y421027D01*
X590792Y421098D01*
X590934Y421217D01*
X591082Y421328D01*
X591176Y421419D01*
X591277Y421503D01*
X591403Y421639D01*
X591536Y421768D01*
X591618Y421870D01*
X591707Y421967D01*
X591815Y422117D01*
X591930Y422261D01*
X591999Y422374D01*
X592075Y422480D01*
X592163Y422643D01*
X592260Y422801D01*
X592313Y422921D01*
X592351Y422991D01*
X601980Y422991D01*
X610193Y422991D01*
X610167Y422937D01*
X610074Y422777D01*
X610024Y422656D01*
X609964Y422539D01*
X609902Y422364D01*
X609831Y422194D01*
X609796Y422067D01*
X609752Y421943D01*
X609713Y421763D01*
X609663Y421584D01*
X609645Y421454D01*
X609617Y421326D01*
X609600Y421142D01*
X609574Y420959D01*
X609572Y420827D01*
X609560Y420696D01*
X609567Y420511D01*
X609564Y420327D01*
X609579Y420196D01*
X609583Y420065D01*
X609614Y419882D01*
X609634Y419698D01*
X609665Y419570D01*
X609686Y419441D01*
X609739Y419264D01*
X609783Y419084D01*
X609830Y418961D01*
X609867Y418835D01*
X609942Y418666D01*
X610008Y418493D01*
X610070Y418377D01*
X610123Y418257D01*
X610219Y418099D01*
X610306Y417936D01*
X610382Y417829D01*
X610450Y417716D01*
X610564Y417571D01*
X610671Y417420D01*
X610774Y417306D01*
X610842Y417221D01*
X610920Y417144D01*
X611023Y417030D01*
X618585Y409468D01*
X618585Y395712D01*
X608858Y385985D01*
X595102Y385985D01*
X592422Y388665D01*
X592333Y388744D01*
X592250Y388830D01*
X592096Y388953D01*
X591948Y389083D01*
X591849Y389150D01*
X591756Y389224D01*
X591588Y389327D01*
X591425Y389437D01*
X591318Y389491D01*
X591216Y389554D01*
X591037Y389634D01*
X590861Y389723D01*
X590748Y389763D01*
X590640Y389812D01*
X590451Y389869D01*
X590266Y389936D01*
X590149Y389961D01*
X590035Y389996D01*
X589840Y390029D01*
X589648Y390071D01*
X589530Y390082D01*
X589412Y390102D01*
X589158Y390115D01*
X589019Y390128D01*
X588961Y390125D01*
X588887Y390129D01*
X570780Y390129D01*
X570693Y390124D01*
X570607Y390126D01*
X570378Y390104D01*
X570149Y390089D01*
X570064Y390073D01*
X569978Y390065D01*
X569754Y390013D01*
X569528Y389970D01*
X569446Y389943D01*
X569361Y389924D01*
X569048Y389813D01*
X568927Y389773D01*
X568901Y389761D01*
X568867Y389749D01*
X565913Y388525D01*
X559307Y388525D01*
X556353Y389749D01*
X556272Y389777D01*
X556193Y389812D01*
X555972Y389879D01*
X555755Y389953D01*
X555671Y389971D01*
X555588Y389996D01*
X555361Y390034D01*
X555136Y390081D01*
X555050Y390087D01*
X554965Y390102D01*
X554632Y390119D01*
X554506Y390129D01*
X554477Y390127D01*
X554440Y390129D01*
X553400Y390129D01*
X553215Y390118D01*
X553030Y390116D01*
X552900Y390098D01*
X552769Y390089D01*
X552588Y390054D01*
X552404Y390029D01*
X552278Y389995D01*
X552148Y389970D01*
X551972Y389912D01*
X551794Y389864D01*
X551673Y389814D01*
X551548Y389773D01*
X551380Y389694D01*
X551210Y389624D01*
X551095Y389559D01*
X550977Y389503D01*
X550821Y389403D01*
X550660Y389312D01*
X550555Y389233D01*
X550444Y389162D01*
X550302Y389043D01*
X550154Y388932D01*
X550060Y388841D01*
X549959Y388757D01*
X549833Y388621D01*
X549700Y388492D01*
X549618Y388390D01*
X549529Y388293D01*
X549421Y388143D01*
X549306Y387999D01*
X549237Y387886D01*
X549161Y387780D01*
X549073Y387617D01*
X548976Y387459D01*
X548923Y387339D01*
X548860Y387224D01*
X548794Y387051D01*
X548718Y386882D01*
X548680Y386757D01*
X548632Y386634D01*
X548588Y386454D01*
X548534Y386277D01*
X548512Y386148D01*
X548481Y386020D01*
X548459Y385837D01*
X548428Y385654D01*
X548420Y385501D01*
X548408Y385393D01*
X548409Y385284D01*
X548401Y385130D01*
X548401Y381673D01*
X548414Y381467D01*
X548418Y381260D01*
X548434Y381151D01*
X548441Y381042D01*
X548480Y380839D01*
X548510Y380635D01*
X548539Y380529D01*
X548560Y380422D01*
X548624Y380225D01*
X548680Y380026D01*
X548722Y379925D01*
X548757Y379821D01*
X548845Y379634D01*
X548926Y379443D01*
X548980Y379349D01*
X549027Y379250D01*
X549139Y379075D01*
X549243Y378897D01*
X549309Y378810D01*
X549368Y378717D01*
X549501Y378559D01*
X549626Y378394D01*
X549703Y378316D01*
X549773Y378232D01*
X549925Y378092D01*
X550070Y377944D01*
X550156Y377877D01*
X550237Y377802D01*
X550404Y377682D01*
X550567Y377554D01*
X550661Y377498D01*
X550750Y377434D01*
X550932Y377336D01*
X551110Y377229D01*
X551210Y377185D01*
X551306Y377133D01*
X551500Y377059D01*
X551689Y376976D01*
X551794Y376945D01*
X551896Y376906D01*
X552097Y376856D01*
X552295Y376798D01*
X552404Y376780D01*
X552510Y376754D01*
X552715Y376730D01*
X552919Y376697D01*
X553029Y376693D01*
X553137Y376681D01*
X553344Y376683D01*
X553551Y376676D01*
X553660Y376686D01*
X553770Y376688D01*
X553974Y376716D01*
X554180Y376735D01*
X554303Y376761D01*
X554396Y376774D01*
X554514Y376806D01*
X554694Y376844D01*
X560129Y378301D01*
X566107Y378301D01*
X571880Y376754D01*
X577057Y373765D01*
X581283Y369539D01*
X584272Y364362D01*
X585819Y358589D01*
X585819Y327211D01*
X584272Y321438D01*
X581283Y316261D01*
X578117Y313095D01*
X577951Y312907D01*
X577781Y312723D01*
X577742Y312670D01*
X577699Y312621D01*
X577558Y312413D01*
X577412Y312210D01*
X577381Y312152D01*
X577344Y312097D01*
X577231Y311874D01*
X577112Y311654D01*
X577088Y311592D01*
X577059Y311534D01*
X576974Y311298D01*
X576884Y311064D01*
X576868Y311000D01*
X576846Y310938D01*
X576792Y310694D01*
X576732Y310450D01*
X576725Y310385D01*
X576711Y310321D01*
X576688Y310071D01*
X576659Y309823D01*
X576660Y309757D01*
X576654Y309691D01*
X576663Y309440D01*
X576666Y309190D01*
X576675Y309126D01*
X576678Y309060D01*
X576718Y308812D01*
X576753Y308564D01*
X576770Y308501D01*
X576780Y308436D01*
X576852Y308196D01*
X576917Y307954D01*
X576942Y307893D01*
X576961Y307830D01*
X577063Y307601D01*
X577158Y307370D01*
X577190Y307312D01*
X577217Y307252D01*
X577346Y307038D01*
X577470Y306820D01*
X577510Y306767D01*
X577544Y306711D01*
X577699Y306515D01*
X577849Y306314D01*
X577895Y306267D01*
X577936Y306216D01*
X578115Y306040D01*
X578289Y305860D01*
X578341Y305819D01*
X578388Y305773D01*
X578587Y305622D01*
X578783Y305466D01*
X578839Y305431D01*
X578892Y305392D01*
X579108Y305267D01*
X579323Y305136D01*
X579383Y305109D01*
X579440Y305077D01*
X579671Y304980D01*
X579899Y304878D01*
X579962Y304859D01*
X580023Y304833D01*
X580265Y304767D01*
X580504Y304694D01*
X580569Y304683D01*
X580632Y304666D01*
X580880Y304630D01*
X581127Y304588D01*
X581201Y304584D01*
X581258Y304576D01*
X581398Y304574D01*
X581652Y304561D01*
X611314Y304561D01*
X616827Y302277D01*
X621047Y298057D01*
X623081Y293146D01*
X623206Y292892D01*
X623327Y292636D01*
X623345Y292608D01*
X623360Y292578D01*
X623515Y292343D01*
X623668Y292103D01*
X623689Y292078D01*
X623707Y292051D01*
X623892Y291836D01*
X624073Y291618D01*
X624098Y291596D01*
X624119Y291571D01*
X624328Y291381D01*
X624537Y291188D01*
X624563Y291169D01*
X624588Y291147D01*
X624820Y290985D01*
X625050Y290820D01*
X625079Y290804D01*
X625106Y290785D01*
X625357Y290654D01*
X625606Y290519D01*
X625637Y290507D01*
X625666Y290492D01*
X625932Y290394D01*
X626196Y290291D01*
X626228Y290284D01*
X626259Y290272D01*
X626536Y290207D01*
X626810Y290140D01*
X626842Y290136D01*
X626874Y290128D01*
X627157Y290099D01*
X627437Y290067D01*
X627470Y290067D01*
X627503Y290064D01*
X627787Y290070D01*
G37*
G36*
X539761Y632218D02*
X539761Y632218D01*
X539946Y632220D01*
X540076Y632238D01*
X540207Y632247D01*
X540388Y632282D01*
X540572Y632307D01*
X540698Y632341D01*
X540828Y632366D01*
X541004Y632424D01*
X541182Y632472D01*
X541303Y632522D01*
X541428Y632563D01*
X541596Y632642D01*
X541766Y632712D01*
X541881Y632777D01*
X541999Y632833D01*
X542155Y632933D01*
X542316Y633024D01*
X542421Y633103D01*
X542532Y633174D01*
X542674Y633293D01*
X542822Y633404D01*
X542916Y633495D01*
X543017Y633579D01*
X543143Y633715D01*
X543242Y633811D01*
X553720Y633811D01*
X553904Y633822D01*
X554089Y633824D01*
X554219Y633842D01*
X554350Y633851D01*
X554532Y633885D01*
X554715Y633911D01*
X554842Y633945D01*
X554971Y633970D01*
X555147Y634027D01*
X555326Y634076D01*
X555447Y634125D01*
X555572Y634166D01*
X555739Y634246D01*
X555910Y634316D01*
X556024Y634381D01*
X556143Y634437D01*
X556299Y634537D01*
X556460Y634628D01*
X556565Y634707D01*
X556675Y634778D01*
X556818Y634897D01*
X556965Y635008D01*
X557060Y635099D01*
X557161Y635183D01*
X557286Y635319D01*
X557419Y635447D01*
X557501Y635550D01*
X557591Y635646D01*
X557698Y635796D01*
X557814Y635941D01*
X557883Y636054D01*
X557959Y636160D01*
X558047Y636323D01*
X558143Y636481D01*
X558197Y636601D01*
X558259Y636716D01*
X558326Y636889D01*
X558402Y637058D01*
X558440Y637183D01*
X558487Y637306D01*
X558532Y637485D01*
X558585Y637662D01*
X558607Y637792D01*
X558639Y637919D01*
X558660Y638103D01*
X558691Y638286D01*
X558699Y638439D01*
X558712Y638547D01*
X558712Y638548D01*
X558711Y638656D01*
X558719Y638810D01*
X558707Y638995D01*
X558705Y639180D01*
X558687Y639310D01*
X558679Y639441D01*
X558644Y639623D01*
X558619Y639806D01*
X558585Y639933D01*
X558560Y640062D01*
X558502Y640238D01*
X558454Y640416D01*
X558404Y640537D01*
X558363Y640662D01*
X558284Y640830D01*
X558213Y641001D01*
X558149Y641115D01*
X558092Y641234D01*
X557992Y641389D01*
X557901Y641550D01*
X557822Y641655D01*
X557752Y641766D01*
X557633Y641908D01*
X557522Y642056D01*
X557431Y642150D01*
X557346Y642251D01*
X557211Y642377D01*
X557082Y642510D01*
X556979Y642592D01*
X556883Y642681D01*
X556733Y642789D01*
X556588Y642904D01*
X556476Y642973D01*
X556369Y643049D01*
X556207Y643137D01*
X556049Y643234D01*
X555929Y643288D01*
X555813Y643350D01*
X555641Y643417D01*
X555472Y643492D01*
X555346Y643530D01*
X555224Y643578D01*
X555044Y643622D01*
X554867Y643676D01*
X554737Y643698D01*
X554610Y643729D01*
X554427Y643751D01*
X554244Y643782D01*
X554090Y643790D01*
X553982Y643802D01*
X553873Y643801D01*
X553720Y643809D01*
X545787Y643809D01*
X548208Y646231D01*
X548352Y646394D01*
X548502Y646552D01*
X548561Y646631D01*
X548626Y646705D01*
X548748Y646885D01*
X548877Y647060D01*
X548925Y647147D01*
X548980Y647228D01*
X549079Y647422D01*
X549185Y647613D01*
X549222Y647704D01*
X549266Y647792D01*
X549339Y647997D01*
X549421Y648199D01*
X549445Y648295D01*
X549479Y648387D01*
X549525Y648600D01*
X549580Y648811D01*
X549593Y648909D01*
X549614Y649005D01*
X549633Y649221D01*
X549661Y649438D01*
X549662Y649536D01*
X549671Y649634D01*
X549662Y649852D01*
X549663Y650070D01*
X549651Y650167D01*
X549647Y650266D01*
X549612Y650481D01*
X549585Y650697D01*
X549560Y650792D01*
X549544Y650890D01*
X549482Y651098D01*
X549428Y651309D01*
X549392Y651401D01*
X549364Y651495D01*
X549275Y651695D01*
X549195Y651897D01*
X549148Y651983D01*
X549108Y652073D01*
X548995Y652260D01*
X548890Y652450D01*
X548832Y652530D01*
X548781Y652614D01*
X548646Y652785D01*
X548518Y652961D01*
X548450Y653033D01*
X548389Y653110D01*
X548233Y653262D01*
X548084Y653421D01*
X548007Y653483D01*
X547937Y653552D01*
X547764Y653684D01*
X547595Y653822D01*
X547512Y653874D01*
X547433Y653934D01*
X547245Y654042D01*
X547060Y654158D01*
X546958Y654207D01*
X546885Y654249D01*
X546766Y654298D01*
X546586Y654384D01*
X540393Y656950D01*
X540280Y656988D01*
X540171Y657036D01*
X539981Y657090D01*
X539795Y657154D01*
X539678Y657178D01*
X539563Y657211D01*
X539369Y657242D01*
X539176Y657281D01*
X539057Y657291D01*
X538939Y657309D01*
X538742Y657315D01*
X538546Y657330D01*
X538426Y657324D01*
X538307Y657327D01*
X538111Y657308D01*
X537914Y657298D01*
X537797Y657277D01*
X537678Y657265D01*
X537486Y657222D01*
X537292Y657187D01*
X537178Y657151D01*
X537062Y657125D01*
X536822Y657040D01*
X536689Y656998D01*
X536636Y656974D01*
X536567Y656950D01*
X529336Y653954D01*
X523328Y653954D01*
X523078Y653938D01*
X522827Y653929D01*
X522762Y653918D01*
X522697Y653914D01*
X522451Y653867D01*
X522204Y653826D01*
X522141Y653807D01*
X522076Y653795D01*
X521838Y653717D01*
X521598Y653645D01*
X521538Y653619D01*
X521475Y653598D01*
X521249Y653491D01*
X521020Y653390D01*
X520964Y653356D01*
X520904Y653328D01*
X520692Y653192D01*
X520479Y653063D01*
X520427Y653022D01*
X520372Y652987D01*
X520179Y652826D01*
X519983Y652671D01*
X519937Y652624D01*
X519887Y652582D01*
X519716Y652398D01*
X519541Y652219D01*
X519501Y652167D01*
X519457Y652118D01*
X519311Y651915D01*
X519159Y651715D01*
X519127Y651658D01*
X519088Y651605D01*
X518969Y651384D01*
X518844Y651167D01*
X518819Y651106D01*
X518788Y651049D01*
X518698Y650815D01*
X518601Y650584D01*
X518584Y650520D01*
X518560Y650459D01*
X518500Y650216D01*
X518433Y649974D01*
X518424Y649909D01*
X518408Y649845D01*
X518379Y649597D01*
X518344Y649349D01*
X518343Y649283D01*
X518335Y649218D01*
X518338Y648968D01*
X518334Y648716D01*
X518341Y648651D01*
X518342Y648585D01*
X518376Y648337D01*
X518404Y648088D01*
X518420Y648025D01*
X518429Y647959D01*
X518494Y647717D01*
X518553Y647474D01*
X518576Y647413D01*
X518593Y647349D01*
X518688Y647118D01*
X518778Y646883D01*
X518809Y646825D01*
X518834Y646765D01*
X518958Y646547D01*
X519076Y646326D01*
X519114Y646272D01*
X519146Y646215D01*
X519297Y646014D01*
X519441Y645810D01*
X519491Y645755D01*
X519525Y645710D01*
X519525Y637206D01*
X519536Y637021D01*
X519538Y636836D01*
X519556Y636706D01*
X519565Y636575D01*
X519600Y636394D01*
X519625Y636210D01*
X519659Y636084D01*
X519684Y635954D01*
X519742Y635778D01*
X519790Y635600D01*
X519840Y635479D01*
X519881Y635354D01*
X519960Y635186D01*
X520030Y635016D01*
X520095Y634901D01*
X520151Y634783D01*
X520251Y634627D01*
X520342Y634466D01*
X520421Y634361D01*
X520492Y634250D01*
X520611Y634108D01*
X520722Y633960D01*
X520813Y633866D01*
X520897Y633765D01*
X521033Y633639D01*
X521162Y633506D01*
X521264Y633424D01*
X521361Y633335D01*
X521511Y633227D01*
X521655Y633112D01*
X521768Y633043D01*
X521874Y632967D01*
X522037Y632879D01*
X522195Y632782D01*
X522315Y632729D01*
X522430Y632666D01*
X522603Y632600D01*
X522772Y632524D01*
X522897Y632486D01*
X523020Y632438D01*
X523200Y632394D01*
X523377Y632340D01*
X523506Y632318D01*
X523634Y632287D01*
X523817Y632265D01*
X524000Y632234D01*
X524153Y632226D01*
X524261Y632214D01*
X524370Y632215D01*
X524524Y632207D01*
X539576Y632207D01*
X539761Y632218D01*
G37*
G36*
X1025006Y425318D02*
X1025006Y425318D01*
X1025259Y425321D01*
X1025321Y425330D01*
X1025383Y425332D01*
X1025634Y425373D01*
X1025886Y425408D01*
X1025945Y425424D01*
X1026007Y425434D01*
X1026251Y425506D01*
X1026496Y425572D01*
X1026553Y425596D01*
X1026613Y425614D01*
X1026845Y425716D01*
X1027080Y425813D01*
X1027134Y425844D01*
X1027191Y425869D01*
X1027409Y426000D01*
X1027630Y426125D01*
X1027680Y426162D01*
X1027733Y426195D01*
X1027932Y426352D01*
X1028136Y426504D01*
X1028180Y426548D01*
X1028229Y426586D01*
X1028407Y426767D01*
X1028589Y426944D01*
X1028628Y426993D01*
X1028672Y427037D01*
X1028825Y427239D01*
X1028984Y427438D01*
X1029017Y427491D01*
X1029054Y427541D01*
X1029181Y427760D01*
X1029313Y427978D01*
X1029339Y428034D01*
X1029370Y428088D01*
X1029547Y428498D01*
X1029572Y428554D01*
X1029572Y428555D01*
X1029574Y428562D01*
X1029578Y428570D01*
X1029578Y428571D01*
X1029666Y428864D01*
X1029756Y429160D01*
X1029757Y429168D01*
X1029760Y429177D01*
X1029810Y429478D01*
X1029862Y429783D01*
X1029862Y429793D01*
X1029864Y429800D01*
X1029866Y429861D01*
X1029889Y430307D01*
X1029889Y432183D01*
X1030053Y432214D01*
X1030166Y432251D01*
X1030282Y432279D01*
X1030466Y432349D01*
X1030654Y432411D01*
X1030762Y432462D01*
X1030873Y432504D01*
X1031047Y432597D01*
X1031225Y432681D01*
X1031325Y432746D01*
X1031431Y432802D01*
X1031591Y432916D01*
X1031757Y433022D01*
X1031849Y433099D01*
X1031946Y433168D01*
X1032135Y433338D01*
X1032242Y433427D01*
X1032281Y433470D01*
X1032336Y433519D01*
X1036125Y437308D01*
X1036204Y437397D01*
X1036290Y437480D01*
X1036413Y437634D01*
X1036543Y437782D01*
X1036610Y437881D01*
X1036684Y437974D01*
X1036787Y438142D01*
X1036897Y438305D01*
X1036951Y438412D01*
X1037014Y438514D01*
X1037094Y438693D01*
X1037183Y438869D01*
X1037223Y438982D01*
X1037272Y439090D01*
X1037329Y439279D01*
X1037396Y439464D01*
X1037421Y439581D01*
X1037456Y439695D01*
X1037489Y439890D01*
X1037531Y440082D01*
X1037542Y440200D01*
X1037562Y440318D01*
X1037575Y440572D01*
X1037588Y440711D01*
X1037585Y440769D01*
X1037589Y440843D01*
X1037589Y454146D01*
X1037580Y454297D01*
X1037580Y454450D01*
X1037576Y454484D01*
X1037576Y454502D01*
X1037559Y454621D01*
X1037549Y454776D01*
X1037521Y454926D01*
X1037502Y455077D01*
X1037490Y455124D01*
X1037489Y455128D01*
X1037481Y455159D01*
X1037461Y455236D01*
X1037430Y455397D01*
X1037383Y455542D01*
X1037345Y455689D01*
X1037285Y455842D01*
X1037233Y455998D01*
X1037168Y456136D01*
X1037112Y456277D01*
X1037033Y456420D01*
X1036963Y456569D01*
X1036880Y456697D01*
X1036807Y456830D01*
X1036710Y456963D01*
X1036622Y457101D01*
X1036524Y457218D01*
X1036435Y457341D01*
X1036322Y457461D01*
X1036217Y457586D01*
X1036105Y457690D01*
X1036001Y457801D01*
X1035874Y457905D01*
X1035753Y458017D01*
X1035630Y458105D01*
X1035512Y458202D01*
X1035373Y458289D01*
X1035240Y458385D01*
X1035106Y458457D01*
X1034977Y458538D01*
X1034797Y458624D01*
X1034684Y458685D01*
X1034605Y458716D01*
X1034503Y458764D01*
X1031419Y460042D01*
X1026441Y465019D01*
X1026417Y465041D01*
X1026395Y465065D01*
X1026180Y465250D01*
X1025967Y465437D01*
X1025940Y465455D01*
X1025916Y465476D01*
X1025679Y465632D01*
X1025444Y465792D01*
X1025415Y465806D01*
X1025388Y465824D01*
X1025133Y465949D01*
X1024880Y466078D01*
X1024849Y466088D01*
X1024820Y466103D01*
X1024551Y466195D01*
X1024284Y466290D01*
X1024253Y466297D01*
X1024222Y466307D01*
X1023944Y466365D01*
X1023667Y466425D01*
X1023635Y466428D01*
X1023603Y466435D01*
X1023320Y466457D01*
X1023037Y466482D01*
X1023005Y466481D01*
X1022973Y466483D01*
X1022689Y466469D01*
X1022406Y466459D01*
X1022374Y466453D01*
X1022342Y466452D01*
X1022062Y466402D01*
X1021782Y466356D01*
X1021751Y466346D01*
X1021720Y466341D01*
X1021448Y466256D01*
X1021176Y466175D01*
X1021147Y466162D01*
X1021116Y466152D01*
X1020637Y465939D01*
X1019900Y465564D01*
X1019147Y465319D01*
X1019087Y465295D01*
X1019024Y465277D01*
X1018793Y465179D01*
X1018560Y465086D01*
X1018503Y465055D01*
X1018443Y465029D01*
X1018226Y464902D01*
X1018006Y464781D01*
X1017954Y464743D01*
X1017898Y464710D01*
X1017699Y464556D01*
X1017496Y464408D01*
X1017448Y464363D01*
X1017397Y464324D01*
X1017219Y464147D01*
X1017036Y463974D01*
X1016995Y463924D01*
X1016949Y463878D01*
X1016795Y463680D01*
X1016635Y463486D01*
X1016601Y463431D01*
X1016561Y463379D01*
X1016433Y463163D01*
X1016299Y462950D01*
X1016272Y462891D01*
X1016238Y462835D01*
X1016139Y462604D01*
X1016033Y462377D01*
X1016013Y462315D01*
X1015988Y462255D01*
X1015918Y462014D01*
X1015842Y461775D01*
X1015830Y461711D01*
X1015812Y461648D01*
X1015773Y461400D01*
X1015728Y461153D01*
X1015724Y461088D01*
X1015714Y461023D01*
X1015707Y460773D01*
X1015693Y460522D01*
X1015698Y460457D01*
X1015696Y460392D01*
X1015721Y460142D01*
X1015739Y459891D01*
X1015751Y459827D01*
X1015758Y459763D01*
X1015813Y459518D01*
X1015863Y459271D01*
X1015884Y459210D01*
X1015898Y459146D01*
X1016041Y458744D01*
X1016065Y458672D01*
X1016069Y458663D01*
X1016074Y458651D01*
X1017856Y454349D01*
X1017856Y437054D01*
X1017868Y436869D01*
X1017870Y436684D01*
X1017888Y436554D01*
X1017896Y436423D01*
X1017931Y436242D01*
X1017956Y436058D01*
X1017990Y435932D01*
X1018015Y435802D01*
X1018073Y435626D01*
X1018121Y435448D01*
X1018171Y435327D01*
X1018212Y435202D01*
X1018291Y435034D01*
X1018361Y434864D01*
X1018426Y434749D01*
X1018483Y434631D01*
X1018582Y434475D01*
X1018674Y434314D01*
X1018752Y434209D01*
X1018823Y434098D01*
X1018942Y433956D01*
X1019053Y433808D01*
X1019144Y433714D01*
X1019228Y433613D01*
X1019364Y433487D01*
X1019493Y433354D01*
X1019595Y433272D01*
X1019692Y433183D01*
X1019842Y433075D01*
X1019891Y433036D01*
X1019891Y430307D01*
X1019895Y430245D01*
X1019892Y430182D01*
X1019915Y429929D01*
X1019931Y429676D01*
X1019942Y429615D01*
X1019948Y429553D01*
X1020002Y429305D01*
X1020050Y429055D01*
X1020069Y428996D01*
X1020082Y428935D01*
X1020167Y428696D01*
X1020246Y428454D01*
X1020273Y428398D01*
X1020294Y428339D01*
X1020408Y428113D01*
X1020517Y427883D01*
X1020551Y427831D01*
X1020579Y427775D01*
X1020721Y427565D01*
X1020858Y427351D01*
X1020898Y427303D01*
X1020933Y427251D01*
X1021101Y427060D01*
X1021263Y426866D01*
X1021309Y426823D01*
X1021350Y426777D01*
X1021540Y426608D01*
X1021726Y426436D01*
X1021777Y426399D01*
X1021824Y426358D01*
X1022034Y426215D01*
X1022240Y426067D01*
X1022295Y426038D01*
X1022346Y426003D01*
X1022573Y425887D01*
X1022796Y425767D01*
X1022854Y425744D01*
X1022910Y425716D01*
X1023149Y425630D01*
X1023386Y425539D01*
X1023446Y425524D01*
X1023505Y425503D01*
X1023753Y425448D01*
X1023999Y425387D01*
X1024061Y425380D01*
X1024122Y425367D01*
X1024376Y425344D01*
X1024627Y425314D01*
X1024689Y425315D01*
X1024751Y425309D01*
X1025006Y425318D01*
G37*
G36*
X576687Y653143D02*
X576687Y653143D01*
X576949Y653146D01*
X577002Y653153D01*
X577056Y653155D01*
X577315Y653196D01*
X577576Y653232D01*
X577627Y653246D01*
X577680Y653255D01*
X577932Y653329D01*
X578186Y653397D01*
X578235Y653417D01*
X578286Y653432D01*
X578528Y653538D01*
X578770Y653638D01*
X578817Y653664D01*
X578866Y653685D01*
X579091Y653820D01*
X579320Y653950D01*
X579363Y653982D01*
X579408Y654009D01*
X579615Y654171D01*
X579826Y654329D01*
X579864Y654366D01*
X579906Y654399D01*
X580279Y654768D01*
X580279Y654769D01*
X580280Y654769D01*
X580458Y654993D01*
X580674Y655262D01*
X580674Y655263D01*
X580806Y655478D01*
X581003Y655802D01*
X581004Y655802D01*
X581004Y655803D01*
X581139Y656104D01*
X581262Y656379D01*
X581369Y656731D01*
X581446Y656984D01*
X581504Y657327D01*
X581552Y657607D01*
X581579Y658132D01*
X581579Y666831D01*
X582396Y666831D01*
X582686Y666849D01*
X582977Y666864D01*
X583002Y666869D01*
X583027Y666871D01*
X583313Y666925D01*
X583599Y666977D01*
X583623Y666985D01*
X583648Y666990D01*
X583925Y667081D01*
X584201Y667168D01*
X584224Y667179D01*
X584248Y667186D01*
X584512Y667311D01*
X584775Y667433D01*
X584797Y667446D01*
X584820Y667457D01*
X585066Y667615D01*
X585311Y667768D01*
X585331Y667784D01*
X585352Y667798D01*
X585576Y667985D01*
X585800Y668169D01*
X585818Y668187D01*
X585837Y668203D01*
X586035Y668416D01*
X586235Y668627D01*
X586250Y668648D01*
X586267Y668666D01*
X586437Y668903D01*
X586608Y669137D01*
X586622Y669162D01*
X586635Y669180D01*
X586690Y669281D01*
X586868Y669594D01*
X586899Y669667D01*
X586931Y669727D01*
X586936Y669737D01*
X587022Y669958D01*
X587114Y670177D01*
X587136Y670252D01*
X587164Y670326D01*
X587221Y670557D01*
X587285Y670785D01*
X587297Y670863D01*
X587316Y670940D01*
X587343Y671175D01*
X587378Y671410D01*
X587380Y671489D01*
X587389Y671568D01*
X587386Y671805D01*
X587391Y672042D01*
X587383Y672121D01*
X587382Y672200D01*
X587349Y672435D01*
X587324Y672671D01*
X587306Y672748D01*
X587295Y672826D01*
X587234Y673055D01*
X587179Y673286D01*
X587151Y673360D01*
X587131Y673436D01*
X587040Y673655D01*
X586957Y673878D01*
X586920Y673948D01*
X586890Y674021D01*
X586773Y674227D01*
X586662Y674437D01*
X586617Y674502D01*
X586578Y674570D01*
X586436Y674760D01*
X586299Y674954D01*
X586246Y675013D01*
X586199Y675076D01*
X586034Y675246D01*
X585874Y675422D01*
X585814Y675473D01*
X585759Y675530D01*
X585573Y675678D01*
X585393Y675832D01*
X585327Y675875D01*
X585265Y675924D01*
X585062Y676048D01*
X584864Y676178D01*
X584793Y676213D01*
X584725Y676254D01*
X584509Y676351D01*
X584295Y676455D01*
X584221Y676480D01*
X584149Y676512D01*
X583921Y676581D01*
X583697Y676657D01*
X583619Y676673D01*
X583544Y676696D01*
X583309Y676736D01*
X583077Y676783D01*
X582999Y676789D01*
X582921Y676802D01*
X582562Y676821D01*
X582447Y676829D01*
X582424Y676828D01*
X582396Y676829D01*
X576580Y676829D01*
X576396Y676818D01*
X576211Y676816D01*
X576081Y676798D01*
X575950Y676789D01*
X575768Y676755D01*
X575585Y676729D01*
X575458Y676695D01*
X575329Y676670D01*
X575153Y676613D01*
X574974Y676564D01*
X574853Y676515D01*
X574728Y676474D01*
X574561Y676394D01*
X574390Y676324D01*
X574276Y676259D01*
X574157Y676203D01*
X574001Y676103D01*
X573840Y676012D01*
X573735Y675933D01*
X573625Y675862D01*
X573482Y675743D01*
X573335Y675632D01*
X573334Y675632D01*
X573240Y675541D01*
X573139Y675457D01*
X573139Y675456D01*
X573013Y675321D01*
X572880Y675192D01*
X572798Y675089D01*
X572709Y674993D01*
X572601Y674843D01*
X572486Y674698D01*
X572417Y674586D01*
X572341Y674479D01*
X572253Y674317D01*
X572156Y674159D01*
X572102Y674039D01*
X572040Y673923D01*
X571973Y673751D01*
X571898Y673582D01*
X571860Y673456D01*
X571812Y673334D01*
X571768Y673154D01*
X571714Y672977D01*
X571692Y672847D01*
X571661Y672720D01*
X571639Y672537D01*
X571608Y672354D01*
X571600Y672200D01*
X571587Y672092D01*
X571589Y671983D01*
X571581Y671830D01*
X571581Y658131D01*
X571584Y658078D01*
X571582Y658025D01*
X571604Y657762D01*
X571621Y657501D01*
X571631Y657448D01*
X571635Y657395D01*
X571690Y657138D01*
X571740Y656880D01*
X571756Y656829D01*
X571768Y656777D01*
X571855Y656529D01*
X571936Y656279D01*
X571959Y656231D01*
X571977Y656181D01*
X572094Y655946D01*
X572207Y655708D01*
X572236Y655663D01*
X572260Y655615D01*
X572406Y655398D01*
X572548Y655176D01*
X572582Y655134D01*
X572612Y655090D01*
X572784Y654893D01*
X572953Y654690D01*
X572992Y654654D01*
X573027Y654614D01*
X573224Y654439D01*
X573416Y654260D01*
X573460Y654229D01*
X573500Y654194D01*
X573717Y654045D01*
X573930Y653892D01*
X573977Y653867D01*
X574021Y653837D01*
X574255Y653716D01*
X574486Y653592D01*
X574536Y653572D01*
X574583Y653548D01*
X574830Y653459D01*
X575076Y653364D01*
X575128Y653351D01*
X575178Y653333D01*
X575435Y653275D01*
X575689Y653212D01*
X575742Y653206D01*
X575794Y653194D01*
X576057Y653169D01*
X576317Y653139D01*
X576371Y653140D01*
X576424Y653135D01*
X576687Y653143D01*
G37*
%LPC*%
G36*
X461437Y360599D02*
X461437Y360599D01*
X461437Y376907D01*
X461955Y376693D01*
X463368Y375877D01*
X464662Y374884D01*
X465816Y373730D01*
X466809Y372436D01*
X467625Y371023D01*
X468249Y369516D01*
X468672Y367939D01*
X468885Y366322D01*
X468885Y360599D01*
X461437Y360599D01*
G37*
%LPD*%
%LPC*%
G36*
X461437Y350601D02*
X461437Y350601D01*
X468885Y350601D01*
X468885Y344878D01*
X468672Y343261D01*
X468249Y341684D01*
X467625Y340177D01*
X466809Y338764D01*
X465816Y337470D01*
X464662Y336316D01*
X463368Y335323D01*
X461955Y334507D01*
X461437Y334293D01*
X461437Y350601D01*
G37*
%LPD*%
%LPC*%
G36*
X443991Y360599D02*
X443991Y360599D01*
X443991Y366322D01*
X444204Y367939D01*
X444627Y369516D01*
X445251Y371023D01*
X446067Y372436D01*
X447060Y373730D01*
X448214Y374884D01*
X449508Y375877D01*
X450921Y376693D01*
X451439Y376907D01*
X451439Y360599D01*
X443991Y360599D01*
G37*
%LPD*%
%LPC*%
G36*
X450921Y334507D02*
X450921Y334507D01*
X449508Y335323D01*
X448214Y336316D01*
X447060Y337470D01*
X446067Y338764D01*
X445251Y340177D01*
X444627Y341684D01*
X444204Y343261D01*
X443991Y344878D01*
X443991Y350601D01*
X451439Y350601D01*
X451439Y334293D01*
X450921Y334507D01*
G37*
%LPD*%
%LPC*%
G36*
X361869Y367253D02*
X361869Y367253D01*
X361850Y367558D01*
X361830Y367879D01*
X361830Y367882D01*
X361829Y367884D01*
X361774Y368173D01*
X361711Y368500D01*
X361711Y368502D01*
X361710Y368505D01*
X361616Y368791D01*
X361515Y369101D01*
X361514Y369103D01*
X361514Y369106D01*
X361383Y369380D01*
X361255Y369651D01*
X364803Y369651D01*
X361869Y366717D01*
X361869Y367253D01*
G37*
%LPD*%
%LPC*%
G36*
X606979Y432989D02*
X606979Y432989D01*
X606979Y435923D01*
X609913Y432989D01*
X606979Y432989D01*
G37*
%LPD*%
%LPC*%
G36*
X366949Y337739D02*
X366949Y337739D01*
X366949Y340673D01*
X369883Y337739D01*
X366949Y337739D01*
G37*
%LPD*%
%LPC*%
G36*
X594047Y432989D02*
X594047Y432989D01*
X596981Y435923D01*
X596981Y432989D01*
X594047Y432989D01*
G37*
%LPD*%
D10*
X888492Y686308D02*
X888492Y699516D01*
X884823Y699516D01*
X884703Y699514D01*
X884583Y699508D01*
X884463Y699498D01*
X884344Y699485D01*
X884225Y699467D01*
X884107Y699446D01*
X883990Y699420D01*
X883873Y699391D01*
X883758Y699358D01*
X883644Y699321D01*
X883531Y699281D01*
X883419Y699237D01*
X883309Y699189D01*
X883200Y699138D01*
X883093Y699083D01*
X882989Y699024D01*
X882886Y698963D01*
X882785Y698898D01*
X882686Y698829D01*
X882589Y698758D01*
X882495Y698683D01*
X882404Y698606D01*
X882315Y698525D01*
X882229Y698441D01*
X882145Y698355D01*
X882064Y698266D01*
X881987Y698175D01*
X881912Y698081D01*
X881841Y697984D01*
X881772Y697885D01*
X881707Y697784D01*
X881646Y697682D01*
X881587Y697577D01*
X881532Y697470D01*
X881481Y697361D01*
X881433Y697251D01*
X881389Y697139D01*
X881349Y697026D01*
X881312Y696912D01*
X881279Y696797D01*
X881250Y696680D01*
X881224Y696563D01*
X881203Y696445D01*
X881185Y696326D01*
X881172Y696207D01*
X881162Y696087D01*
X881156Y695967D01*
X881154Y695847D01*
X881154Y689977D01*
X881156Y689857D01*
X881162Y689737D01*
X881172Y689617D01*
X881185Y689498D01*
X881203Y689379D01*
X881224Y689261D01*
X881250Y689144D01*
X881279Y689027D01*
X881312Y688912D01*
X881349Y688798D01*
X881389Y688685D01*
X881433Y688573D01*
X881481Y688463D01*
X881532Y688354D01*
X881587Y688247D01*
X881646Y688143D01*
X881707Y688040D01*
X881772Y687939D01*
X881841Y687840D01*
X881912Y687743D01*
X881987Y687649D01*
X882064Y687558D01*
X882145Y687469D01*
X882229Y687383D01*
X882315Y687299D01*
X882404Y687218D01*
X882495Y687141D01*
X882589Y687066D01*
X882686Y686995D01*
X882785Y686926D01*
X882886Y686861D01*
X882989Y686800D01*
X883093Y686741D01*
X883200Y686686D01*
X883309Y686635D01*
X883419Y686587D01*
X883531Y686543D01*
X883644Y686503D01*
X883758Y686466D01*
X883873Y686433D01*
X883990Y686404D01*
X884107Y686378D01*
X884225Y686357D01*
X884344Y686339D01*
X884463Y686326D01*
X884583Y686316D01*
X884703Y686310D01*
X884823Y686308D01*
X888492Y686308D01*
X874155Y686308D02*
X874155Y699516D01*
X875623Y686308D02*
X872688Y686308D01*
X872688Y699516D02*
X875623Y699516D01*
X867078Y699516D02*
X867078Y686308D01*
X867078Y699516D02*
X863409Y699516D01*
X863289Y699514D01*
X863169Y699508D01*
X863049Y699498D01*
X862930Y699485D01*
X862811Y699467D01*
X862693Y699446D01*
X862576Y699420D01*
X862459Y699391D01*
X862344Y699358D01*
X862230Y699321D01*
X862117Y699281D01*
X862005Y699237D01*
X861895Y699189D01*
X861786Y699138D01*
X861679Y699083D01*
X861575Y699024D01*
X861472Y698963D01*
X861371Y698898D01*
X861272Y698829D01*
X861175Y698758D01*
X861081Y698683D01*
X860990Y698606D01*
X860901Y698525D01*
X860815Y698441D01*
X860731Y698355D01*
X860650Y698266D01*
X860573Y698175D01*
X860498Y698081D01*
X860427Y697984D01*
X860358Y697885D01*
X860293Y697784D01*
X860232Y697682D01*
X860173Y697577D01*
X860118Y697470D01*
X860067Y697361D01*
X860019Y697251D01*
X859975Y697139D01*
X859935Y697026D01*
X859898Y696912D01*
X859865Y696797D01*
X859836Y696680D01*
X859810Y696563D01*
X859789Y696445D01*
X859771Y696326D01*
X859758Y696207D01*
X859748Y696087D01*
X859742Y695967D01*
X859740Y695847D01*
X859742Y695727D01*
X859748Y695607D01*
X859758Y695487D01*
X859771Y695368D01*
X859789Y695249D01*
X859810Y695131D01*
X859836Y695014D01*
X859865Y694897D01*
X859898Y694782D01*
X859935Y694668D01*
X859975Y694555D01*
X860019Y694443D01*
X860067Y694333D01*
X860118Y694224D01*
X860173Y694117D01*
X860232Y694013D01*
X860293Y693910D01*
X860358Y693809D01*
X860427Y693710D01*
X860498Y693613D01*
X860573Y693519D01*
X860650Y693428D01*
X860731Y693339D01*
X860815Y693253D01*
X860901Y693169D01*
X860990Y693088D01*
X861081Y693011D01*
X861175Y692936D01*
X861272Y692865D01*
X861371Y692796D01*
X861472Y692731D01*
X861575Y692670D01*
X861679Y692611D01*
X861786Y692556D01*
X861895Y692505D01*
X862005Y692457D01*
X862117Y692413D01*
X862230Y692373D01*
X862344Y692336D01*
X862459Y692303D01*
X862576Y692274D01*
X862693Y692248D01*
X862811Y692227D01*
X862930Y692209D01*
X863049Y692196D01*
X863169Y692186D01*
X863289Y692180D01*
X863409Y692178D01*
X867078Y692178D01*
X862675Y692178D02*
X859740Y686308D01*
X723392Y686308D02*
X723392Y699516D01*
X719723Y699516D01*
X719603Y699514D01*
X719483Y699508D01*
X719363Y699498D01*
X719244Y699485D01*
X719125Y699467D01*
X719007Y699446D01*
X718890Y699420D01*
X718773Y699391D01*
X718658Y699358D01*
X718544Y699321D01*
X718431Y699281D01*
X718319Y699237D01*
X718209Y699189D01*
X718100Y699138D01*
X717993Y699083D01*
X717889Y699024D01*
X717786Y698963D01*
X717685Y698898D01*
X717586Y698829D01*
X717489Y698758D01*
X717395Y698683D01*
X717304Y698606D01*
X717215Y698525D01*
X717129Y698441D01*
X717045Y698355D01*
X716964Y698266D01*
X716887Y698175D01*
X716812Y698081D01*
X716741Y697984D01*
X716672Y697885D01*
X716607Y697784D01*
X716546Y697682D01*
X716487Y697577D01*
X716432Y697470D01*
X716381Y697361D01*
X716333Y697251D01*
X716289Y697139D01*
X716249Y697026D01*
X716212Y696912D01*
X716179Y696797D01*
X716150Y696680D01*
X716124Y696563D01*
X716103Y696445D01*
X716085Y696326D01*
X716072Y696207D01*
X716062Y696087D01*
X716056Y695967D01*
X716054Y695847D01*
X716054Y689977D01*
X716056Y689857D01*
X716062Y689737D01*
X716072Y689617D01*
X716085Y689498D01*
X716103Y689379D01*
X716124Y689261D01*
X716150Y689144D01*
X716179Y689027D01*
X716212Y688912D01*
X716249Y688798D01*
X716289Y688685D01*
X716333Y688573D01*
X716381Y688463D01*
X716432Y688354D01*
X716487Y688247D01*
X716546Y688143D01*
X716607Y688040D01*
X716672Y687939D01*
X716741Y687840D01*
X716812Y687743D01*
X716887Y687649D01*
X716964Y687558D01*
X717045Y687469D01*
X717129Y687383D01*
X717215Y687299D01*
X717304Y687218D01*
X717395Y687141D01*
X717489Y687066D01*
X717586Y686995D01*
X717685Y686926D01*
X717786Y686861D01*
X717889Y686800D01*
X717993Y686741D01*
X718100Y686686D01*
X718209Y686635D01*
X718319Y686587D01*
X718431Y686543D01*
X718544Y686503D01*
X718658Y686466D01*
X718773Y686433D01*
X718890Y686404D01*
X719007Y686378D01*
X719125Y686357D01*
X719244Y686339D01*
X719363Y686326D01*
X719483Y686316D01*
X719603Y686310D01*
X719723Y686308D01*
X723392Y686308D01*
X709055Y686308D02*
X709055Y699516D01*
X710523Y686308D02*
X707588Y686308D01*
X707588Y699516D02*
X710523Y699516D01*
X701978Y699516D02*
X701978Y686308D01*
X701978Y699516D02*
X698309Y699516D01*
X698189Y699514D01*
X698069Y699508D01*
X697949Y699498D01*
X697830Y699485D01*
X697711Y699467D01*
X697593Y699446D01*
X697476Y699420D01*
X697359Y699391D01*
X697244Y699358D01*
X697130Y699321D01*
X697017Y699281D01*
X696905Y699237D01*
X696795Y699189D01*
X696686Y699138D01*
X696579Y699083D01*
X696475Y699024D01*
X696372Y698963D01*
X696271Y698898D01*
X696172Y698829D01*
X696075Y698758D01*
X695981Y698683D01*
X695890Y698606D01*
X695801Y698525D01*
X695715Y698441D01*
X695631Y698355D01*
X695550Y698266D01*
X695473Y698175D01*
X695398Y698081D01*
X695327Y697984D01*
X695258Y697885D01*
X695193Y697784D01*
X695132Y697682D01*
X695073Y697577D01*
X695018Y697470D01*
X694967Y697361D01*
X694919Y697251D01*
X694875Y697139D01*
X694835Y697026D01*
X694798Y696912D01*
X694765Y696797D01*
X694736Y696680D01*
X694710Y696563D01*
X694689Y696445D01*
X694671Y696326D01*
X694658Y696207D01*
X694648Y696087D01*
X694642Y695967D01*
X694640Y695847D01*
X694642Y695727D01*
X694648Y695607D01*
X694658Y695487D01*
X694671Y695368D01*
X694689Y695249D01*
X694710Y695131D01*
X694736Y695014D01*
X694765Y694897D01*
X694798Y694782D01*
X694835Y694668D01*
X694875Y694555D01*
X694919Y694443D01*
X694967Y694333D01*
X695018Y694224D01*
X695073Y694117D01*
X695132Y694013D01*
X695193Y693910D01*
X695258Y693809D01*
X695327Y693710D01*
X695398Y693613D01*
X695473Y693519D01*
X695550Y693428D01*
X695631Y693339D01*
X695715Y693253D01*
X695801Y693169D01*
X695890Y693088D01*
X695981Y693011D01*
X696075Y692936D01*
X696172Y692865D01*
X696271Y692796D01*
X696372Y692731D01*
X696475Y692670D01*
X696579Y692611D01*
X696686Y692556D01*
X696795Y692505D01*
X696905Y692457D01*
X697017Y692413D01*
X697130Y692373D01*
X697244Y692336D01*
X697359Y692303D01*
X697476Y692274D01*
X697593Y692248D01*
X697711Y692227D01*
X697830Y692209D01*
X697949Y692196D01*
X698069Y692186D01*
X698189Y692180D01*
X698309Y692178D01*
X701978Y692178D01*
X697575Y692178D02*
X694640Y686308D01*
D11*
X1217676Y315976D02*
X1217676Y280924D01*
X1217676Y300397D02*
X1198203Y300397D01*
X1198203Y315976D02*
X1198203Y280924D01*
X1187196Y290661D02*
X1187196Y315976D01*
X1187196Y290661D02*
X1187193Y290424D01*
X1187184Y290187D01*
X1187170Y289950D01*
X1187150Y289714D01*
X1187124Y289478D01*
X1187092Y289243D01*
X1187055Y289009D01*
X1187012Y288776D01*
X1186963Y288544D01*
X1186909Y288313D01*
X1186849Y288084D01*
X1186783Y287856D01*
X1186712Y287630D01*
X1186636Y287405D01*
X1186554Y287183D01*
X1186466Y286962D01*
X1186373Y286744D01*
X1186275Y286528D01*
X1186172Y286315D01*
X1186064Y286104D01*
X1185950Y285896D01*
X1185832Y285690D01*
X1185708Y285488D01*
X1185580Y285288D01*
X1185446Y285092D01*
X1185308Y284899D01*
X1185166Y284710D01*
X1185019Y284524D01*
X1184867Y284342D01*
X1184711Y284163D01*
X1184550Y283989D01*
X1184386Y283818D01*
X1184217Y283651D01*
X1184045Y283489D01*
X1183868Y283331D01*
X1183687Y283177D01*
X1183503Y283027D01*
X1183316Y282882D01*
X1183125Y282742D01*
X1182930Y282606D01*
X1182732Y282476D01*
X1182531Y282350D01*
X1182328Y282229D01*
X1182121Y282112D01*
X1181911Y282001D01*
X1181699Y281896D01*
X1181484Y281795D01*
X1181267Y281700D01*
X1181048Y281610D01*
X1180826Y281525D01*
X1180603Y281446D01*
X1180378Y281372D01*
X1180150Y281303D01*
X1179922Y281241D01*
X1179692Y281183D01*
X1179460Y281132D01*
X1179228Y281086D01*
X1178994Y281046D01*
X1178759Y281011D01*
X1178524Y280982D01*
X1178288Y280959D01*
X1178051Y280942D01*
X1177815Y280930D01*
X1177578Y280925D01*
X1177340Y280925D01*
X1177103Y280930D01*
X1176867Y280942D01*
X1176630Y280959D01*
X1176394Y280982D01*
X1176159Y281011D01*
X1175924Y281046D01*
X1175690Y281086D01*
X1175458Y281132D01*
X1175226Y281183D01*
X1174996Y281241D01*
X1174768Y281303D01*
X1174540Y281372D01*
X1174315Y281446D01*
X1174092Y281525D01*
X1173870Y281610D01*
X1173651Y281700D01*
X1173434Y281795D01*
X1173219Y281896D01*
X1173007Y282001D01*
X1172797Y282112D01*
X1172591Y282229D01*
X1172387Y282350D01*
X1172186Y282476D01*
X1171988Y282606D01*
X1171793Y282742D01*
X1171602Y282882D01*
X1171415Y283027D01*
X1171231Y283177D01*
X1171050Y283331D01*
X1170873Y283489D01*
X1170701Y283651D01*
X1170532Y283818D01*
X1170368Y283989D01*
X1170207Y284163D01*
X1170051Y284342D01*
X1169899Y284524D01*
X1169752Y284710D01*
X1169610Y284899D01*
X1169472Y285092D01*
X1169338Y285288D01*
X1169210Y285488D01*
X1169086Y285690D01*
X1168968Y285896D01*
X1168854Y286104D01*
X1168746Y286315D01*
X1168643Y286528D01*
X1168545Y286744D01*
X1168452Y286962D01*
X1168364Y287183D01*
X1168282Y287405D01*
X1168206Y287630D01*
X1168135Y287856D01*
X1168069Y288084D01*
X1168009Y288313D01*
X1167955Y288544D01*
X1167906Y288776D01*
X1167863Y289009D01*
X1167826Y289243D01*
X1167794Y289478D01*
X1167768Y289714D01*
X1167748Y289950D01*
X1167734Y290187D01*
X1167725Y290424D01*
X1167722Y290661D01*
X1167723Y290661D02*
X1167723Y315976D01*
X1156758Y315976D02*
X1156758Y280924D01*
X1145074Y296503D02*
X1156758Y315976D01*
X1145074Y296503D02*
X1133390Y315976D01*
X1133390Y280924D01*
X1125326Y280924D02*
X1113642Y315976D01*
X1101958Y280924D01*
X1104879Y289687D02*
X1122405Y289687D01*
X1093851Y280924D02*
X1093851Y315976D01*
X1074378Y280924D01*
X1074378Y315976D01*
X1045803Y288713D02*
X1045805Y288525D01*
X1045812Y288337D01*
X1045823Y288149D01*
X1045839Y287961D01*
X1045860Y287774D01*
X1045885Y287588D01*
X1045914Y287402D01*
X1045948Y287217D01*
X1045987Y287032D01*
X1046029Y286849D01*
X1046077Y286667D01*
X1046128Y286486D01*
X1046184Y286306D01*
X1046245Y286128D01*
X1046309Y285951D01*
X1046378Y285776D01*
X1046451Y285602D01*
X1046528Y285431D01*
X1046610Y285261D01*
X1046695Y285093D01*
X1046785Y284928D01*
X1046878Y284764D01*
X1046975Y284603D01*
X1047077Y284445D01*
X1047182Y284288D01*
X1047291Y284135D01*
X1047403Y283984D01*
X1047519Y283836D01*
X1047639Y283690D01*
X1047762Y283548D01*
X1047888Y283409D01*
X1048018Y283272D01*
X1048151Y283139D01*
X1048288Y283009D01*
X1048427Y282883D01*
X1048569Y282760D01*
X1048715Y282640D01*
X1048863Y282524D01*
X1049014Y282412D01*
X1049167Y282303D01*
X1049324Y282198D01*
X1049482Y282096D01*
X1049643Y281999D01*
X1049807Y281906D01*
X1049972Y281816D01*
X1050140Y281731D01*
X1050310Y281649D01*
X1050481Y281572D01*
X1050655Y281499D01*
X1050830Y281430D01*
X1051007Y281366D01*
X1051185Y281305D01*
X1051365Y281249D01*
X1051546Y281198D01*
X1051728Y281150D01*
X1051911Y281108D01*
X1052096Y281069D01*
X1052281Y281035D01*
X1052467Y281006D01*
X1052653Y280981D01*
X1052840Y280960D01*
X1053028Y280944D01*
X1053216Y280933D01*
X1053404Y280926D01*
X1053592Y280924D01*
X1053986Y280929D01*
X1054379Y280943D01*
X1054772Y280966D01*
X1055164Y280999D01*
X1055556Y281042D01*
X1055946Y281093D01*
X1056335Y281154D01*
X1056723Y281225D01*
X1057108Y281304D01*
X1057492Y281393D01*
X1057873Y281491D01*
X1058252Y281598D01*
X1058628Y281714D01*
X1059001Y281839D01*
X1059372Y281972D01*
X1059739Y282115D01*
X1060102Y282267D01*
X1060462Y282427D01*
X1060818Y282595D01*
X1061169Y282772D01*
X1061516Y282958D01*
X1061859Y283152D01*
X1062197Y283353D01*
X1062530Y283563D01*
X1062858Y283781D01*
X1063181Y284007D01*
X1063498Y284240D01*
X1063810Y284481D01*
X1064115Y284729D01*
X1064415Y284984D01*
X1064708Y285247D01*
X1064995Y285516D01*
X1065276Y285792D01*
X1064302Y308187D02*
X1064300Y308375D01*
X1064293Y308563D01*
X1064282Y308751D01*
X1064266Y308939D01*
X1064245Y309126D01*
X1064220Y309312D01*
X1064191Y309498D01*
X1064157Y309683D01*
X1064118Y309868D01*
X1064076Y310051D01*
X1064028Y310233D01*
X1063977Y310414D01*
X1063921Y310594D01*
X1063860Y310772D01*
X1063796Y310949D01*
X1063727Y311124D01*
X1063654Y311298D01*
X1063577Y311469D01*
X1063495Y311639D01*
X1063410Y311807D01*
X1063320Y311972D01*
X1063227Y312136D01*
X1063130Y312297D01*
X1063028Y312455D01*
X1062923Y312612D01*
X1062814Y312765D01*
X1062702Y312916D01*
X1062586Y313064D01*
X1062466Y313210D01*
X1062343Y313352D01*
X1062217Y313491D01*
X1062087Y313628D01*
X1061954Y313761D01*
X1061817Y313891D01*
X1061678Y314017D01*
X1061536Y314140D01*
X1061390Y314260D01*
X1061242Y314376D01*
X1061091Y314488D01*
X1060938Y314597D01*
X1060781Y314702D01*
X1060623Y314804D01*
X1060462Y314901D01*
X1060298Y314994D01*
X1060133Y315084D01*
X1059965Y315169D01*
X1059795Y315251D01*
X1059624Y315328D01*
X1059450Y315401D01*
X1059275Y315470D01*
X1059098Y315534D01*
X1058920Y315595D01*
X1058740Y315651D01*
X1058559Y315702D01*
X1058377Y315750D01*
X1058194Y315792D01*
X1058009Y315831D01*
X1057824Y315865D01*
X1057638Y315894D01*
X1057452Y315919D01*
X1057265Y315940D01*
X1057077Y315956D01*
X1056889Y315967D01*
X1056701Y315974D01*
X1056513Y315976D01*
X1056165Y315972D01*
X1055817Y315959D01*
X1055470Y315939D01*
X1055123Y315910D01*
X1054777Y315872D01*
X1054432Y315827D01*
X1054088Y315773D01*
X1053745Y315711D01*
X1053404Y315641D01*
X1053065Y315563D01*
X1052728Y315477D01*
X1052393Y315383D01*
X1052060Y315281D01*
X1051730Y315170D01*
X1051402Y315053D01*
X1051078Y314927D01*
X1050756Y314794D01*
X1050438Y314653D01*
X1050123Y314504D01*
X1049812Y314348D01*
X1049505Y314185D01*
X1049201Y314014D01*
X1048902Y313836D01*
X1048607Y313651D01*
X1048317Y313459D01*
X1048031Y313261D01*
X1047750Y313055D01*
X1060407Y301371D02*
X1060571Y301470D01*
X1060732Y301573D01*
X1060890Y301680D01*
X1061046Y301790D01*
X1061199Y301905D01*
X1061349Y302023D01*
X1061497Y302144D01*
X1061641Y302269D01*
X1061782Y302398D01*
X1061921Y302530D01*
X1062056Y302665D01*
X1062187Y302803D01*
X1062316Y302945D01*
X1062440Y303089D01*
X1062562Y303237D01*
X1062679Y303387D01*
X1062794Y303540D01*
X1062904Y303696D01*
X1063010Y303855D01*
X1063113Y304016D01*
X1063212Y304179D01*
X1063307Y304345D01*
X1063397Y304513D01*
X1063484Y304684D01*
X1063566Y304856D01*
X1063645Y305030D01*
X1063719Y305206D01*
X1063789Y305384D01*
X1063854Y305563D01*
X1063915Y305744D01*
X1063972Y305927D01*
X1064025Y306110D01*
X1064072Y306295D01*
X1064116Y306481D01*
X1064155Y306668D01*
X1064189Y306856D01*
X1064219Y307045D01*
X1064244Y307234D01*
X1064265Y307424D01*
X1064281Y307614D01*
X1064293Y307805D01*
X1064300Y307996D01*
X1064302Y308187D01*
X1049698Y295529D02*
X1049534Y295430D01*
X1049373Y295327D01*
X1049215Y295220D01*
X1049059Y295110D01*
X1048906Y294995D01*
X1048756Y294877D01*
X1048608Y294756D01*
X1048464Y294631D01*
X1048323Y294502D01*
X1048184Y294370D01*
X1048049Y294235D01*
X1047918Y294097D01*
X1047789Y293955D01*
X1047665Y293811D01*
X1047543Y293663D01*
X1047426Y293513D01*
X1047311Y293360D01*
X1047201Y293204D01*
X1047095Y293045D01*
X1046992Y292884D01*
X1046893Y292721D01*
X1046798Y292555D01*
X1046708Y292387D01*
X1046621Y292216D01*
X1046539Y292044D01*
X1046460Y291870D01*
X1046386Y291694D01*
X1046316Y291516D01*
X1046251Y291337D01*
X1046190Y291156D01*
X1046133Y290973D01*
X1046080Y290790D01*
X1046033Y290605D01*
X1045989Y290419D01*
X1045950Y290232D01*
X1045916Y290044D01*
X1045886Y289855D01*
X1045861Y289666D01*
X1045840Y289476D01*
X1045824Y289286D01*
X1045812Y289095D01*
X1045805Y288904D01*
X1045803Y288713D01*
X1049697Y295529D02*
X1060408Y301371D01*
D12*
X774700Y398780D02*
X774700Y414020D01*
X749300Y414020D02*
X749300Y398780D01*
X723900Y398780D02*
X723900Y414020D01*
X698500Y414020D02*
X698500Y398780D01*
D13*
X406400Y603060D02*
X406400Y616140D01*
X381000Y616140D02*
X381000Y603060D01*
X355600Y603060D02*
X355600Y616140D01*
X330200Y616140D02*
X330200Y603060D01*
X304800Y603060D02*
X304800Y616140D01*
X279400Y616140D02*
X279400Y603060D01*
X254000Y603060D02*
X254000Y616140D01*
X228600Y616140D02*
X228600Y603060D01*
X203200Y603060D02*
X203200Y616140D01*
X177800Y616140D02*
X177800Y603060D01*
X152400Y603060D02*
X152400Y616140D01*
X127000Y616140D02*
X127000Y603060D01*
X406400Y463740D02*
X406400Y450660D01*
X381000Y450660D02*
X381000Y463740D01*
X355600Y463740D02*
X355600Y450660D01*
X203200Y450660D02*
X203200Y463740D01*
X177800Y463740D02*
X177800Y450660D01*
X152400Y450660D02*
X152400Y463740D01*
X127000Y463740D02*
X127000Y450660D01*
X50800Y450660D02*
X50800Y463740D01*
X50800Y603060D02*
X50800Y616140D01*
X76200Y616140D02*
X76200Y603060D01*
X101600Y603060D02*
X101600Y616140D01*
X76200Y463740D02*
X76200Y450660D01*
X101600Y450660D02*
X101600Y463740D01*
X330200Y463740D02*
X330200Y450660D01*
X228600Y450660D02*
X228600Y463740D01*
X254000Y463740D02*
X254000Y450660D01*
X279400Y450660D02*
X279400Y463740D01*
X304800Y463740D02*
X304800Y450660D01*
D12*
X1228090Y637540D02*
X1243330Y637540D01*
X1243330Y612140D02*
X1228090Y612140D01*
X1228090Y586740D02*
X1243330Y586740D01*
X1243330Y561340D02*
X1228090Y561340D01*
X1228090Y535940D02*
X1243330Y535940D01*
X1243330Y510540D02*
X1228090Y510540D01*
X1228090Y485140D02*
X1243330Y485140D01*
X1243330Y459740D02*
X1228090Y459740D01*
X825500Y640080D02*
X825500Y655320D01*
X800100Y655320D02*
X800100Y640080D01*
X774700Y640080D02*
X774700Y655320D01*
X749300Y655320D02*
X749300Y640080D01*
X723900Y640080D02*
X723900Y655320D01*
X698500Y655320D02*
X698500Y640080D01*
X673100Y640080D02*
X673100Y655320D01*
X647700Y655320D02*
X647700Y640080D01*
X825500Y490220D02*
X825500Y474980D01*
X800100Y474980D02*
X800100Y490220D01*
X774700Y490220D02*
X774700Y474980D01*
X749300Y474980D02*
X749300Y490220D01*
X723900Y490220D02*
X723900Y474980D01*
X698500Y474980D02*
X698500Y490220D01*
X673100Y490220D02*
X673100Y474980D01*
X647700Y474980D02*
X647700Y490220D01*
D14*
X506476Y365506D02*
X506476Y345694D01*
X456438Y345694D02*
X456438Y365506D01*
D12*
X1041400Y640080D02*
X1041400Y655320D01*
X1016000Y655320D02*
X1016000Y640080D01*
X990600Y640080D02*
X990600Y655320D01*
X965200Y655320D02*
X965200Y640080D01*
X939800Y640080D02*
X939800Y655320D01*
X914400Y655320D02*
X914400Y640080D01*
X889000Y640080D02*
X889000Y655320D01*
X863600Y655320D02*
X863600Y640080D01*
X1041400Y490220D02*
X1041400Y474980D01*
X1016000Y474980D02*
X1016000Y490220D01*
X990600Y490220D02*
X990600Y474980D01*
X965200Y474980D02*
X965200Y490220D01*
X939800Y490220D02*
X939800Y474980D01*
X914400Y474980D02*
X914400Y490220D01*
X889000Y490220D02*
X889000Y474980D01*
X863600Y474980D02*
X863600Y490220D01*
X990600Y414020D02*
X990600Y398780D01*
X965200Y398780D02*
X965200Y414020D01*
X939800Y414020D02*
X939800Y398780D01*
X914400Y398780D02*
X914400Y414020D01*
D15*
X801370Y715010D03*
X801370Y689610D03*
X775970Y715010D03*
X775970Y689610D03*
X750570Y715010D03*
X750570Y689610D03*
X1016000Y715010D03*
X1016000Y689610D03*
X990600Y715010D03*
X990600Y689610D03*
X965200Y715010D03*
X965200Y689610D03*
D12*
X414020Y355600D02*
X398780Y355600D01*
X398780Y381000D02*
X414020Y381000D01*
D16*
X500380Y671830D03*
D17*
X525780Y671830D03*
X551180Y671830D03*
D16*
X576580Y671830D03*
D17*
X576580Y697230D03*
X551180Y697230D03*
X525780Y697230D03*
X500380Y697230D03*
D18*
X502920Y638810D03*
X553720Y638810D03*
X152400Y647700D03*
X228600Y647700D03*
X473710Y734060D03*
X549910Y734060D03*
D12*
X50800Y660400D02*
X50800Y645160D01*
X76200Y645160D02*
X76200Y660400D01*
X101600Y660400D02*
X101600Y645160D01*
X127000Y645160D02*
X127000Y660400D01*
X50800Y425450D02*
X50800Y410210D01*
X76200Y410210D02*
X76200Y425450D01*
X101600Y425450D02*
X101600Y410210D01*
X127000Y410210D02*
X127000Y425450D01*
X152400Y425450D02*
X152400Y410210D01*
X177800Y410210D02*
X177800Y425450D01*
X203200Y425450D02*
X203200Y410210D01*
X228600Y410210D02*
X228600Y425450D01*
X254000Y425450D02*
X254000Y410210D01*
X279400Y410210D02*
X279400Y425450D01*
X304800Y425450D02*
X304800Y410210D01*
X330200Y410210D02*
X330200Y425450D01*
X355600Y425450D02*
X355600Y410210D01*
X381000Y410210D02*
X381000Y425450D01*
X406400Y425450D02*
X406400Y410210D01*
D19*
X808990Y422910D03*
D20*
X829310Y422910D03*
D19*
X1024890Y422910D03*
D20*
X1045210Y422910D03*
D21*
X562610Y425450D03*
D20*
X562610Y405130D03*
D21*
X601980Y402590D03*
X601980Y427990D03*
D18*
X356870Y374650D03*
D20*
X336550Y374650D03*
D18*
X336550Y332740D03*
X361950Y332740D03*
D22*
X563118Y330200D02*
X563118Y355600D01*
X783082Y355600D02*
X783082Y330200D01*
X292862Y328930D02*
X292862Y354330D01*
X72898Y354330D02*
X72898Y328930D01*
D23*
X774700Y463550D02*
X784860Y453390D01*
X774700Y463550D02*
X774700Y482600D01*
X784860Y453390D02*
X784860Y426720D01*
X774700Y416560D01*
X774700Y406400D01*
X679450Y430100D02*
X679450Y447470D01*
X698500Y411050D02*
X698500Y406400D01*
X698500Y411050D02*
X679450Y430100D01*
X698500Y466520D02*
X698500Y482600D01*
X698500Y466520D02*
X679450Y447470D01*
X749300Y425450D02*
X762000Y438150D01*
X749300Y425450D02*
X749300Y406400D01*
D24*
X762000Y438150D03*
X701950Y439420D03*
D23*
X701950Y441360D01*
X721120Y460530D01*
X721120Y479820D01*
X723900Y482600D01*
X748030Y481330D02*
X749300Y482600D01*
X748030Y481330D02*
X748030Y457200D01*
X723900Y433070D01*
X723900Y406400D01*
X420370Y317500D02*
X419100Y317500D01*
X1038620Y485380D02*
X1041400Y482600D01*
X840225Y411995D02*
X836415Y408185D01*
X834150Y473950D02*
X825500Y482600D01*
X834150Y473950D02*
X834150Y431800D01*
X905030Y376160D02*
X1017750Y376160D01*
X869195Y411995D02*
X840225Y411995D01*
X869195Y411995D02*
X905030Y376160D01*
X1017750Y376160D02*
X1052590Y411000D01*
X1052590Y471410D02*
X1041400Y482600D01*
X1052590Y471410D02*
X1052590Y430290D01*
X1052590Y411000D01*
X1045210Y422910D02*
X1052590Y430290D01*
X834150Y431800D02*
X834150Y410450D01*
X836415Y408185D01*
X829310Y422910D02*
X829310Y426960D01*
X834150Y431800D01*
X834150Y410450D02*
X834150Y376950D01*
X800100Y342900D02*
X783082Y342900D01*
X800100Y342900D02*
X834150Y376950D01*
X783082Y342900D02*
X729742Y289560D01*
X674370Y289560D01*
D25*
X674370Y289560D03*
X608330Y289560D03*
D23*
X447040Y289560D01*
X419100Y317500D01*
X406400Y330200D02*
X406400Y355600D01*
X406400Y330200D02*
X419100Y317500D01*
X381000Y457200D02*
X381000Y469900D01*
X999970Y512840D02*
X1013220Y499590D01*
X879630Y512840D02*
X866380Y499590D01*
X1013220Y485380D02*
X1016000Y482600D01*
X1013220Y485380D02*
X1013220Y499590D01*
X866380Y499590D02*
X866380Y485380D01*
X863600Y482600D01*
X879630Y512840D02*
X999970Y512840D01*
X848120Y499590D02*
X834870Y512840D01*
X816130Y512840D01*
X848120Y498080D02*
X863600Y482600D01*
X848120Y498080D02*
X848120Y499590D01*
X802720Y485220D02*
X800100Y482600D01*
X802720Y499430D02*
X816130Y512840D01*
X802720Y499430D02*
X802720Y485220D01*
X1159510Y485140D02*
X1235710Y485140D01*
X1159510Y485140D02*
X1131810Y512840D01*
X999970Y512840D01*
X647700Y482600D02*
X598170Y433070D01*
X650480Y499590D02*
X663730Y512840D01*
X784070Y512840D02*
X797320Y499590D01*
X650480Y499590D02*
X650480Y485380D01*
X797320Y490620D02*
X797320Y499590D01*
X797320Y490620D02*
X802720Y485220D01*
X650480Y485380D02*
X647700Y482600D01*
X663730Y512840D02*
X784070Y512840D01*
X456438Y445262D02*
X416420Y485280D01*
X456438Y445262D02*
X456438Y355600D01*
X553720Y638810D02*
X576580Y661670D01*
X576580Y671830D01*
X1146340Y766520D02*
X1265950Y646910D01*
X1257300Y485140D02*
X1235710Y485140D01*
X1146340Y766520D02*
X677036Y766520D01*
X582346Y671830D02*
X576580Y671830D01*
X582346Y671830D02*
X677036Y766520D01*
X381000Y457200D02*
X381000Y417830D01*
X381000Y469900D02*
X396380Y485280D01*
X416420Y485280D01*
X505968Y433070D02*
X456438Y383540D01*
X456438Y355600D01*
X505968Y433070D02*
X598170Y433070D01*
X456438Y363390D02*
X456438Y355600D01*
X1016000Y482600D02*
X1018620Y479980D01*
X1023606Y460784D02*
X1023606Y426720D01*
X1018620Y465770D02*
X1018620Y479980D01*
X1018620Y465770D02*
X1023606Y460784D01*
X800100Y467360D02*
X800100Y482600D01*
X800100Y467360D02*
X808990Y458470D01*
X808990Y422910D01*
X361950Y369570D02*
X361950Y332740D01*
X361950Y369570D02*
X356870Y374650D01*
X381000Y398780D01*
X381000Y417830D01*
X1257300Y485140D02*
X1265950Y493790D01*
X1265950Y646910D01*
X565150Y427990D02*
X562610Y425450D01*
X565150Y427990D02*
X601980Y427990D01*
X801370Y648970D02*
X801370Y689610D01*
X801370Y648970D02*
X800100Y647700D01*
X775970Y648970D02*
X775970Y689610D01*
X775970Y648970D02*
X774700Y647700D01*
X750570Y648970D02*
X750570Y689610D01*
X750570Y648970D02*
X749300Y647700D01*
X723900Y647700D02*
X698500Y647700D01*
X673100Y647700D02*
X671830Y646430D01*
X270200Y580700D02*
X254000Y596900D01*
X466124Y580700D02*
X472474Y574350D01*
X466124Y580700D02*
X270200Y580700D01*
X254000Y596900D02*
X254000Y609600D01*
X472474Y574350D02*
X579670Y574350D01*
X657070Y617460D02*
X673100Y633490D01*
X673100Y647700D01*
X622780Y617460D02*
X579670Y574350D01*
X622780Y617460D02*
X657070Y617460D01*
X321278Y637680D02*
X308660Y625062D01*
X308660Y613460D02*
X304800Y609600D01*
X308660Y613460D02*
X308660Y625062D01*
X321278Y637680D02*
X415322Y637680D01*
X452302Y600700D01*
X474409Y600700D01*
X480759Y594350D01*
X571385Y594350D01*
X624735Y647700D02*
X647700Y647700D01*
X624735Y647700D02*
X571385Y594350D01*
X330250Y368300D02*
X330250Y330200D01*
X330250Y328640D01*
X390360Y268530D01*
X647700Y268530D01*
X750570Y715010D02*
X775970Y715010D01*
X801370Y715010D01*
X965200Y715010D01*
X990600Y715010D01*
X1016000Y715010D01*
X889000Y482600D02*
X889000Y467360D01*
X866140Y444500D01*
X863600Y444500D01*
D24*
X863600Y444500D03*
X863600Y381000D03*
D23*
X863600Y355600D01*
X1235710Y459740D02*
X1238490Y462520D01*
D24*
X1079500Y647700D03*
X1079500Y463910D03*
D23*
X1079500Y444500D01*
X1079500Y439420D01*
X1018780Y712230D02*
X1016000Y715010D01*
X1018780Y712230D02*
X1025370Y712230D01*
X1079500Y658100D01*
X1079500Y647700D01*
X336550Y374650D02*
X336550Y374600D01*
X330250Y368300D01*
X336550Y332740D02*
X334010Y330200D01*
X330250Y330200D01*
X327660Y341630D02*
X292862Y341630D01*
X327660Y341630D02*
X336550Y332740D01*
X1140220Y463910D02*
X1141610Y462520D01*
X1140220Y463910D02*
X1079500Y463910D01*
X1141610Y462520D02*
X1238490Y462520D01*
X673100Y469900D02*
X673100Y482600D01*
X673100Y469900D02*
X647700Y444500D01*
X647700Y269160D01*
X647700Y268530D01*
X1072590Y437590D02*
X1079500Y444500D01*
X1072590Y437590D02*
X1072590Y402716D01*
X1025474Y355600D01*
X863600Y355600D01*
X777160Y269160D01*
X647700Y269160D01*
X1172210Y510540D02*
X1235710Y510540D01*
X1172210Y510540D02*
X1111250Y571500D01*
X1016000Y571500D01*
X977340Y532840D01*
X655446Y532840D01*
X254050Y468852D02*
X254050Y457250D01*
X254000Y457200D01*
X254050Y468852D02*
X279858Y494660D01*
X375400Y494660D01*
X386020Y505280D01*
X425974Y505280D01*
X475787Y455467D01*
X578073Y455467D01*
X655446Y532840D01*
X254000Y457200D02*
X254000Y417830D01*
X228600Y457200D02*
X228650Y457250D01*
X228650Y471737D01*
X273804Y516890D01*
X361950Y516890D01*
X369570Y524510D01*
X435610Y524510D02*
X483870Y476250D01*
X435610Y524510D02*
X369570Y524510D01*
X483870Y476250D02*
X569302Y476250D01*
X228600Y457200D02*
X228600Y417830D01*
X965200Y552840D02*
X1029820Y617460D01*
X1100060Y617460D01*
X1101725Y619125D01*
X1184910Y535940D02*
X1235710Y535940D01*
X1184910Y535940D02*
X1101725Y619125D01*
X645892Y552840D02*
X569302Y476250D01*
X645892Y552840D02*
X965200Y552840D01*
X1232930Y634760D02*
X1235710Y637540D01*
X1225550Y637540D01*
X1116570Y746520D01*
X685320Y746520D01*
X423607Y657680D02*
X312994Y657680D01*
X279400Y624087D02*
X279400Y609600D01*
X279400Y624087D02*
X312994Y657680D01*
X423607Y657680D02*
X460587Y620700D01*
X482693Y620700D01*
X486187Y617206D01*
X563939Y617206D01*
X599455Y660518D02*
X599387Y660586D01*
X599455Y652722D02*
X563939Y617206D01*
X599455Y652722D02*
X599455Y660518D01*
X599387Y660586D02*
X685320Y746520D01*
X990600Y482600D02*
X990600Y463620D01*
X1002855Y451365D01*
X1002855Y432725D01*
X990600Y420470D01*
X990600Y406400D01*
X897580Y430100D02*
X897580Y448740D01*
X914400Y413280D02*
X914400Y406400D01*
X914400Y413280D02*
X897580Y430100D01*
X914400Y465560D02*
X914400Y482600D01*
X914400Y465560D02*
X897580Y448740D01*
X965200Y426890D02*
X965200Y406400D01*
X965200Y426890D02*
X980355Y442045D01*
D24*
X980355Y442045D03*
X920080Y440690D03*
D23*
X920080Y441874D02*
X939800Y461594D01*
X920080Y441874D02*
X920080Y440690D01*
X939800Y461594D02*
X939800Y482600D01*
X942580Y436090D02*
X942580Y409180D01*
X939800Y406400D01*
X965200Y458710D02*
X965200Y482600D01*
X965200Y458710D02*
X942580Y436090D01*
X1016000Y647700D02*
X1016000Y689610D01*
X965200Y689610D02*
X965200Y647700D01*
X939800Y647700D02*
X914400Y647700D01*
X492154Y496250D02*
X445164Y543240D01*
X360016Y543240D02*
X353666Y536890D01*
X360016Y543240D02*
X445164Y543240D01*
X353666Y536890D02*
X250510Y536890D01*
X203250Y609550D02*
X203200Y609600D01*
X203250Y609550D02*
X203250Y584150D01*
X250510Y536890D01*
X749300Y579755D02*
X866489Y579755D01*
X886220Y644920D02*
X889000Y647700D01*
X886220Y599486D02*
X866489Y579755D01*
X886220Y599486D02*
X886220Y644920D01*
X561018Y496250D02*
X492154Y496250D01*
X561018Y496250D02*
X637608Y572840D01*
X742385Y572840D02*
X749300Y579755D01*
X742385Y572840D02*
X637608Y572840D01*
X990600Y647700D02*
X990600Y689610D01*
X406400Y457200D02*
X406400Y381000D01*
X228650Y609550D02*
X228600Y609600D01*
X228650Y609550D02*
X228650Y587034D01*
X258794Y556890D01*
X345381Y556890D01*
X350461Y561970D01*
X456570Y561970D02*
X502290Y516250D01*
X456570Y561970D02*
X350461Y561970D01*
X863600Y612455D02*
X863600Y647700D01*
X863600Y612455D02*
X850900Y599755D01*
X731205Y599755D01*
X724290Y592840D01*
X551810Y516250D02*
X502290Y516250D01*
X628400Y592840D02*
X724290Y592840D01*
X628400Y592840D02*
X551810Y516250D01*
X551180Y733919D02*
X549910Y734060D01*
X551180Y733919D02*
X551180Y697230D01*
X502920Y671830D02*
X500380Y671830D01*
X502920Y671830D02*
X502920Y638810D01*
X274729Y647700D02*
X228600Y647700D01*
X274729Y647700D02*
X304709Y677680D01*
X431891Y677680D01*
X468871Y640700D01*
X501030Y640700D02*
X502920Y638810D01*
X501030Y640700D02*
X468871Y640700D01*
X473710Y734060D02*
X500380Y731635D01*
X500380Y697230D01*
X483870Y736600D02*
X473710Y734060D01*
X76200Y495300D02*
X76200Y457200D01*
X76200Y417830D01*
X437330Y697680D02*
X473710Y734060D01*
X437330Y697680D02*
X296425Y697680D01*
X286765Y688020D01*
X46430Y688020D01*
X76200Y499064D02*
X76200Y457200D01*
X28180Y669770D02*
X46430Y688020D01*
X28180Y669770D02*
X28180Y547084D01*
X76200Y499064D01*
X177800Y609600D02*
X177800Y629847D01*
X574055Y699755D02*
X576580Y697230D01*
X557589Y756934D02*
X226074Y756934D01*
X574055Y740468D02*
X574055Y699755D01*
X574055Y740468D02*
X557589Y756934D01*
X226074Y756934D02*
X187960Y718820D01*
D25*
X187960Y718820D03*
X187960Y668020D03*
D23*
X187960Y640007D01*
X177800Y629847D01*
X152400Y635000D02*
X152400Y647700D01*
X152400Y635000D02*
X152400Y609600D01*
X127000Y609600D02*
X127000Y652780D01*
X101600Y652780D02*
X101600Y609600D01*
X76200Y609600D02*
X76200Y652780D01*
X50800Y652780D02*
X50800Y609600D01*
X50800Y457200D02*
X50800Y417830D01*
X101600Y417830D02*
X101600Y457200D01*
X127000Y457200D02*
X127000Y417830D01*
X152400Y417830D02*
X152400Y457200D01*
X177800Y457200D02*
X177800Y417830D01*
X203200Y417830D02*
X203200Y457200D01*
X279400Y457200D02*
X279400Y417830D01*
X304800Y417830D02*
X304800Y457200D01*
X355600Y457200D02*
X355600Y417830D01*
X330200Y417830D02*
X327420Y415050D01*
X327420Y400840D01*
X311150Y384570D01*
X139700Y384570D01*
X115838Y384570D02*
X72898Y341630D01*
X115838Y384570D02*
X139700Y384570D01*
X506476Y355600D02*
X533400Y355600D01*
X550418Y355600D02*
X563118Y342900D01*
X562610Y405130D02*
X599440Y405130D01*
X562610Y405130D02*
X533400Y405130D01*
X599440Y405130D02*
X601980Y402590D01*
X533400Y405130D02*
X533400Y355600D01*
X550418Y355600D01*
M02*
