G04 EAGLE Gerber RS-274X export*
G75*
%MOMM*%
%FSLAX34Y34*%
%LPD*%
%IN*%
%IPPOS*%
%AMOC8*
5,1,8,0,0,1.08239X$1,22.5*%
G01*
%ADD10C,0.254000*%


D10*
X0Y254000D02*
X1295200Y254000D01*
X1295200Y784100D01*
X0Y784100D01*
X0Y254000D01*
X40400Y710664D02*
X40324Y709596D01*
X40171Y708535D01*
X39943Y707488D01*
X39641Y706460D01*
X39267Y705456D01*
X38822Y704481D01*
X38308Y703541D01*
X37729Y702640D01*
X37087Y701782D01*
X36385Y700972D01*
X35628Y700215D01*
X34818Y699513D01*
X33960Y698871D01*
X33059Y698292D01*
X32119Y697778D01*
X31144Y697333D01*
X30140Y696959D01*
X29112Y696657D01*
X28065Y696429D01*
X27004Y696276D01*
X25936Y696200D01*
X24864Y696200D01*
X23796Y696276D01*
X22735Y696429D01*
X21688Y696657D01*
X20660Y696959D01*
X19656Y697333D01*
X18681Y697778D01*
X17741Y698292D01*
X16840Y698871D01*
X15982Y699513D01*
X15172Y700215D01*
X14415Y700972D01*
X13713Y701782D01*
X13071Y702640D01*
X12492Y703541D01*
X11978Y704481D01*
X11533Y705456D01*
X11159Y706460D01*
X10857Y707488D01*
X10629Y708535D01*
X10476Y709596D01*
X10400Y710664D01*
X10400Y711736D01*
X10476Y712804D01*
X10629Y713865D01*
X10857Y714912D01*
X11159Y715940D01*
X11533Y716944D01*
X11978Y717919D01*
X12492Y718859D01*
X13071Y719760D01*
X13713Y720618D01*
X14415Y721428D01*
X15172Y722185D01*
X15982Y722887D01*
X16840Y723529D01*
X17741Y724108D01*
X18681Y724622D01*
X19656Y725067D01*
X20660Y725441D01*
X21688Y725743D01*
X22735Y725971D01*
X23796Y726124D01*
X24864Y726200D01*
X25936Y726200D01*
X27004Y726124D01*
X28065Y725971D01*
X29112Y725743D01*
X30140Y725441D01*
X31144Y725067D01*
X32119Y724622D01*
X33059Y724108D01*
X33960Y723529D01*
X34818Y722887D01*
X35628Y722185D01*
X36385Y721428D01*
X37087Y720618D01*
X37729Y719760D01*
X38308Y718859D01*
X38822Y717919D01*
X39267Y716944D01*
X39641Y715940D01*
X39943Y714912D01*
X40171Y713865D01*
X40324Y712804D01*
X40400Y711736D01*
X40400Y710664D01*
X40400Y304264D02*
X40324Y303196D01*
X40171Y302135D01*
X39943Y301088D01*
X39641Y300060D01*
X39267Y299056D01*
X38822Y298081D01*
X38308Y297141D01*
X37729Y296240D01*
X37087Y295382D01*
X36385Y294572D01*
X35628Y293815D01*
X34818Y293113D01*
X33960Y292471D01*
X33059Y291892D01*
X32119Y291378D01*
X31144Y290933D01*
X30140Y290559D01*
X29112Y290257D01*
X28065Y290029D01*
X27004Y289876D01*
X25936Y289800D01*
X24864Y289800D01*
X23796Y289876D01*
X22735Y290029D01*
X21688Y290257D01*
X20660Y290559D01*
X19656Y290933D01*
X18681Y291378D01*
X17741Y291892D01*
X16840Y292471D01*
X15982Y293113D01*
X15172Y293815D01*
X14415Y294572D01*
X13713Y295382D01*
X13071Y296240D01*
X12492Y297141D01*
X11978Y298081D01*
X11533Y299056D01*
X11159Y300060D01*
X10857Y301088D01*
X10629Y302135D01*
X10476Y303196D01*
X10400Y304264D01*
X10400Y305336D01*
X10476Y306404D01*
X10629Y307465D01*
X10857Y308512D01*
X11159Y309540D01*
X11533Y310544D01*
X11978Y311519D01*
X12492Y312459D01*
X13071Y313360D01*
X13713Y314218D01*
X14415Y315028D01*
X15172Y315785D01*
X15982Y316487D01*
X16840Y317129D01*
X17741Y317708D01*
X18681Y318222D01*
X19656Y318667D01*
X20660Y319041D01*
X21688Y319343D01*
X22735Y319571D01*
X23796Y319724D01*
X24864Y319800D01*
X25936Y319800D01*
X27004Y319724D01*
X28065Y319571D01*
X29112Y319343D01*
X30140Y319041D01*
X31144Y318667D01*
X32119Y318222D01*
X33059Y317708D01*
X33960Y317129D01*
X34818Y316487D01*
X35628Y315785D01*
X36385Y315028D01*
X37087Y314218D01*
X37729Y313360D01*
X38308Y312459D01*
X38822Y311519D01*
X39267Y310544D01*
X39641Y309540D01*
X39943Y308512D01*
X40171Y307465D01*
X40324Y306404D01*
X40400Y305336D01*
X40400Y304264D01*
X1285000Y304264D02*
X1284924Y303196D01*
X1284771Y302135D01*
X1284543Y301088D01*
X1284241Y300060D01*
X1283867Y299056D01*
X1283422Y298081D01*
X1282908Y297141D01*
X1282329Y296240D01*
X1281687Y295382D01*
X1280985Y294572D01*
X1280228Y293815D01*
X1279418Y293113D01*
X1278560Y292471D01*
X1277659Y291892D01*
X1276719Y291378D01*
X1275744Y290933D01*
X1274740Y290559D01*
X1273712Y290257D01*
X1272665Y290029D01*
X1271604Y289876D01*
X1270536Y289800D01*
X1269464Y289800D01*
X1268396Y289876D01*
X1267335Y290029D01*
X1266288Y290257D01*
X1265260Y290559D01*
X1264256Y290933D01*
X1263281Y291378D01*
X1262341Y291892D01*
X1261440Y292471D01*
X1260582Y293113D01*
X1259772Y293815D01*
X1259015Y294572D01*
X1258313Y295382D01*
X1257671Y296240D01*
X1257092Y297141D01*
X1256578Y298081D01*
X1256133Y299056D01*
X1255759Y300060D01*
X1255457Y301088D01*
X1255229Y302135D01*
X1255076Y303196D01*
X1255000Y304264D01*
X1255000Y305336D01*
X1255076Y306404D01*
X1255229Y307465D01*
X1255457Y308512D01*
X1255759Y309540D01*
X1256133Y310544D01*
X1256578Y311519D01*
X1257092Y312459D01*
X1257671Y313360D01*
X1258313Y314218D01*
X1259015Y315028D01*
X1259772Y315785D01*
X1260582Y316487D01*
X1261440Y317129D01*
X1262341Y317708D01*
X1263281Y318222D01*
X1264256Y318667D01*
X1265260Y319041D01*
X1266288Y319343D01*
X1267335Y319571D01*
X1268396Y319724D01*
X1269464Y319800D01*
X1270536Y319800D01*
X1271604Y319724D01*
X1272665Y319571D01*
X1273712Y319343D01*
X1274740Y319041D01*
X1275744Y318667D01*
X1276719Y318222D01*
X1277659Y317708D01*
X1278560Y317129D01*
X1279418Y316487D01*
X1280228Y315785D01*
X1280985Y315028D01*
X1281687Y314218D01*
X1282329Y313360D01*
X1282908Y312459D01*
X1283422Y311519D01*
X1283867Y310544D01*
X1284241Y309540D01*
X1284543Y308512D01*
X1284771Y307465D01*
X1284924Y306404D01*
X1285000Y305336D01*
X1285000Y304264D01*
X1285000Y710664D02*
X1284924Y709596D01*
X1284771Y708535D01*
X1284543Y707488D01*
X1284241Y706460D01*
X1283867Y705456D01*
X1283422Y704481D01*
X1282908Y703541D01*
X1282329Y702640D01*
X1281687Y701782D01*
X1280985Y700972D01*
X1280228Y700215D01*
X1279418Y699513D01*
X1278560Y698871D01*
X1277659Y698292D01*
X1276719Y697778D01*
X1275744Y697333D01*
X1274740Y696959D01*
X1273712Y696657D01*
X1272665Y696429D01*
X1271604Y696276D01*
X1270536Y696200D01*
X1269464Y696200D01*
X1268396Y696276D01*
X1267335Y696429D01*
X1266288Y696657D01*
X1265260Y696959D01*
X1264256Y697333D01*
X1263281Y697778D01*
X1262341Y698292D01*
X1261440Y698871D01*
X1260582Y699513D01*
X1259772Y700215D01*
X1259015Y700972D01*
X1258313Y701782D01*
X1257671Y702640D01*
X1257092Y703541D01*
X1256578Y704481D01*
X1256133Y705456D01*
X1255759Y706460D01*
X1255457Y707488D01*
X1255229Y708535D01*
X1255076Y709596D01*
X1255000Y710664D01*
X1255000Y711736D01*
X1255076Y712804D01*
X1255229Y713865D01*
X1255457Y714912D01*
X1255759Y715940D01*
X1256133Y716944D01*
X1256578Y717919D01*
X1257092Y718859D01*
X1257671Y719760D01*
X1258313Y720618D01*
X1259015Y721428D01*
X1259772Y722185D01*
X1260582Y722887D01*
X1261440Y723529D01*
X1262341Y724108D01*
X1263281Y724622D01*
X1264256Y725067D01*
X1265260Y725441D01*
X1266288Y725743D01*
X1267335Y725971D01*
X1268396Y726124D01*
X1269464Y726200D01*
X1270536Y726200D01*
X1271604Y726124D01*
X1272665Y725971D01*
X1273712Y725743D01*
X1274740Y725441D01*
X1275744Y725067D01*
X1276719Y724622D01*
X1277659Y724108D01*
X1278560Y723529D01*
X1279418Y722887D01*
X1280228Y722185D01*
X1280985Y721428D01*
X1281687Y720618D01*
X1282329Y719760D01*
X1282908Y718859D01*
X1283422Y717919D01*
X1283867Y716944D01*
X1284241Y715940D01*
X1284543Y714912D01*
X1284771Y713865D01*
X1284924Y712804D01*
X1285000Y711736D01*
X1285000Y710664D01*
M02*
