G04 EAGLE Gerber RS-274X export*
G75*
%MOMM*%
%FSLAX34Y34*%
%LPD*%
%INSoldermask Bottom*%
%IPPOS*%
%AMOC8*
5,1,8,0,0,1.08239X$1,22.5*%
G01*
%ADD10C,3.203200*%
%ADD11C,1.727200*%
%ADD12C,1.511200*%
%ADD13C,2.184400*%
%ADD14P,1.869504X8X202.500000*%
%ADD15R,1.778200X1.778200*%
%ADD16C,1.778200*%
%ADD17P,1.649562X8X22.500000*%
%ADD18P,1.649562X8X202.500000*%
%ADD19C,1.524000*%
%ADD20P,1.649562X8X112.500000*%
%ADD21C,2.743200*%
%ADD22C,1.703200*%
%ADD23C,0.959600*%


D10*
X25400Y711200D03*
X25400Y304800D03*
X1270000Y304800D03*
X1270000Y711200D03*
D11*
X774700Y414020D02*
X774700Y398780D01*
X749300Y398780D02*
X749300Y414020D01*
X723900Y414020D02*
X723900Y398780D01*
X698500Y398780D02*
X698500Y414020D01*
D12*
X406400Y603060D02*
X406400Y616140D01*
X381000Y616140D02*
X381000Y603060D01*
X355600Y603060D02*
X355600Y616140D01*
X330200Y616140D02*
X330200Y603060D01*
X304800Y603060D02*
X304800Y616140D01*
X279400Y616140D02*
X279400Y603060D01*
X254000Y603060D02*
X254000Y616140D01*
X228600Y616140D02*
X228600Y603060D01*
X203200Y603060D02*
X203200Y616140D01*
X177800Y616140D02*
X177800Y603060D01*
X152400Y603060D02*
X152400Y616140D01*
X127000Y616140D02*
X127000Y603060D01*
X406400Y463740D02*
X406400Y450660D01*
X381000Y450660D02*
X381000Y463740D01*
X355600Y463740D02*
X355600Y450660D01*
X203200Y450660D02*
X203200Y463740D01*
X177800Y463740D02*
X177800Y450660D01*
X152400Y450660D02*
X152400Y463740D01*
X127000Y463740D02*
X127000Y450660D01*
X50800Y450660D02*
X50800Y463740D01*
X50800Y603060D02*
X50800Y616140D01*
X76200Y616140D02*
X76200Y603060D01*
X101600Y603060D02*
X101600Y616140D01*
X76200Y463740D02*
X76200Y450660D01*
X101600Y450660D02*
X101600Y463740D01*
X330200Y463740D02*
X330200Y450660D01*
X228600Y450660D02*
X228600Y463740D01*
X254000Y463740D02*
X254000Y450660D01*
X279400Y450660D02*
X279400Y463740D01*
X304800Y463740D02*
X304800Y450660D01*
D11*
X1228090Y637540D02*
X1243330Y637540D01*
X1243330Y612140D02*
X1228090Y612140D01*
X1228090Y586740D02*
X1243330Y586740D01*
X1243330Y561340D02*
X1228090Y561340D01*
X1228090Y535940D02*
X1243330Y535940D01*
X1243330Y510540D02*
X1228090Y510540D01*
X1228090Y485140D02*
X1243330Y485140D01*
X1243330Y459740D02*
X1228090Y459740D01*
X825500Y640080D02*
X825500Y655320D01*
X800100Y655320D02*
X800100Y640080D01*
X774700Y640080D02*
X774700Y655320D01*
X749300Y655320D02*
X749300Y640080D01*
X723900Y640080D02*
X723900Y655320D01*
X698500Y655320D02*
X698500Y640080D01*
X673100Y640080D02*
X673100Y655320D01*
X647700Y655320D02*
X647700Y640080D01*
X825500Y490220D02*
X825500Y474980D01*
X800100Y474980D02*
X800100Y490220D01*
X774700Y490220D02*
X774700Y474980D01*
X749300Y474980D02*
X749300Y490220D01*
X723900Y490220D02*
X723900Y474980D01*
X698500Y474980D02*
X698500Y490220D01*
X673100Y490220D02*
X673100Y474980D01*
X647700Y474980D02*
X647700Y490220D01*
D13*
X506476Y365506D02*
X506476Y345694D01*
X456438Y345694D02*
X456438Y365506D01*
D11*
X1041400Y640080D02*
X1041400Y655320D01*
X1016000Y655320D02*
X1016000Y640080D01*
X990600Y640080D02*
X990600Y655320D01*
X965200Y655320D02*
X965200Y640080D01*
X939800Y640080D02*
X939800Y655320D01*
X914400Y655320D02*
X914400Y640080D01*
X889000Y640080D02*
X889000Y655320D01*
X863600Y655320D02*
X863600Y640080D01*
X1041400Y490220D02*
X1041400Y474980D01*
X1016000Y474980D02*
X1016000Y490220D01*
X990600Y490220D02*
X990600Y474980D01*
X965200Y474980D02*
X965200Y490220D01*
X939800Y490220D02*
X939800Y474980D01*
X914400Y474980D02*
X914400Y490220D01*
X889000Y490220D02*
X889000Y474980D01*
X863600Y474980D02*
X863600Y490220D01*
X990600Y414020D02*
X990600Y398780D01*
X965200Y398780D02*
X965200Y414020D01*
X939800Y414020D02*
X939800Y398780D01*
X914400Y398780D02*
X914400Y414020D01*
D14*
X801370Y715010D03*
X801370Y689610D03*
X775970Y715010D03*
X775970Y689610D03*
X750570Y715010D03*
X750570Y689610D03*
X1016000Y715010D03*
X1016000Y689610D03*
X990600Y715010D03*
X990600Y689610D03*
X965200Y715010D03*
X965200Y689610D03*
D11*
X414020Y355600D02*
X398780Y355600D01*
X398780Y381000D02*
X414020Y381000D01*
D15*
X500380Y671830D03*
D16*
X525780Y671830D03*
X551180Y671830D03*
D15*
X576580Y671830D03*
D16*
X576580Y697230D03*
X551180Y697230D03*
X525780Y697230D03*
X500380Y697230D03*
D17*
X502920Y638810D03*
X553720Y638810D03*
X152400Y647700D03*
X228600Y647700D03*
X473710Y734060D03*
X549910Y734060D03*
D11*
X50800Y660400D02*
X50800Y645160D01*
X76200Y645160D02*
X76200Y660400D01*
X101600Y660400D02*
X101600Y645160D01*
X127000Y645160D02*
X127000Y660400D01*
X50800Y425450D02*
X50800Y410210D01*
X76200Y410210D02*
X76200Y425450D01*
X101600Y425450D02*
X101600Y410210D01*
X127000Y410210D02*
X127000Y425450D01*
X152400Y425450D02*
X152400Y410210D01*
X177800Y410210D02*
X177800Y425450D01*
X203200Y425450D02*
X203200Y410210D01*
X228600Y410210D02*
X228600Y425450D01*
X254000Y425450D02*
X254000Y410210D01*
X279400Y410210D02*
X279400Y425450D01*
X304800Y425450D02*
X304800Y410210D01*
X330200Y410210D02*
X330200Y425450D01*
X355600Y425450D02*
X355600Y410210D01*
X381000Y410210D02*
X381000Y425450D01*
X406400Y425450D02*
X406400Y410210D01*
D18*
X808990Y422910D03*
D19*
X829310Y422910D03*
D18*
X1024890Y422910D03*
D19*
X1045210Y422910D03*
D20*
X562610Y425450D03*
D19*
X562610Y405130D03*
D20*
X601980Y402590D03*
X601980Y427990D03*
D17*
X356870Y374650D03*
D19*
X336550Y374650D03*
D17*
X336550Y332740D03*
X361950Y332740D03*
D21*
X563118Y330200D02*
X563118Y355600D01*
X783082Y355600D02*
X783082Y330200D01*
X292862Y328930D02*
X292862Y354330D01*
X72898Y354330D02*
X72898Y328930D01*
D22*
X762000Y438150D03*
X701950Y439420D03*
D23*
X674370Y289560D03*
X608330Y289560D03*
D22*
X863600Y444500D03*
X863600Y381000D03*
X1079500Y647700D03*
X1079500Y463910D03*
X980355Y442045D03*
X920080Y440690D03*
D23*
X187960Y718820D03*
X187960Y668020D03*
M02*
